<?xml version="1.0" encoding="UTF-8" standalone="no"?>
<svg
   xmlns:dc="http://purl.org/dc/elements/1.1/"
   xmlns:cc="http://creativecommons.org/ns#"
   xmlns:rdf="http://www.w3.org/1999/02/22-rdf-syntax-ns#"
   xmlns:svg="http://www.w3.org/2000/svg"
   xmlns="http://www.w3.org/2000/svg"
   id="svg4796"
   version="1.1"
   viewBox="0 0 175.7038 43.060909"
   height="43.060909mm"
   width="175.7038mm">
  <defs
     id="defs4790">
    <marker
       orient="auto"
       refY="0"
       refX="0"
       id="marker2504-6"
       style="overflow:visible">
      <path
         id="path2502-6"
         style="fill:#000000;fill-opacity:1;fill-rule:evenodd;stroke:#000000;stroke-width:0.625;stroke-linejoin:round;stroke-opacity:1"
         d="M 8.7185878,4.0337352 -2.2072895,0.01601326 8.7185884,-4.0017078 c -1.7454984,2.3720609 -1.7354408,5.6174519 -6e-7,8.035443 z"
         transform="scale(-0.6)" />
    </marker>
    <marker
       style="overflow:visible"
       id="Arrow2Mend-6"
       refX="0"
       refY="0"
       orient="auto">
      <path
         transform="scale(-0.6)"
         d="M 8.7185878,4.0337352 -2.2072895,0.01601326 8.7185884,-4.0017078 c -1.7454984,2.3720609 -1.7354408,5.6174519 -6e-7,8.035443 z"
         style="fill:#000000;fill-opacity:1;fill-rule:evenodd;stroke:#000000;stroke-width:0.625;stroke-linejoin:round;stroke-opacity:1"
         id="path931-8" />
    </marker>
  </defs>
  <metadata
     id="metadata4793">
    <rdf:RDF>
      <cc:Work
         rdf:about="">
        <dc:format>image/svg+xml</dc:format>
        <dc:type
           rdf:resource="http://purl.org/dc/dcmitype/StillImage" />
        <dc:title></dc:title>
      </cc:Work>
    </rdf:RDF>
  </metadata>
  <g
     transform="translate(236.01857,-2.5707365)"
     id="layer1">
    <path
       id="path824"
       d="m -164.65446,14.428129 h -70.96723 v 30.806619 h 70.96723 z"
       style="color:#000000;clip-rule:nonzero;display:inline;overflow:visible;visibility:visible;opacity:1;isolation:auto;mix-blend-mode:normal;color-interpolation:sRGB;color-interpolation-filters:linearRGB;solid-color:#000000;solid-opacity:1;vector-effect:none;fill:#ffffff;fill-opacity:1;fill-rule:nonzero;stroke:#000000;stroke-width:0.79375005;stroke-linecap:butt;stroke-linejoin:miter;stroke-miterlimit:4;stroke-dasharray:none;stroke-dashoffset:0;stroke-opacity:1;color-rendering:auto;image-rendering:auto;shape-rendering:auto;text-rendering:auto;enable-background:accumulate" />
    <path
       id="rect815"
       d="M -235.62169,2.9676175 V 14.428129 h 70.96723 V 2.9676175 Z"
       style="color:#000000;clip-rule:nonzero;display:inline;overflow:visible;visibility:visible;opacity:1;isolation:auto;mix-blend-mode:normal;color-interpolation:sRGB;color-interpolation-filters:linearRGB;solid-color:#000000;solid-opacity:1;vector-effect:none;fill:#eeeeec;fill-opacity:1;fill-rule:nonzero;stroke:#000000;stroke-width:0.79374999;stroke-linecap:butt;stroke-linejoin:miter;stroke-miterlimit:4;stroke-dasharray:none;stroke-dashoffset:0;stroke-opacity:1;color-rendering:auto;image-rendering:auto;shape-rendering:auto;text-rendering:auto;enable-background:accumulate" />
    <g
       id="text819"
       style="font-style:normal;font-variant:normal;font-weight:normal;font-stretch:normal;font-size:5.83388996px;line-height:9.94412994px;font-family:'DejaVu Sans Mono';-inkscape-font-specification:'DejaVu Sans Mono, Normal';font-variant-ligatures:normal;font-variant-position:normal;font-variant-caps:normal;font-variant-numeric:normal;font-variant-alternates:normal;text-indent:0;text-align:start;text-decoration:none;text-decoration-line:none;text-decoration-style:solid;text-decoration-color:#000000;letter-spacing:0.39776516px;word-spacing:0px;text-transform:none;writing-mode:lr-tb;direction:ltr;text-orientation:mixed;dominant-baseline:auto;baseline-shift:baseline;text-anchor:start;white-space:normal;shape-padding:0;opacity:1;vector-effect:none;fill:#000000;fill-opacity:1;stroke:none;stroke-width:0.52916664;stroke-linecap:butt;stroke-linejoin:miter;stroke-miterlimit:4;stroke-dasharray:none;stroke-dashoffset:0;stroke-opacity:1"
       transform="scale(0.99919514,1.0008055)"
       aria-label="Control node">
      <path
         id="path5554"
         style="font-size:5.64444447px;stroke-width:0.52916664"
         d="m -230.51403,10.910484 q -0.21222,0.112999 -0.43546,0.16812 -0.22324,0.05788 -0.47404,0.05788 -0.791,0 -1.22921,-0.559484 -0.43546,-0.559483 -0.43546,-1.5737192 0,-1.0087239 0.43821,-1.5709635 0.44097,-0.5649957 1.22646,-0.5649957 0.2508,0 0.47404,0.057878 0.22324,0.055122 0.43546,0.1681207 v 0.5705078 q -0.20395,-0.1681207 -0.43821,-0.2563151 -0.23427,-0.088194 -0.47129,-0.088194 -0.54295,0 -0.81305,0.4189236 -0.27009,0.4189236 -0.27009,1.265039 0,0.8433594 0.27009,1.2622834 0.2701,0.418923 0.81305,0.418923 0.24253,0 0.47404,-0.08819 0.23427,-0.08819 0.43546,-0.256315 z" />
      <path
         id="path5556"
         style="font-size:5.64444447px;stroke-width:0.52916664"
         d="m -227.9803,8.325284 q -0.38585,0 -0.58429,0.3004124 -0.19844,0.3004123 -0.19844,0.8902126 0,0.587044 0.19844,0.890213 0.19844,0.300412 0.58429,0.300412 0.3886,0 0.58704,-0.300412 0.19844,-0.303169 0.19844,-0.890213 0,-0.5898003 -0.19844,-0.8902126 -0.19844,-0.3004124 -0.58704,-0.3004124 z m 0,-0.4299479 q 0.64216,0 0.98116,0.4161676 0.34175,0.4161675 0.34175,1.2044053 0,0.790994 -0.33899,1.207162 -0.339,0.413411 -0.98392,0.413411 -0.64217,0 -0.98117,-0.413411 -0.33899,-0.416168 -0.33899,-1.207162 0,-0.7882378 0.33899,-1.2044053 0.339,-0.4161676 0.98117,-0.4161676 z" />
      <path
         id="path5558"
         style="font-size:5.64444447px;stroke-width:0.52916664"
         d="m -222.98816,9.1438387 v 1.9127173 h -0.50987 V 9.1438387 q 0,-0.4161675 -0.14608,-0.6118489 -0.14607,-0.1956815 -0.4575,-0.1956815 -0.35554,0 -0.54846,0.2535591 -0.19017,0.2508029 -0.19017,0.722092 v 1.7445966 h -0.50712 V 7.9697502 h 0.50712 V 8.432771 q 0.13505,-0.2645833 0.36656,-0.3996311 0.23151,-0.1378038 0.54845,-0.1378038 0.47129,0 0.7028,0.3114367 0.23427,0.3086805 0.23427,0.9370659 z" />
      <path
         id="path5560"
         style="font-size:5.64444447px;stroke-width:0.52916664"
         d="m -220.39931,7.0933179 v 0.8764323 h 1.15204 v 0.3941189 h -1.15204 v 1.6756949 q 0,0.341753 0.12953,0.476801 0.12954,0.135048 0.452,0.135048 h 0.57051 v 0.405143 h -0.62012 q -0.57051,0 -0.80477,-0.228755 -0.23427,-0.228754 -0.23427,-0.788237 V 8.3638691 h -0.82407 V 7.9697502 h 0.82407 V 7.0933179 Z" />
      <path
         id="path5562"
         style="font-size:5.64444447px;stroke-width:0.52916664"
         d="m -215.11502,8.6064038 q -0.16261,-0.1267795 -0.33073,-0.1846571 -0.16812,-0.057878 -0.36932,-0.057878 -0.47404,0 -0.72485,0.2976563 -0.2508,0.2976562 -0.2508,0.8598958 v 1.5351352 h -0.50987 V 7.9697502 h 0.50987 v 0.6035807 q 0.12678,-0.3279731 0.38861,-0.5016059 0.26458,-0.1763889 0.62563,-0.1763889 0.18741,0 0.35002,0.046853 0.16261,0.046853 0.31144,0.1460721 z" />
      <path
         id="path5564"
         style="font-size:5.64444447px;stroke-width:0.52916664"
         d="m -212.8073,8.325284 q -0.38585,0 -0.58429,0.3004124 -0.19843,0.3004123 -0.19843,0.8902126 0,0.587044 0.19843,0.890213 0.19844,0.300412 0.58429,0.300412 0.38861,0 0.58705,-0.300412 0.19843,-0.303169 0.19843,-0.890213 0,-0.5898003 -0.19843,-0.8902126 -0.19844,-0.3004124 -0.58705,-0.3004124 z m 0,-0.4299479 q 0.64217,0 0.98117,0.4161676 0.34175,0.4161675 0.34175,1.2044053 0,0.790994 -0.339,1.207162 -0.339,0.413411 -0.98392,0.413411 -0.64216,0 -0.98116,-0.413411 -0.339,-0.416168 -0.339,-1.207162 0,-0.7882378 0.339,-1.2044053 0.339,-0.4161676 0.98116,-0.4161676 z" />
      <path
         id="path5566"
         style="font-size:5.64444447px;stroke-width:0.52916664"
         d="m -208.95066,9.9375887 q 0,0.3417533 0.12403,0.5153863 0.12678,0.173633 0.37207,0.173633 h 0.59255 v 0.429948 h -0.64216 q -0.45476,0 -0.70556,-0.292144 -0.24805,-0.292144 -0.24805,-0.8268233 V 7.134659 h -0.81304 V 6.737784 h 1.32016 z" />
      <path
         id="path5568"
         style="font-size:5.64444447px;stroke-width:0.52916664"
         d="m -200.22865,9.1438387 v 1.9127173 h -0.50988 V 9.1438387 q 0,-0.4161675 -0.14607,-0.6118489 -0.14607,-0.1956815 -0.45751,-0.1956815 -0.35553,0 -0.54846,0.2535591 -0.19017,0.2508029 -0.19017,0.722092 v 1.7445966 h -0.50711 V 7.9697502 h 0.50711 V 8.432771 q 0.13505,-0.2645833 0.36656,-0.3996311 0.23151,-0.1378038 0.54846,-0.1378038 0.47129,0 0.7028,0.3114367 0.23427,0.3086805 0.23427,0.9370659 z" />
      <path
         id="path5570"
         style="font-size:5.64444447px;stroke-width:0.52916664"
         d="m -197.63429,8.325284 q -0.38585,0 -0.58429,0.3004124 -0.19844,0.3004123 -0.19844,0.8902126 0,0.587044 0.19844,0.890213 0.19844,0.300412 0.58429,0.300412 0.3886,0 0.58704,-0.300412 0.19844,-0.303169 0.19844,-0.890213 0,-0.5898003 -0.19844,-0.8902126 -0.19844,-0.3004124 -0.58704,-0.3004124 z m 0,-0.4299479 q 0.64216,0 0.98116,0.4161676 0.34175,0.4161675 0.34175,1.2044053 0,0.790994 -0.33899,1.207162 -0.339,0.413411 -0.98392,0.413411 -0.64217,0 -0.98117,-0.413411 -0.33899,-0.416168 -0.33899,-1.207162 0,-0.7882378 0.33899,-1.2044053 0.339,-0.4161676 0.98117,-0.4161676 z" />
      <path
         id="path5572"
         style="font-size:5.64444447px;stroke-width:0.52916664"
         d="M -193.17407,8.3638691 V 6.7681009 h 0.50712 v 4.2884551 h -0.50712 v -0.388607 q -0.12678,0.228754 -0.339,0.350022 -0.20946,0.118511 -0.48507,0.118511 -0.55948,0 -0.88194,-0.432704 -0.31971,-0.43546 -0.31971,-1.1988933 0,-0.7524088 0.32246,-1.1796007 0.32247,-0.4299479 0.87919,-0.4299479 0.27837,0 0.49058,0.1212674 0.21222,0.1185113 0.33349,0.3472656 z m -1.49104,1.1520399 q 0,0.5898 0.18742,0.890213 0.18741,0.300412 0.55397,0.300412 0.36655,0 0.55672,-0.303168 0.19293,-0.303169 0.19293,-0.887457 0,-0.5870442 -0.19293,-0.8874566 -0.19017,-0.3031684 -0.55672,-0.3031684 -0.36656,0 -0.55397,0.3004124 -0.18742,0.3004123 -0.18742,0.8902126 z" />
      <path
         id="path5574"
         style="font-size:5.64444447px;stroke-width:0.52916664"
         d="m -188.68078,9.3863735 v 0.2480468 h -2.19659 v 0.016536 q 0,0.5043617 0.26183,0.7799687 0.26458,0.275608 0.74414,0.275608 0.24253,0 0.50712,-0.07717 0.26458,-0.07717 0.56499,-0.234267 v 0.504362 q -0.28939,0.118512 -0.55948,0.176389 -0.26734,0.06063 -0.51814,0.06063 -0.71934,0 -1.12448,-0.429948 -0.40515,-0.432704 -0.40515,-1.1906245 0,-0.7386284 0.39688,-1.1796007 0.39687,-0.4409722 1.05833,-0.4409722 0.5898,0 0.9288,0.3996311 0.34175,0.3996311 0.34175,1.0914063 z m -0.50711,-0.1488282 q -0.011,-0.4464844 -0.21222,-0.6779948 -0.19844,-0.2342665 -0.57327,-0.2342665 -0.36655,0 -0.60358,0.2425348 -0.23702,0.2425347 -0.28112,0.6724826 z" />
    </g>
    <g
       id="text819-8"
       style="font-style:normal;font-variant:normal;font-weight:normal;font-stretch:normal;font-size:5.83388996px;line-height:9.9441309px;font-family:'DejaVu Sans Mono';-inkscape-font-specification:'DejaVu Sans Mono, Normal';font-variant-ligatures:normal;font-variant-position:normal;font-variant-caps:normal;font-variant-numeric:normal;font-variant-alternates:normal;text-indent:0;text-align:start;text-decoration:none;text-decoration-line:none;text-decoration-style:solid;text-decoration-color:#000000;letter-spacing:0.39776516px;word-spacing:0px;text-transform:none;writing-mode:lr-tb;direction:ltr;text-orientation:mixed;dominant-baseline:auto;baseline-shift:baseline;text-anchor:start;white-space:normal;shape-padding:0;opacity:1;vector-effect:none;fill:#000000;fill-opacity:1;stroke:none;stroke-width:0.52916664;stroke-linecap:butt;stroke-linejoin:miter;stroke-miterlimit:4;stroke-dasharray:none;stroke-dashoffset:0;stroke-opacity:1"
       transform="scale(0.99919514,1.0008055)"
       aria-label="$ ansible-playbook ...">
      <path
         id="path5513"
         style="font-size:3.88055563px;stroke-width:0.52916664"
         d="m -230.67764,23.750805 v 0.822344 q 0.20843,-0.0057 0.3259,-0.115583 0.11748,-0.109898 0.11748,-0.299378 0,-0.176217 -0.10611,-0.272852 -0.10611,-0.09853 -0.33727,-0.134531 z m -0.18948,-0.360012 v -0.782554 q -0.19706,0.0076 -0.30886,0.113688 -0.10989,0.106109 -0.10989,0.284221 0,0.162953 0.10232,0.257693 0.10421,0.09474 0.31643,0.126952 z m 0.18948,2.029333 h -0.18948 l -0.002,-0.570335 q -0.19327,-0.0095 -0.38464,-0.05306 -0.18948,-0.04358 -0.37517,-0.121267 v -0.341065 q 0.18948,0.117478 0.38085,0.180007 0.19327,0.06253 0.38086,0.06632 v -0.86782 q -0.37896,-0.05874 -0.57034,-0.231166 -0.19137,-0.172427 -0.19137,-0.456647 0,-0.297484 0.19895,-0.473701 0.20085,-0.178111 0.56276,-0.204639 v -0.445278 h 0.18948 l 0.002,0.445278 q 0.14969,0.0095 0.30317,0.0379 0.15348,0.02842 0.31264,0.07769 v 0.327801 q -0.16106,-0.08148 -0.31453,-0.125057 -0.15159,-0.04547 -0.30317,-0.05305 v 0.81666 q 0.39033,0.05874 0.59497,0.242534 0.20463,0.183796 0.20463,0.475596 0,0.291799 -0.22169,0.486964 -0.21979,0.195165 -0.57602,0.212218 z" />
      <path
         id="path5515"
         style="font-size:3.88055563px;stroke-width:0.52916664"
         d="m -225.19437,23.783017 h -0.11558 q -0.30507,0 -0.46044,0.108003 -0.15348,0.106109 -0.15348,0.318327 0,0.191375 0.11558,0.297484 0.11559,0.106109 0.32023,0.106109 0.28801,0 0.45285,-0.198954 0.16485,-0.200849 0.16675,-0.553282 v -0.07769 z m 0.67644,-0.144005 v 1.210779 h -0.35053 v -0.314538 q -0.1118,0.189481 -0.28233,0.280431 -0.16864,0.08906 -0.41117,0.08906 -0.32401,0 -0.51728,-0.181901 -0.19327,-0.183796 -0.19327,-0.490754 0,-0.354328 0.23685,-0.538124 0.23874,-0.183796 0.69918,-0.183796 h 0.46802 v -0.05495 q -0.002,-0.253904 -0.12885,-0.367592 -0.12695,-0.115583 -0.40549,-0.115583 -0.17811,0 -0.36001,0.05116 -0.1819,0.05116 -0.35433,0.149689 V 22.82425 q 0.19327,-0.0739 0.36949,-0.109899 0.17811,-0.0379 0.34485,-0.0379 0.26338,0 0.44907,0.07769 0.18758,0.07769 0.30317,0.233061 0.072,0.09474 0.10232,0.234955 0.0303,0.138321 0.0303,0.416857 z" />
      <path
         id="path5517"
         style="font-size:3.88055563px;stroke-width:0.52916664"
         d="m -221.80092,23.534798 v 1.314993 h -0.35054 v -1.314993 q 0,-0.286116 -0.10043,-0.420647 -0.10042,-0.134531 -0.31453,-0.134531 -0.24443,0 -0.37707,0.174322 -0.13074,0.172427 -0.13074,0.496439 v 1.19941 h -0.34864 v -2.122179 h 0.34864 v 0.318327 q 0.0928,-0.181902 0.25201,-0.274747 0.15916,-0.09474 0.37706,-0.09474 0.32402,0 0.48318,0.214113 0.16106,0.212218 0.16106,0.644233 z" />
      <path
         id="path5519"
         style="font-size:3.88055563px;stroke-width:0.52916664"
         d="m -219.21655,22.801509 v 0.341064 q -0.14969,-0.08716 -0.30128,-0.130741 -0.15158,-0.04358 -0.30885,-0.04358 -0.23685,0 -0.35433,0.07769 -0.11558,0.07579 -0.11558,0.23306 0,0.14211 0.0872,0.212218 0.0872,0.07011 0.43391,0.136426 l 0.14021,0.02653 q 0.25959,0.04926 0.39223,0.19706 0.13453,0.147794 0.13453,0.384645 0,0.314537 -0.22359,0.492648 -0.22358,0.176217 -0.62149,0.176217 -0.15727,0 -0.3297,-0.03411 -0.17243,-0.03221 -0.37327,-0.09853 v -0.360013 q 0.19516,0.100425 0.37327,0.151584 0.17811,0.04926 0.33728,0.04926 0.23116,0 0.35811,-0.09284 0.12696,-0.09474 0.12696,-0.263378 0,-0.242534 -0.46423,-0.33538 l -0.0152,-0.0038 -0.13074,-0.02653 q -0.30127,-0.05874 -0.4396,-0.197059 -0.13832,-0.140215 -0.13832,-0.380855 0,-0.305064 0.20654,-0.469911 0.20653,-0.166743 0.58928,-0.166743 0.17053,0 0.3278,0.03221 0.15727,0.03032 0.30886,0.09285 z" />
      <path
         id="path5521"
         style="font-size:3.88055563px;stroke-width:0.52916664"
         d="m -217.84297,22.727612 h 0.89246 v 1.851222 h 0.6916 v 0.270957 h -1.73185 v -0.270957 h 0.6916 v -1.580266 h -0.54381 z m 0.54381,-0.826134 h 0.34865 v 0.441489 h -0.34865 z" />
      <path
         id="path5523"
         style="font-size:3.88055563px;stroke-width:0.52916664"
         d="m -213.85645,23.790596 q 0,-0.405488 -0.12884,-0.612021 -0.12885,-0.206534 -0.38086,-0.206534 -0.2539,0 -0.38464,0.208429 -0.13074,0.206533 -0.13074,0.610126 0,0.401698 0.13074,0.610126 0.13074,0.208429 0.38464,0.208429 0.25201,0 0.38086,-0.206534 0.12884,-0.206533 0.12884,-0.612021 z m -1.02508,-0.792028 q 0.0834,-0.155373 0.22927,-0.238745 0.14779,-0.08337 0.34106,-0.08337 0.38275,0 0.60255,0.295589 0.2198,0.293695 0.2198,0.810976 0,0.52486 -0.2217,0.824239 -0.21979,0.297484 -0.60444,0.297484 -0.18948,0 -0.33538,-0.08148 -0.144,-0.08337 -0.23116,-0.24064 v 0.267168 h -0.34865 v -2.948313 h 0.34865 z" />
      <path
         id="path5525"
         style="font-size:3.88055563px;stroke-width:0.52916664"
         d="m -211.65293,24.080501 q 0,0.234955 0.0853,0.354328 0.0872,0.119372 0.2558,0.119372 h 0.40738 v 0.29559 h -0.44149 q -0.31264,0 -0.48506,-0.200849 -0.17054,-0.20085 -0.17054,-0.568441 v -1.927014 h -0.55896 v -0.272852 h 0.90761 z" />
      <path
         id="path5527"
         style="font-size:3.88055563px;stroke-width:0.52916664"
         d="m -208.02453,23.70154 v 0.170532 h -1.51016 v 0.01137 q 0,0.346749 0.18001,0.536229 0.1819,0.189481 0.5116,0.189481 0.16674,0 0.34864,-0.05306 0.1819,-0.05305 0.38843,-0.161058 v 0.346749 q -0.19895,0.08148 -0.38464,0.121267 -0.1838,0.04169 -0.35622,0.04169 -0.49455,0 -0.77308,-0.295589 -0.27854,-0.297484 -0.27854,-0.818555 0,-0.507807 0.27285,-0.810976 0.27285,-0.303168 0.72761,-0.303168 0.40548,0 0.63855,0.274746 0.23495,0.274747 0.23495,0.750342 z m -0.34864,-0.102319 q -0.008,-0.306958 -0.1459,-0.466122 -0.13643,-0.161058 -0.39412,-0.161058 -0.25201,0 -0.41496,0.166743 -0.16296,0.166742 -0.19327,0.462332 z" />
      <path
         id="path5529"
         style="font-size:3.88055563px;stroke-width:0.52916664"
         d="m -206.72484,23.631433 h 0.98719 v 0.310747 h -0.98719 z" />
      <path
         id="path5531"
         style="font-size:3.88055563px;stroke-width:0.52916664"
         d="m -203.95667,24.582623 v 1.074353 h -0.35054 v -2.929364 h 0.35054 v 0.270956 q 0.0872,-0.157268 0.23116,-0.238745 0.1459,-0.08337 0.33538,-0.08337 0.38465,0 0.60255,0.297484 0.2198,0.297484 0.2198,0.824239 0,0.517281 -0.2198,0.81287 -0.2198,0.293695 -0.60255,0.293695 -0.19327,0 -0.33917,-0.08148 -0.144,-0.08337 -0.22737,-0.24064 z m 1.02319,-0.792027 q 0,-0.405488 -0.12885,-0.612021 -0.12695,-0.206534 -0.37896,-0.206534 -0.2539,0 -0.38464,0.208429 -0.13074,0.206533 -0.13074,0.610126 0,0.401698 0.13074,0.610126 0.13074,0.208429 0.38464,0.208429 0.25201,0 0.37896,-0.206534 0.12885,-0.206533 0.12885,-0.612021 z" />
      <path
         id="path5533"
         style="font-size:3.88055563px;stroke-width:0.52916664"
         d="m -200.72429,24.080501 q 0,0.234955 0.0853,0.354328 0.0872,0.119372 0.2558,0.119372 h 0.40738 v 0.29559 h -0.44149 q -0.31264,0 -0.48507,-0.200849 -0.17053,-0.20085 -0.17053,-0.568441 v -1.927014 h -0.55897 v -0.272852 h 0.90761 z" />
      <path
         id="path5535"
         style="font-size:3.88055563px;stroke-width:0.52916664"
         d="m -197.87275,23.783017 h -0.11559 q -0.30506,0 -0.46043,0.108003 -0.15348,0.106109 -0.15348,0.318327 0,0.191375 0.11558,0.297484 0.11558,0.106109 0.32022,0.106109 0.28801,0 0.45286,-0.198954 0.16485,-0.200849 0.16674,-0.553282 v -0.07769 z m 0.67644,-0.144005 v 1.210779 h -0.35054 v -0.314538 q -0.11179,0.189481 -0.28232,0.280431 -0.16864,0.08906 -0.41117,0.08906 -0.32402,0 -0.51729,-0.181901 -0.19327,-0.183796 -0.19327,-0.490754 0,-0.354328 0.23686,-0.538124 0.23874,-0.183796 0.69918,-0.183796 h 0.46801 v -0.05495 q -0.002,-0.253904 -0.12884,-0.367592 -0.12695,-0.115583 -0.40549,-0.115583 -0.17811,0 -0.36001,0.05116 -0.1819,0.05116 -0.35433,0.149689 V 22.82425 q 0.19327,-0.0739 0.36949,-0.109899 0.17811,-0.0379 0.34485,-0.0379 0.26338,0 0.44907,0.07769 0.18758,0.07769 0.30317,0.233061 0.072,0.09474 0.10232,0.234955 0.0303,0.138321 0.0303,0.416857 z" />
      <path
         id="path5537"
         style="font-size:3.88055563px;stroke-width:0.52916664"
         d="m -194.845,24.167662 q -0.0872,0.221692 -0.22169,0.583599 -0.18759,0.500228 -0.25201,0.610126 -0.0872,0.147795 -0.2179,0.221692 -0.13074,0.0739 -0.30507,0.0739 h -0.28043 V 25.36518 h 0.20654 q 0.15347,0 0.24064,-0.08906 0.0872,-0.08906 0.22169,-0.460437 l -0.82045,-2.088072 h 0.36948 l 0.62908,1.659847 0.6196,-1.659847 h 0.36949 z" />
      <path
         id="path5539"
         style="font-size:3.88055563px;stroke-width:0.52916664"
         d="m -191.99915,23.790596 q 0,-0.405488 -0.12885,-0.612021 -0.12884,-0.206534 -0.38085,-0.206534 -0.25391,0 -0.38465,0.208429 -0.13074,0.206533 -0.13074,0.610126 0,0.401698 0.13074,0.610126 0.13074,0.208429 0.38465,0.208429 0.25201,0 0.38085,-0.206534 0.12885,-0.206533 0.12885,-0.612021 z m -1.02509,-0.792028 q 0.0834,-0.155373 0.22927,-0.238745 0.1478,-0.08337 0.34107,-0.08337 0.38275,0 0.60254,0.295589 0.2198,0.293695 0.2198,0.810976 0,0.52486 -0.22169,0.824239 -0.2198,0.297484 -0.60444,0.297484 -0.18948,0 -0.33538,-0.08148 -0.14401,-0.08337 -0.23117,-0.24064 v 0.267168 h -0.34864 v -2.948313 h 0.34864 z" />
      <path
         id="path5541"
         style="font-size:3.88055563px;stroke-width:0.52916664"
         d="m -189.83922,22.972041 q -0.26527,0 -0.4017,0.206534 -0.13642,0.206533 -0.13642,0.612021 0,0.403593 0.13642,0.612021 0.13643,0.206534 0.4017,0.206534 0.26717,0 0.40359,-0.206534 0.13643,-0.208428 0.13643,-0.612021 0,-0.405488 -0.13643,-0.612021 -0.13642,-0.206534 -0.40359,-0.206534 z m 0,-0.295589 q 0.44149,0 0.67455,0.286115 0.23496,0.286115 0.23496,0.828029 0,0.543808 -0.23306,0.829923 -0.23306,0.284221 -0.67645,0.284221 -0.44149,0 -0.67455,-0.284221 -0.23306,-0.286115 -0.23306,-0.829923 0,-0.541914 0.23306,-0.828029 0.23306,-0.286115 0.67455,-0.286115 z" />
      <path
         id="path5543"
         style="font-size:3.88055563px;stroke-width:0.52916664"
         d="m -187.10706,22.972041 q -0.26527,0 -0.40169,0.206534 -0.13643,0.206533 -0.13643,0.612021 0,0.403593 0.13643,0.612021 0.13642,0.206534 0.40169,0.206534 0.26717,0 0.4036,-0.206534 0.13642,-0.208428 0.13642,-0.612021 0,-0.405488 -0.13642,-0.612021 -0.13643,-0.206534 -0.4036,-0.206534 z m 0,-0.295589 q 0.44149,0 0.67455,0.286115 0.23496,0.286115 0.23496,0.828029 0,0.543808 -0.23306,0.829923 -0.23306,0.284221 -0.67645,0.284221 -0.44148,0 -0.67455,-0.284221 -0.23306,-0.286115 -0.23306,-0.829923 0,-0.541914 0.23306,-0.828029 0.23307,-0.286115 0.67455,-0.286115 z" />
      <path
         id="path5545"
         style="font-size:3.88055563px;stroke-width:0.52916664"
         d="m -185.09492,21.901478 h 0.36001 v 1.707217 l 0.91519,-0.881083 h 0.42444 l -0.83561,0.799606 0.96635,1.322573 h -0.42633 l -0.78445,-1.095196 -0.25959,0.244429 v 0.850767 h -0.36001 z" />
      <path
         id="path5547"
         style="font-size:3.88055563px;stroke-width:0.52916664"
         d="m -179.15121,24.271876 h 0.47749 v 0.577915 h -0.47749 z" />
      <path
         id="path5549"
         style="font-size:3.88055563px;stroke-width:0.52916664"
         d="m -176.41905,24.271876 h 0.47749 v 0.577915 h -0.47749 z" />
      <path
         id="path5551"
         style="font-size:3.88055563px;stroke-width:0.52916664"
         d="m -173.68689,24.271876 h 0.47749 v 0.577915 h -0.47749 z" />
    </g>
    <path
       id="path824-3"
       d="m -60.711644,14.428129 h -70.967236 v 30.80664 h 70.967236 z"
       style="color:#000000;clip-rule:nonzero;display:inline;overflow:visible;visibility:visible;opacity:1;isolation:auto;mix-blend-mode:normal;color-interpolation:sRGB;color-interpolation-filters:linearRGB;solid-color:#000000;solid-opacity:1;vector-effect:none;fill:#ffffff;fill-opacity:1;fill-rule:nonzero;stroke:#000000;stroke-width:0.79375005;stroke-linecap:butt;stroke-linejoin:miter;stroke-miterlimit:4;stroke-dasharray:none;stroke-dashoffset:0;stroke-opacity:1;color-rendering:auto;image-rendering:auto;shape-rendering:auto;text-rendering:auto;enable-background:accumulate" />
    <path
       id="rect815-1"
       d="M -131.67888,2.9676115 V 14.428129 h 70.967236 V 2.9676115 Z"
       style="color:#000000;clip-rule:nonzero;display:inline;overflow:visible;visibility:visible;opacity:1;isolation:auto;mix-blend-mode:normal;color-interpolation:sRGB;color-interpolation-filters:linearRGB;solid-color:#000000;solid-opacity:1;vector-effect:none;fill:#eeeeec;fill-opacity:1;fill-rule:nonzero;stroke:#000000;stroke-width:0.79374999;stroke-linecap:butt;stroke-linejoin:miter;stroke-miterlimit:4;stroke-dasharray:none;stroke-dashoffset:0;stroke-opacity:1;color-rendering:auto;image-rendering:auto;shape-rendering:auto;text-rendering:auto;enable-background:accumulate" />
    <g
       id="text819-4"
       style="font-style:normal;font-variant:normal;font-weight:normal;font-stretch:normal;font-size:5.83388996px;line-height:9.94412994px;font-family:'DejaVu Sans Mono';-inkscape-font-specification:'DejaVu Sans Mono, Normal';font-variant-ligatures:normal;font-variant-position:normal;font-variant-caps:normal;font-variant-numeric:normal;font-variant-alternates:normal;text-indent:0;text-align:start;text-decoration:none;text-decoration-line:none;text-decoration-style:solid;text-decoration-color:#000000;letter-spacing:0.39776516px;word-spacing:0px;text-transform:none;writing-mode:lr-tb;direction:ltr;text-orientation:mixed;dominant-baseline:auto;baseline-shift:baseline;text-anchor:start;white-space:normal;shape-padding:0;opacity:1;vector-effect:none;fill:#000000;fill-opacity:1;stroke:none;stroke-width:0.52916664;stroke-linecap:butt;stroke-linejoin:miter;stroke-miterlimit:4;stroke-dasharray:none;stroke-dashoffset:0;stroke-opacity:1"
       transform="scale(0.99919514,1.0008055)"
       aria-label="Managed node">
      <path
         id="path5490"
         style="font-size:5.64444447px;stroke-width:0.52916664"
         d="m -129.20776,6.9417337 h 0.74414 l 0.71107,2.094618 0.71658,-2.094618 h 0.7469 v 4.1148223 h -0.51539 V 7.421291 l -0.73311,2.1690321 h -0.42168 l -0.73588,-2.1690321 v 3.635265 h -0.51263 z" />
      <path
         id="path5492"
         style="font-size:5.64444447px;stroke-width:0.52916664"
         d="m -123.71676,9.5048847 h -0.16812 q -0.44373,0 -0.66973,0.1570964 -0.22324,0.1543403 -0.22324,0.4630209 0,0.278364 0.16812,0.432704 0.16812,0.15434 0.46578,0.15434 0.41892,0 0.6587,-0.289388 0.23978,-0.292144 0.24253,-0.8047741 V 9.5048847 Z m 0.98392,-0.2094618 v 1.7611331 h -0.50988 v -0.457509 q -0.1626,0.275608 -0.41065,0.407899 -0.24529,0.129536 -0.59807,0.129536 -0.47129,0 -0.75241,-0.264583 -0.28112,-0.26734 -0.28112,-0.713824 0,-0.5153864 0.34451,-0.7827259 0.34727,-0.2673394 1.01699,-0.2673394 h 0.68075 v -0.079926 q -0.003,-0.3693142 -0.18741,-0.5346788 -0.18466,-0.1681207 -0.5898,-0.1681207 -0.25907,0 -0.52365,0.074414 -0.26459,0.074414 -0.51539,0.21773 v -0.507118 q 0.28112,-0.107487 0.53743,-0.1598525 0.25908,-0.055122 0.50161,-0.055122 0.38309,0 0.65319,0.1129992 0.27285,0.1129991 0.44097,0.3389973 0.10473,0.1378039 0.14883,0.3417535 0.0441,0.2011936 0.0441,0.6063372 z" />
      <path
         id="path5494"
         style="font-size:5.64444447px;stroke-width:0.52916664"
         d="m -118.96164,9.1438387 v 1.9127173 h -0.50987 V 9.1438387 q 0,-0.4161675 -0.14608,-0.6118489 -0.14607,-0.1956815 -0.4575,-0.1956815 -0.35554,0 -0.54846,0.2535591 -0.19017,0.2508029 -0.19017,0.722092 v 1.7445966 h -0.50712 V 7.9697502 h 0.50712 V 8.432771 q 0.13504,-0.2645833 0.36656,-0.3996311 0.23151,-0.1378038 0.54845,-0.1378038 0.47129,0 0.7028,0.3114367 0.23427,0.3086805 0.23427,0.9370659 z" />
      <path
         id="path5496"
         style="font-size:5.64444447px;stroke-width:0.52916664"
         d="m -116.13026,9.5048847 h -0.16812 q -0.44373,0 -0.66973,0.1570964 -0.22324,0.1543403 -0.22324,0.4630209 0,0.278364 0.16812,0.432704 0.16812,0.15434 0.46578,0.15434 0.41892,0 0.6587,-0.289388 0.23978,-0.292144 0.24254,-0.8047741 V 9.5048847 Z m 0.98392,-0.2094618 v 1.7611331 h -0.50987 v -0.457509 q -0.16261,0.275608 -0.41066,0.407899 -0.24529,0.129536 -0.59807,0.129536 -0.47129,0 -0.75241,-0.264583 -0.28112,-0.26734 -0.28112,-0.713824 0,-0.5153864 0.34451,-0.7827259 0.34727,-0.2673394 1.017,-0.2673394 h 0.68075 v -0.079926 q -0.003,-0.3693142 -0.18742,-0.5346788 -0.18465,-0.1681207 -0.5898,-0.1681207 -0.25907,0 -0.52365,0.074414 -0.26458,0.074414 -0.51539,0.21773 v -0.507118 q 0.28112,-0.107487 0.53744,-0.1598525 0.25907,-0.055122 0.5016,-0.055122 0.3831,0 0.65319,0.1129992 0.27285,0.1129991 0.44098,0.3389973 0.10473,0.1378039 0.14882,0.3417535 0.0441,0.2011936 0.0441,0.6063372 z" />
      <path
         id="path5498"
         style="font-size:5.64444447px;stroke-width:0.52916664"
         d="m -111.90706,9.4883483 q 0,-0.5705078 -0.18741,-0.865408 -0.18466,-0.2976563 -0.54019,-0.2976563 -0.37207,0 -0.56776,0.2976563 -0.19568,0.2949002 -0.19568,0.865408 0,0.5705077 0.19568,0.8709197 0.19844,0.297657 0.57327,0.297657 0.35002,0 0.53468,-0.300413 0.18741,-0.300412 0.18741,-0.8681637 z m 0.50712,1.3697697 q 0,0.694531 -0.32797,1.052821 -0.32798,0.35829 -0.96463,0.35829 -0.20946,0 -0.43822,-0.03858 -0.22875,-0.03858 -0.45751,-0.112999 v -0.501606 q 0.2701,0.12678 0.49059,0.187413 0.22048,0.06063 0.40514,0.06063 0.41065,0 0.59807,-0.223242 0.18741,-0.223242 0.18741,-0.708312 v -0.02205 -0.34451 q -0.12127,0.259071 -0.33073,0.385851 -0.20946,0.126779 -0.50987,0.126779 -0.54019,0 -0.86266,-0.432704 -0.32246,-0.432704 -0.32246,-1.1575517 0,-0.7276042 0.32246,-1.1603082 0.32247,-0.432704 0.86266,-0.432704 0.29765,0 0.50436,0.1185113 0.2067,0.1185113 0.33624,0.3665582 V 7.9807745 h 0.50712 z" />
      <path
         id="path5500"
         style="font-size:5.64444447px;stroke-width:0.52916664"
         d="m -107.41376,9.3863735 v 0.2480468 h -2.1966 v 0.016536 q 0,0.5043617 0.26183,0.7799687 0.26458,0.275608 0.74414,0.275608 0.24254,0 0.50712,-0.07717 0.26458,-0.07717 0.56499,-0.234267 v 0.504362 q -0.28938,0.118512 -0.55948,0.176389 -0.26734,0.06063 -0.51814,0.06063 -0.71934,0 -1.12448,-0.429948 -0.40514,-0.432704 -0.40514,-1.1906245 0,-0.7386284 0.39687,-1.1796007 0.39688,-0.4409722 1.05833,-0.4409722 0.5898,0 0.9288,0.3996311 0.34176,0.3996311 0.34176,1.0914063 z m -0.50712,-0.1488282 q -0.011,-0.4464844 -0.21222,-0.6779948 -0.19844,-0.2342665 -0.57326,-0.2342665 -0.36656,0 -0.60358,0.2425348 -0.23703,0.2425347 -0.28112,0.6724826 z" />
      <path
         id="path5502"
         style="font-size:5.64444447px;stroke-width:0.52916664"
         d="M -104.32056,8.3638691 V 6.7681009 h 0.50712 v 4.2884551 h -0.50712 v -0.388607 q -0.12678,0.228754 -0.33899,0.350022 -0.20947,0.118511 -0.48507,0.118511 -0.55949,0 -0.88195,-0.432704 -0.3197,-0.43546 -0.3197,-1.1988933 0,-0.7524088 0.32246,-1.1796007 0.32246,-0.4299479 0.87919,-0.4299479 0.27836,0 0.49058,0.1212674 0.21222,0.1185113 0.33348,0.3472656 z m -1.49103,1.1520399 q 0,0.5898 0.18741,0.890213 0.18741,0.300412 0.55397,0.300412 0.36656,0 0.55673,-0.303168 0.19292,-0.303169 0.19292,-0.887457 0,-0.5870442 -0.19292,-0.8874566 -0.19017,-0.3031684 -0.55673,-0.3031684 -0.36656,0 -0.55397,0.3004124 -0.18741,0.3004123 -0.18741,0.8902126 z" />
      <path
         id="path5504"
         style="font-size:5.64444447px;stroke-width:0.52916664"
         d="m -96.202132,9.1438387 v 1.9127173 h -0.509874 V 9.1438387 q 0,-0.4161675 -0.146072,-0.6118489 -0.146072,-0.1956815 -0.457509,-0.1956815 -0.355534,0 -0.548459,0.2535591 -0.190169,0.2508029 -0.190169,0.722092 v 1.7445966 h -0.507118 V 7.9697502 h 0.507118 V 8.432771 q 0.135047,-0.2645833 0.366558,-0.3996311 0.23151,-0.1378038 0.548459,-0.1378038 0.471289,0 0.7028,0.3114367 0.234266,0.3086805 0.234266,0.9370659 z" />
      <path
         id="path5506"
         style="font-size:5.64444447px;stroke-width:0.52916664"
         d="m -93.607772,8.325284 q -0.385851,0 -0.584288,0.3004124 -0.198438,0.3004123 -0.198438,0.8902126 0,0.587044 0.198438,0.890213 0.198437,0.300412 0.584288,0.300412 0.388607,0 0.587044,-0.300412 0.198438,-0.303169 0.198438,-0.890213 0,-0.5898003 -0.198438,-0.8902126 -0.198437,-0.3004124 -0.587044,-0.3004124 z m 0,-0.4299479 q 0.642166,0 0.981163,0.4161676 0.341753,0.4161675 0.341753,1.2044053 0,0.790994 -0.338997,1.207162 -0.338997,0.413411 -0.983919,0.413411 -0.642166,0 -0.981163,-0.413411 -0.338998,-0.416168 -0.338998,-1.207162 0,-0.7882378 0.338998,-1.2044053 0.338997,-0.4161676 0.981163,-0.4161676 z" />
      <path
         id="path5508"
         style="font-size:5.64444447px;stroke-width:0.52916664"
         d="M -89.147551,8.3638691 V 6.7681009 h 0.507118 v 4.2884551 h -0.507118 v -0.388607 q -0.126779,0.228754 -0.338997,0.350022 -0.209462,0.118511 -0.48507,0.118511 -0.559483,0 -0.881944,-0.432704 -0.319705,-0.43546 -0.319705,-1.1988933 0,-0.7524088 0.322461,-1.1796007 0.322461,-0.4299479 0.879188,-0.4299479 0.278364,0 0.490582,0.1212674 0.212218,0.1185113 0.333485,0.3472656 z m -1.491037,1.1520399 q 0,0.5898 0.187413,0.890213 0.187413,0.300412 0.553972,0.300412 0.366558,0 0.556727,-0.303168 0.192925,-0.303169 0.192925,-0.887457 0,-0.5870442 -0.192925,-0.8874566 -0.190169,-0.3031684 -0.556727,-0.3031684 -0.366559,0 -0.553972,0.3004124 -0.187413,0.3004123 -0.187413,0.8902126 z" />
      <path
         id="path5510"
         style="font-size:5.64444447px;stroke-width:0.52916664"
         d="m -84.654256,9.3863735 v 0.2480468 h -2.196593 v 0.016536 q 0,0.5043617 0.261827,0.7799687 0.264583,0.275608 0.744141,0.275608 0.242534,0 0.507118,-0.07717 0.264583,-0.07717 0.564995,-0.234267 v 0.504362 q -0.289388,0.118512 -0.559483,0.176389 -0.267339,0.06063 -0.518142,0.06063 -0.719336,0 -1.12448,-0.429948 -0.405143,-0.432704 -0.405143,-1.1906245 0,-0.7386284 0.396875,-1.1796007 0.396875,-0.4409722 1.058334,-0.4409722 0.5898,0 0.928797,0.3996311 0.341754,0.3996311 0.341754,1.0914063 z m -0.507118,-0.1488282 q -0.01103,-0.4464844 -0.212218,-0.6779948 -0.198438,-0.2342665 -0.573264,-0.2342665 -0.366558,0 -0.603581,0.2425348 -0.237022,0.2425347 -0.28112,0.6724826 z" />
    </g>
    <g
       id="text819-8-2"
       style="font-style:normal;font-variant:normal;font-weight:normal;font-stretch:normal;font-size:5.83388996px;line-height:9.9441309px;font-family:'DejaVu Sans Mono';-inkscape-font-specification:'DejaVu Sans Mono, Normal';font-variant-ligatures:normal;font-variant-position:normal;font-variant-caps:normal;font-variant-numeric:normal;font-variant-alternates:normal;text-indent:0;text-align:start;text-decoration:none;text-decoration-line:none;text-decoration-style:solid;text-decoration-color:#000000;letter-spacing:0.39776516px;word-spacing:0px;text-transform:none;writing-mode:lr-tb;direction:ltr;text-orientation:mixed;dominant-baseline:auto;baseline-shift:baseline;text-anchor:start;white-space:normal;shape-padding:0;opacity:1;vector-effect:none;fill:#000000;fill-opacity:1;stroke:none;stroke-width:0.52916664;stroke-linecap:butt;stroke-linejoin:miter;stroke-miterlimit:4;stroke-dasharray:none;stroke-dashoffset:0;stroke-opacity:1"
       transform="scale(0.99919514,1.0008055)"
       aria-label="$ ./AnsiballZ_yum.py">
      <path
         id="path5451"
         style="font-size:3.88055563px;stroke-width:0.52916664"
         d="m -126.65113,23.750805 v 0.822344 q 0.20843,-0.0057 0.32591,-0.115583 0.11747,-0.109898 0.11747,-0.299378 0,-0.176217 -0.10611,-0.272852 -0.1061,-0.09853 -0.33727,-0.134531 z m -0.18948,-0.360012 v -0.782554 q -0.19706,0.0076 -0.30885,0.113688 -0.1099,0.106109 -0.1099,0.284221 0,0.162953 0.10232,0.257693 0.10421,0.09474 0.31643,0.126952 z m 0.18948,2.029333 h -0.18948 l -0.002,-0.570335 q -0.19327,-0.0095 -0.38464,-0.05306 -0.18948,-0.04358 -0.37517,-0.121267 v -0.341065 q 0.18948,0.117478 0.38085,0.180007 0.19327,0.06253 0.38086,0.06632 v -0.86782 q -0.37896,-0.05874 -0.57034,-0.231166 -0.19137,-0.172427 -0.19137,-0.456647 0,-0.297484 0.19895,-0.473701 0.20085,-0.178111 0.56276,-0.204639 v -0.445278 h 0.18948 l 0.002,0.445278 q 0.14969,0.0095 0.30317,0.0379 0.15348,0.02842 0.31265,0.07769 v 0.327801 q -0.16106,-0.08148 -0.31454,-0.125057 -0.15159,-0.04547 -0.30317,-0.05305 v 0.81666 q 0.39033,0.05874 0.59497,0.242534 0.20464,0.183796 0.20464,0.475596 0,0.291799 -0.2217,0.486964 -0.21979,0.195165 -0.57602,0.212218 z" />
      <path
         id="path5453"
         style="font-size:3.88055563px;stroke-width:0.52916664"
         d="m -121.57145,24.271876 h 0.47749 v 0.577915 h -0.47749 z" />
      <path
         id="path5455"
         style="font-size:3.88055563px;stroke-width:0.52916664"
         d="m -118.08137,22.02085 h 0.36001 l -1.48931,3.188953 h -0.36191 z" />
      <path
         id="path5457"
         style="font-size:3.88055563px;stroke-width:0.52916664"
         d="m -115.86649,22.358125 -0.40359,1.447629 h 0.80719 z m -0.23116,-0.337275 h 0.46422 l 0.86593,2.828941 h -0.39602 l -0.20842,-0.737079 h -0.99099 l -0.20463,0.737079 h -0.39602 z" />
      <path
         id="path5459"
         style="font-size:3.88055563px;stroke-width:0.52916664"
         d="m -112.31009,23.534798 v 1.314993 h -0.35053 v -1.314993 q 0,-0.286116 -0.10043,-0.420647 -0.10042,-0.134531 -0.31454,-0.134531 -0.24443,0 -0.37706,0.174322 -0.13074,0.172427 -0.13074,0.496439 v 1.19941 h -0.34865 v -2.122179 h 0.34865 v 0.318327 q 0.0928,-0.181902 0.25201,-0.274747 0.15916,-0.09474 0.37706,-0.09474 0.32401,0 0.48318,0.214113 0.16105,0.212218 0.16105,0.644233 z" />
      <path
         id="path5461"
         style="font-size:3.88055563px;stroke-width:0.52916664"
         d="m -109.72572,22.801509 v 0.341064 q -0.14969,-0.08716 -0.30127,-0.130741 -0.15159,-0.04358 -0.30886,-0.04358 -0.23685,0 -0.35432,0.07769 -0.11559,0.07579 -0.11559,0.23306 0,0.14211 0.0872,0.212218 0.0872,0.07011 0.43391,0.136426 l 0.14022,0.02653 q 0.25959,0.04926 0.39222,0.19706 0.13453,0.147794 0.13453,0.384645 0,0.314537 -0.22358,0.492648 -0.22359,0.176217 -0.6215,0.176217 -0.15727,0 -0.32969,-0.03411 -0.17243,-0.03221 -0.37328,-0.09853 v -0.360013 q 0.19516,0.100425 0.37328,0.151584 0.17811,0.04926 0.33727,0.04926 0.23117,0 0.35812,-0.09284 0.12695,-0.09474 0.12695,-0.263378 0,-0.242534 -0.46423,-0.33538 l -0.0151,-0.0038 -0.13075,-0.02653 q -0.30127,-0.05874 -0.43959,-0.197059 -0.13832,-0.140215 -0.13832,-0.380855 0,-0.305064 0.20653,-0.469911 0.20654,-0.166743 0.58929,-0.166743 0.17053,0 0.3278,0.03221 0.15727,0.03032 0.30885,0.09285 z" />
      <path
         id="path5463"
         style="font-size:3.88055563px;stroke-width:0.52916664"
         d="m -108.35213,22.727612 h 0.89245 v 1.851222 h 0.6916 v 0.270957 h -1.73185 v -0.270957 h 0.69161 v -1.580266 h -0.54381 z m 0.54381,-0.826134 h 0.34864 v 0.441489 h -0.34864 z" />
      <path
         id="path5465"
         style="font-size:3.88055563px;stroke-width:0.52916664"
         d="m -104.36561,23.790596 q 0,-0.405488 -0.12885,-0.612021 -0.12884,-0.206534 -0.38085,-0.206534 -0.2539,0 -0.38465,0.208429 -0.13074,0.206533 -0.13074,0.610126 0,0.401698 0.13074,0.610126 0.13075,0.208429 0.38465,0.208429 0.25201,0 0.38085,-0.206534 0.12885,-0.206533 0.12885,-0.612021 z m -1.02509,-0.792028 q 0.0834,-0.155373 0.22927,-0.238745 0.1478,-0.08337 0.34107,-0.08337 0.38275,0 0.60255,0.295589 0.21979,0.293695 0.21979,0.810976 0,0.52486 -0.22169,0.824239 -0.2198,0.297484 -0.60444,0.297484 -0.18948,0 -0.33538,-0.08148 -0.14401,-0.08337 -0.23117,-0.24064 v 0.267168 h -0.34864 v -2.948313 h 0.34864 z" />
      <path
         id="path5467"
         style="font-size:3.88055563px;stroke-width:0.52916664"
         d="m -102.04272,23.783017 h -0.11559 q -0.30506,0 -0.46043,0.108003 -0.15348,0.106109 -0.15348,0.318327 0,0.191375 0.11558,0.297484 0.11558,0.106109 0.32022,0.106109 0.28801,0 0.45286,-0.198954 0.16485,-0.200849 0.16674,-0.553282 v -0.07769 z m 0.67644,-0.144005 v 1.210779 h -0.35054 v -0.314538 q -0.11179,0.189481 -0.28232,0.280431 -0.16864,0.08906 -0.41118,0.08906 -0.32401,0 -0.51728,-0.181901 -0.19327,-0.183796 -0.19327,-0.490754 0,-0.354328 0.23685,-0.538124 0.23875,-0.183796 0.69919,-0.183796 h 0.46801 v -0.05495 q -0.002,-0.253904 -0.12884,-0.367592 -0.12696,-0.115583 -0.40549,-0.115583 -0.17811,0 -0.36001,0.05116 -0.18191,0.05116 -0.35433,0.149689 V 22.82425 q 0.19327,-0.0739 0.36948,-0.109899 0.17812,-0.0379 0.34486,-0.0379 0.26338,0 0.44907,0.07769 0.18758,0.07769 0.30316,0.233061 0.072,0.09474 0.10232,0.234955 0.0303,0.138321 0.0303,0.416857 z" />
      <path
         id="path5469"
         style="font-size:3.88055563px;stroke-width:0.52916664"
         d="m -99.429934,24.080501 q 0,0.234955 0.08527,0.354328 0.08716,0.119372 0.255799,0.119372 h 0.407382 v 0.29559 h -0.441489 q -0.312642,0 -0.485069,-0.200849 -0.170533,-0.20085 -0.170533,-0.568441 v -1.927014 h -0.558966 v -0.272852 h 0.90761 z" />
      <path
         id="path5471"
         style="font-size:3.88055563px;stroke-width:0.52916664"
         d="m -96.697773,24.080501 q 0,0.234955 0.08527,0.354328 0.08716,0.119372 0.255798,0.119372 h 0.407383 v 0.29559 h -0.441489 q -0.312643,0 -0.48507,-0.200849 -0.170532,-0.20085 -0.170532,-0.568441 v -1.927014 h -0.558967 v -0.272852 h 0.907611 z" />
      <path
         id="path5473"
         style="font-size:3.88055563px;stroke-width:0.52916664"
         d="m -94.839117,22.02085 h 1.836064 v 0.2918 l -1.477946,2.215024 h 1.519632 v 0.322117 h -1.919435 v -0.2918 l 1.438155,-2.215024 h -1.39647 z" />
      <path
         id="path5475"
         style="font-size:3.88055563px;stroke-width:0.52916664"
         d="m -90.107938,25.613396 v 0.151584 h -2.336291 v -0.151584 z" />
      <path
         id="path5477"
         style="font-size:3.88055563px;stroke-width:0.52916664"
         d="m -88.086326,24.167662 q -0.08716,0.221692 -0.221692,0.583599 -0.187585,0.500228 -0.252009,0.610126 -0.08716,0.147795 -0.217902,0.221692 -0.130741,0.0739 -0.305063,0.0739 h -0.280431 V 25.36518 h 0.206533 q 0.15348,0 0.24064,-0.08906 0.08716,-0.08906 0.221692,-0.460437 l -0.820449,-2.088072 h 0.369486 l 0.629075,1.659847 0.6196,-1.659847 h 0.369487 z" />
      <path
         id="path5479"
         style="font-size:3.88055563px;stroke-width:0.52916664"
         d="m -86.610418,24.046394 v -1.314993 h 0.348644 v 1.314993 q 0,0.286115 0.100425,0.420646 0.102319,0.134531 0.314537,0.134531 0.246324,0 0.377065,-0.172427 0.130742,-0.174321 0.130742,-0.498333 v -1.19941 h 0.350538 v 2.11839 h -0.350538 v -0.318327 q -0.09284,0.183796 -0.253904,0.278536 -0.159163,0.09474 -0.373276,0.09474 -0.325906,0 -0.485069,-0.212218 -0.159164,-0.214113 -0.159164,-0.646128 z" />
      <path
         id="path5481"
         style="font-size:3.88055563px;stroke-width:0.52916664"
         d="m -82.966855,22.943619 q 0.06442,-0.136426 0.162953,-0.200849 0.100424,-0.06632 0.24064,-0.06632 0.255798,0 0.360012,0.198954 0.106109,0.19706 0.106109,0.744658 v 1.229727 h -0.318327 V 23.63522 q 0,-0.449068 -0.05116,-0.557072 -0.04926,-0.109898 -0.181901,-0.109898 -0.151585,0 -0.208429,0.117477 -0.05495,0.115583 -0.05495,0.549493 v 1.214569 h -0.318327 V 23.63522 q 0,-0.454752 -0.05495,-0.560861 -0.05305,-0.106109 -0.19327,-0.106109 -0.13832,0 -0.19327,0.117477 -0.05305,0.115583 -0.05305,0.549493 v 1.214569 h -0.316432 V 22.72761 h 0.316432 v 0.181901 q 0.06253,-0.113688 0.155374,-0.172427 0.09474,-0.06063 0.214112,-0.06063 0.144005,0 0.238745,0.06632 0.09664,0.06632 0.14969,0.200849 z" />
      <path
         id="path5483"
         style="font-size:3.88055563px;stroke-width:0.52916664"
         d="m -80.589021,24.271876 h 0.47749 v 0.577915 h -0.47749 z" />
      <path
         id="path5485"
         style="font-size:3.88055563px;stroke-width:0.52916664"
         d="m -78.072866,24.582623 v 1.074353 h -0.350538 v -2.929364 h 0.350538 v 0.270956 q 0.08716,-0.157268 0.231166,-0.238745 0.1459,-0.08337 0.33538,-0.08337 0.384645,0 0.602547,0.297484 0.219797,0.297484 0.219797,0.824239 0,0.517281 -0.219797,0.81287 -0.219797,0.293695 -0.602547,0.293695 -0.19327,0 -0.339169,-0.08148 -0.144005,-0.08337 -0.227377,-0.24064 z m 1.023194,-0.792027 q 0,-0.405488 -0.128847,-0.612021 -0.126952,-0.206534 -0.37896,-0.206534 -0.253904,0 -0.384645,0.208429 -0.130742,0.206533 -0.130742,0.610126 0,0.401698 0.130742,0.610126 0.130741,0.208429 0.384645,0.208429 0.252008,0 0.37896,-0.206534 0.128847,-0.206533 0.128847,-0.612021 z" />
      <path
         id="path5487"
         style="font-size:3.88055563px;stroke-width:0.52916664"
         d="m -74.425514,24.167662 q -0.08716,0.221692 -0.221692,0.583599 -0.187585,0.500228 -0.252008,0.610126 -0.08716,0.147795 -0.217903,0.221692 -0.130741,0.0739 -0.305063,0.0739 h -0.280431 V 25.36518 h 0.206534 q 0.153479,0 0.24064,-0.08906 0.08716,-0.08906 0.221692,-0.460437 l -0.82045,-2.088072 h 0.369487 l 0.629074,1.659847 0.619601,-1.659847 h 0.369486 z" />
    </g>
    <path
       id="path902-9"
       d="m -97.556914,27.726159 v 5.552259"
       style="fill:none;fill-rule:evenodd;stroke:#000000;stroke-width:0.52916682;stroke-linecap:butt;stroke-linejoin:miter;stroke-miterlimit:4;stroke-dasharray:none;stroke-opacity:1;marker-end:url(#Arrow2Mend-6)" />
    <g
       id="text2394"
       style="font-style:normal;font-variant:normal;font-weight:normal;font-stretch:normal;font-size:5.83388996px;line-height:9.9441309px;font-family:'DejaVu Sans Mono';-inkscape-font-specification:'DejaVu Sans Mono, Normal';font-variant-ligatures:normal;font-variant-position:normal;font-variant-caps:normal;font-variant-numeric:normal;font-variant-alternates:normal;text-indent:0;text-align:start;text-decoration:none;text-decoration-line:none;text-decoration-style:solid;text-decoration-color:#000000;letter-spacing:0.39776516px;word-spacing:0px;text-transform:none;writing-mode:lr-tb;direction:ltr;text-orientation:mixed;dominant-baseline:auto;baseline-shift:baseline;text-anchor:start;white-space:normal;shape-padding:0;opacity:1;vector-effect:none;fill:#000000;fill-opacity:1;stroke:none;stroke-width:0.52916664;stroke-linecap:butt;stroke-linejoin:miter;stroke-miterlimit:4;stroke-dasharray:none;stroke-dashoffset:0;stroke-opacity:1"
       transform="scale(0.99919514,1.0008055)"
       aria-label="UPDATE NODE">
      <path
         id="path5430"
         style="font-weight:bold;font-size:3.88055563px;stroke-width:0.52916664"
         d="m -112.2405,39.667977 v -1.784904 h 0.55896 v 1.925119 q 0,0.212218 0.10801,0.333486 0.108,0.119372 0.29938,0.119372 0.19137,0 0.29937,-0.119372 0.10801,-0.121268 0.10801,-0.333486 v -1.925119 h 0.55896 v 1.784904 q 0,0.57602 -0.22927,0.837503 -0.22927,0.261483 -0.73707,0.261483 -0.50592,0 -0.73708,-0.261483 -0.22927,-0.261483 -0.22927,-0.837503 z" />
      <path
         id="path5432"
         style="font-weight:bold;font-size:3.88055563px;stroke-width:0.52916664"
         d="m -108.84327,38.352984 v 0.829924 h 0.22928 q 0.27474,0 0.38464,-0.09285 0.11179,-0.09285 0.11179,-0.322116 0,-0.229271 -0.11179,-0.322117 -0.1099,-0.09285 -0.38464,-0.09285 z m -0.55896,-0.469911 h 0.76739 q 0.5855,0 0.84129,0.208428 0.2577,0.208429 0.2577,0.676445 0,0.468016 -0.2577,0.676444 -0.25579,0.208429 -0.84129,0.208429 h -0.20843 v 1.059194 h -0.55896 z" />
      <path
         id="path5434"
         style="font-weight:bold;font-size:3.88055563px;stroke-width:0.52916664"
         d="m -106.15847,38.387091 v 1.820905 h 0.15158 q 0.3297,0 0.46991,-0.206534 0.14022,-0.208428 0.14022,-0.706761 0,-0.494544 -0.14022,-0.701077 -0.14021,-0.206533 -0.46991,-0.206533 z m -0.55897,-0.504018 h 0.59876 q 0.69349,0 0.99856,0.33159 0.30506,0.329696 0.30506,1.080038 0,0.752237 -0.30506,1.085722 -0.30507,0.33159 -0.99856,0.33159 h -0.59876 z" />
      <path
         id="path5436"
         style="font-weight:bold;font-size:3.88055563px;stroke-width:0.52916664"
         d="m -103.07767,38.39467 -0.26338,1.157724 h 0.52865 z m -0.34106,-0.511597 h 0.68402 l 0.76361,2.82894 h -0.55897 l -0.17432,-0.699182 h -0.74845 l -0.17053,0.699182 h -0.55897 z" />
      <path
         id="path5438"
         style="font-weight:bold;font-size:3.88055563px;stroke-width:0.52916664"
         d="m -100.06508,40.712013 h -0.55896 v -2.340081 h -0.71813 v -0.488859 h 1.995224 v 0.488859 h -0.718134 z" />
      <path
         id="path5440"
         style="font-weight:bold;font-size:3.88055563px;stroke-width:0.52916664"
         d="m -96.700049,40.712013 h -1.762167 v -2.82894 h 1.762167 v 0.492649 h -1.2032 v 0.610126 h 1.089512 v 0.492649 h -1.089512 v 0.740868 h 1.2032 z" />
      <path
         id="path5442"
         style="font-weight:bold;font-size:3.88055563px;stroke-width:0.52916664"
         d="m -93.090738,37.883073 h 0.600653 l 0.788237,2.055861 v -2.055861 h 0.492649 v 2.82894 h -0.596863 l -0.792027,-2.055861 v 2.055861 h -0.492649 z" />
      <path
         id="path5444"
         style="font-weight:bold;font-size:3.88055563px;stroke-width:0.52916664"
         d="m -89.416858,38.334036 q -0.214113,0 -0.312643,0.229271 -0.09853,0.227376 -0.09853,0.737078 0,0.507807 0.09853,0.737079 0.09853,0.227376 0.312643,0.227376 0.216007,0 0.314537,-0.227376 0.09853,-0.229272 0.09853,-0.737079 0,-0.509702 -0.09853,-0.737078 -0.09853,-0.229271 -0.314537,-0.229271 z m -0.992877,0.966349 q 0,-0.725709 0.250114,-1.09709 0.252009,-0.371382 0.742763,-0.371382 0.492648,0 0.742762,0.371382 0.252009,0.371381 0.252009,1.09709 0,0.723815 -0.252009,1.095196 -0.250114,0.371382 -0.742762,0.371382 -0.490754,0 -0.742763,-0.371382 -0.250114,-0.371381 -0.250114,-1.095196 z" />
      <path
         id="path5446"
         style="font-weight:bold;font-size:3.88055563px;stroke-width:0.52916664"
         d="m -87.03334,38.387091 v 1.820905 h 0.151585 q 0.329695,0 0.469911,-0.206534 0.140215,-0.208428 0.140215,-0.706761 0,-0.494544 -0.140215,-0.701077 -0.140216,-0.206533 -0.469911,-0.206533 z m -0.558966,-0.504018 h 0.598757 q 0.693498,0 0.998561,0.33159 0.305063,0.329696 0.305063,1.080038 0,0.752237 -0.305063,1.085722 -0.305063,0.33159 -0.998561,0.33159 h -0.598757 z" />
      <path
         id="path5448"
         style="font-weight:bold;font-size:3.88055563px;stroke-width:0.52916664"
         d="m -83.039239,40.712013 h -1.762166 v -2.82894 h 1.762166 v 0.492649 h -1.203199 v 0.610126 h 1.089511 v 0.492649 h -1.089511 v 0.740868 h 1.203199 z" />
    </g>
    <path
       style="fill:none;fill-rule:evenodd;stroke:#000000;stroke-width:0.5291667;stroke-linecap:butt;stroke-linejoin:miter;stroke-miterlimit:4;stroke-dasharray:none;stroke-opacity:1;marker-end:url(#marker2504-6)"
       d="m -160.38564,23.892261 h 24.99718"
       id="path2432-9" />
    <g
       id="text2436-5"
       style="font-style:normal;font-variant:normal;font-weight:normal;font-stretch:normal;font-size:3.88055563px;line-height:6.61458302px;font-family:'DejaVu Sans Mono';-inkscape-font-specification:'DejaVu Sans Mono, Normal';font-variant-ligatures:normal;font-variant-position:normal;font-variant-caps:normal;font-variant-numeric:normal;font-variant-alternates:normal;text-indent:0;text-align:center;text-decoration:none;text-decoration-line:none;text-decoration-style:solid;text-decoration-color:#000000;letter-spacing:0.26458332px;word-spacing:0px;text-transform:none;writing-mode:lr-tb;direction:ltr;text-orientation:mixed;dominant-baseline:auto;baseline-shift:baseline;text-anchor:middle;white-space:normal;shape-padding:0;opacity:1;vector-effect:none;fill:#000000;fill-opacity:1;stroke:none;stroke-width:0.52916664;stroke-linecap:butt;stroke-linejoin:miter;stroke-miterlimit:4;stroke-dasharray:none;stroke-dashoffset:0;stroke-opacity:1"
       aria-label="copy and run">
      <path
         id="path5409"
         style="text-align:center;text-anchor:middle;stroke-width:0.52916664"
         d="m -150.49591,21.629967 q -0.14022,0.08148 -0.28991,0.121267 -0.14779,0.04169 -0.30316,0.04169 -0.49265,0 -0.77119,-0.29559 -0.27664,-0.295589 -0.27664,-0.818554 0,-0.522966 0.27664,-0.818555 0.27854,-0.295589 0.77119,-0.295589 0.15347,0 0.29937,0.03979 0.1459,0.03979 0.2937,0.123162 v 0.365697 q -0.13832,-0.123162 -0.27854,-0.178112 -0.13832,-0.05495 -0.31453,-0.05495 -0.32781,0 -0.50402,0.212218 -0.17622,0.212218 -0.17622,0.606337 0,0.392224 0.17622,0.606337 0.17811,0.212217 0.50402,0.212217 0.1819,0 0.3259,-0.05495 0.14401,-0.05684 0.26717,-0.174322 z" />
      <path
         id="path5411"
         style="text-align:center;text-anchor:middle;stroke-width:0.52916664"
         d="m -148.74012,19.860221 q -0.26527,0 -0.4017,0.206533 -0.13642,0.206534 -0.13642,0.612022 0,0.403593 0.13642,0.612021 0.13643,0.206533 0.4017,0.206533 0.26717,0 0.40359,-0.206533 0.13643,-0.208428 0.13643,-0.612021 0,-0.405488 -0.13643,-0.612022 -0.13642,-0.206533 -0.40359,-0.206533 z m 0,-0.295589 q 0.44149,0 0.67455,0.286115 0.23496,0.286115 0.23496,0.828029 0,0.543808 -0.23306,0.829923 -0.23306,0.284221 -0.67645,0.284221 -0.44149,0 -0.67455,-0.284221 -0.23306,-0.286115 -0.23306,-0.829923 0,-0.541914 0.23306,-0.828029 0.23306,-0.286115 0.67455,-0.286115 z" />
      <path
         id="path5413"
         style="text-align:center;text-anchor:middle;stroke-width:0.52916664"
         d="m -146.59779,21.470803 v 1.074353 h -0.35053 v -2.929365 h 0.35053 v 0.270957 q 0.0872,-0.157268 0.23117,-0.238745 0.1459,-0.08337 0.33538,-0.08337 0.38465,0 0.60255,0.297484 0.2198,0.297484 0.2198,0.824239 0,0.517281 -0.2198,0.81287 -0.2198,0.293695 -0.60255,0.293695 -0.19327,0 -0.33917,-0.08148 -0.144,-0.08337 -0.22738,-0.24064 z m 1.0232,-0.792027 q 0,-0.405488 -0.12885,-0.612022 -0.12695,-0.206533 -0.37896,-0.206533 -0.2539,0 -0.38464,0.208428 -0.13075,0.206534 -0.13075,0.610127 0,0.401698 0.13075,0.610126 0.13074,0.208428 0.38464,0.208428 0.25201,0 0.37896,-0.206533 0.12885,-0.206534 0.12885,-0.612021 z" />
      <path
         id="path5415"
         style="text-align:center;text-anchor:middle;stroke-width:0.52916664"
         d="m -143.08362,21.055841 q -0.0872,0.221692 -0.22169,0.5836 -0.18758,0.500227 -0.25201,0.610126 -0.0872,0.147795 -0.2179,0.221692 -0.13074,0.0739 -0.30506,0.0739 h -0.28043 V 22.25336 h 0.20653 q 0.15348,0 0.24064,-0.08906 0.0872,-0.08906 0.22169,-0.460437 l -0.82045,-2.088073 h 0.36949 l 0.62907,1.659848 0.6196,-1.659848 h 0.36949 z" />
      <path
         id="path5417"
         style="text-align:center;text-anchor:middle;stroke-width:0.52916664"
         d="m -155.07462,27.28578 h -0.11558 q -0.30506,0 -0.46044,0.108003 -0.15347,0.106109 -0.15347,0.318327 0,0.191375 0.11558,0.297484 0.11558,0.106109 0.32022,0.106109 0.28801,0 0.45286,-0.198954 0.16485,-0.200849 0.16674,-0.553282 v -0.07769 z m 0.67645,-0.144005 v 1.210779 h -0.35054 v -0.314538 q -0.11179,0.189481 -0.28232,0.280431 -0.16864,0.08906 -0.41118,0.08906 -0.32401,0 -0.51728,-0.181901 -0.19327,-0.183796 -0.19327,-0.490754 0,-0.354328 0.23685,-0.538124 0.23875,-0.183796 0.69918,-0.183796 h 0.46802 v -0.05495 q -0.002,-0.253904 -0.12885,-0.367592 -0.12695,-0.115583 -0.40548,-0.115583 -0.17811,0 -0.36002,0.05116 -0.1819,0.05116 -0.35432,0.149689 V 26.32701 q 0.19327,-0.0739 0.36948,-0.109899 0.17811,-0.0379 0.34486,-0.0379 0.26337,0 0.44906,0.07769 0.18759,0.07769 0.30317,0.233061 0.072,0.09474 0.10232,0.234955 0.0303,0.138321 0.0303,0.416857 z" />
      <path
         id="path5419"
         style="text-align:center;text-anchor:middle;stroke-width:0.52916664"
         d="m -151.81435,27.037561 v 1.314993 h -0.35054 v -1.314993 q 0,-0.286116 -0.10042,-0.420647 -0.10043,-0.134531 -0.31454,-0.134531 -0.24443,0 -0.37706,0.174322 -0.13075,0.172427 -0.13075,0.496439 v 1.19941 h -0.34864 v -2.122179 h 0.34864 v 0.318326 q 0.0928,-0.181901 0.25201,-0.274746 0.15917,-0.09474 0.37707,-0.09474 0.32401,0 0.48317,0.214113 0.16106,0.212218 0.16106,0.644233 z" />
      <path
         id="path5421"
         style="text-align:center;text-anchor:middle;stroke-width:0.52916664"
         d="m -149.58107,26.501331 v -1.09709 h 0.34865 v 2.948313 h -0.34865 v -0.267168 q -0.0872,0.157269 -0.23306,0.24064 -0.144,0.08148 -0.33348,0.08148 -0.38465,0 -0.60634,-0.297484 -0.2198,-0.299379 -0.2198,-0.824239 0,-0.517281 0.2217,-0.810976 0.22169,-0.295589 0.60444,-0.295589 0.19137,0 0.33727,0.08337 0.1459,0.08148 0.22927,0.238745 z m -1.02508,0.792028 q 0,0.405488 0.12884,0.612021 0.12885,0.206534 0.38086,0.206534 0.25201,0 0.38275,-0.208429 0.13263,-0.208428 0.13263,-0.610126 0,-0.403593 -0.13263,-0.610127 -0.13074,-0.208428 -0.38275,-0.208428 -0.25201,0 -0.38086,0.206534 -0.12884,0.206533 -0.12884,0.612021 z" />
      <path
         id="path5423"
         style="text-align:center;text-anchor:middle;stroke-width:0.52916664"
         d="m -143.82035,26.668074 q -0.11179,-0.08716 -0.22738,-0.126952 -0.11558,-0.03979 -0.2539,-0.03979 -0.3259,0 -0.49833,0.204639 -0.17243,0.204639 -0.17243,0.591178 v 1.055406 h -0.35054 v -2.122179 h 0.35054 v 0.414961 q 0.0872,-0.225481 0.26717,-0.344854 0.1819,-0.121267 0.43012,-0.121267 0.12885,0 0.24064,0.03221 0.11179,0.03221 0.21411,0.100424 z" />
      <path
         id="path5425"
         style="text-align:center;text-anchor:middle;stroke-width:0.52916664"
         d="m -143.04038,27.549157 v -1.314993 h 0.34864 v 1.314993 q 0,0.286115 0.10043,0.420646 0.10232,0.134531 0.31454,0.134531 0.24632,0 0.37706,-0.172427 0.13074,-0.174321 0.13074,-0.498333 v -1.19941 h 0.35054 v 2.11839 h -0.35054 v -0.318327 q -0.0928,0.183796 -0.2539,0.278536 -0.15916,0.09474 -0.37328,0.09474 -0.3259,0 -0.48507,-0.212218 -0.15916,-0.214113 -0.15916,-0.646128 z" />
      <path
         id="path5427"
         style="text-align:center;text-anchor:middle;stroke-width:0.52916664"
         d="m -138.81945,27.037561 v 1.314993 h -0.35054 v -1.314993 q 0,-0.286116 -0.10042,-0.420647 -0.10043,-0.134531 -0.31454,-0.134531 -0.24443,0 -0.37706,0.174322 -0.13075,0.172427 -0.13075,0.496439 v 1.19941 h -0.34864 v -2.122179 h 0.34864 v 0.318326 q 0.0928,-0.181901 0.25201,-0.274746 0.15917,-0.09474 0.37707,-0.09474 0.32401,0 0.48317,0.214113 0.16106,0.212218 0.16106,0.644233 z" />
    </g>
  </g>
</svg>
