<?xml version="1.0" encoding="UTF-8" standalone="no"?>
<svg
   xmlns:dc="http://purl.org/dc/elements/1.1/"
   xmlns:cc="http://creativecommons.org/ns#"
   xmlns:rdf="http://www.w3.org/1999/02/22-rdf-syntax-ns#"
   xmlns:svg="http://www.w3.org/2000/svg"
   xmlns="http://www.w3.org/2000/svg"
   id="svg5642"
   version="1.1"
   viewBox="0 0 218.16664 43.060921"
   height="43.060921mm"
   width="218.16664mm">
  <defs
     id="defs5636">
    <marker
       style="overflow:visible"
       id="marker2570"
       refX="0"
       refY="0"
       orient="auto">
      <path
         transform="scale(-0.6)"
         d="M 8.7185878,4.0337352 -2.2072895,0.01601326 8.7185884,-4.0017078 c -1.7454984,2.3720609 -1.7354408,5.6174519 -6e-7,8.035443 z"
         style="fill:#000000;fill-opacity:1;fill-rule:evenodd;stroke:#000000;stroke-width:0.625;stroke-linejoin:round;stroke-opacity:1"
         id="path2568" />
    </marker>
    <marker
       orient="auto"
       refY="0"
       refX="0"
       id="marker2504"
       style="overflow:visible">
      <path
         id="path2502"
         style="fill:#000000;fill-opacity:1;fill-rule:evenodd;stroke:#000000;stroke-width:0.625;stroke-linejoin:round;stroke-opacity:1"
         d="M 8.7185878,4.0337352 -2.2072895,0.01601326 8.7185884,-4.0017078 c -1.7454984,2.3720609 -1.7354408,5.6174519 -6e-7,8.035443 z"
         transform="scale(-0.6)" />
    </marker>
  </defs>
  <metadata
     id="metadata5639">
    <rdf:RDF>
      <cc:Work
         rdf:about="">
        <dc:format>image/svg+xml</dc:format>
        <dc:type
           rdf:resource="http://purl.org/dc/dcmitype/StillImage" />
        <dc:title></dc:title>
      </cc:Work>
    </rdf:RDF>
  </metadata>
  <g
     transform="translate(356.27976,-255.05883)"
     id="layer1">
    <path
       style="color:#000000;clip-rule:nonzero;display:inline;overflow:visible;visibility:visible;opacity:1;isolation:auto;mix-blend-mode:normal;color-interpolation:sRGB;color-interpolation-filters:linearRGB;solid-color:#000000;solid-opacity:1;vector-effect:none;fill:#ffffff;fill-opacity:1;fill-rule:nonzero;stroke:#000000;stroke-width:0.79375005;stroke-linecap:butt;stroke-linejoin:miter;stroke-miterlimit:4;stroke-dasharray:none;stroke-dashoffset:0;stroke-opacity:1;color-rendering:auto;image-rendering:auto;shape-rendering:auto;text-rendering:auto;enable-background:accumulate"
       d="m -284.91564,266.91622 h -70.96724 v 30.80663 h 70.96724 z"
       id="path2408" />
    <path
       style="color:#000000;clip-rule:nonzero;display:inline;overflow:visible;visibility:visible;opacity:1;isolation:auto;mix-blend-mode:normal;color-interpolation:sRGB;color-interpolation-filters:linearRGB;solid-color:#000000;solid-opacity:1;vector-effect:none;fill:#eeeeec;fill-opacity:1;fill-rule:nonzero;stroke:#000000;stroke-width:0.79374999;stroke-linecap:butt;stroke-linejoin:miter;stroke-miterlimit:4;stroke-dasharray:none;stroke-dashoffset:0;stroke-opacity:1;color-rendering:auto;image-rendering:auto;shape-rendering:auto;text-rendering:auto;enable-background:accumulate"
       d="m -355.88288,255.4557 v 11.46052 h 70.96724 V 255.4557 Z"
       id="path2410" />
    <g
       id="text2414"
       style="font-style:normal;font-variant:normal;font-weight:normal;font-stretch:normal;font-size:5.83388996px;line-height:9.94412994px;font-family:'DejaVu Sans Mono';-inkscape-font-specification:'DejaVu Sans Mono, Normal';font-variant-ligatures:normal;font-variant-position:normal;font-variant-caps:normal;font-variant-numeric:normal;font-variant-alternates:normal;text-indent:0;text-align:start;text-decoration:none;text-decoration-line:none;text-decoration-style:solid;text-decoration-color:#000000;letter-spacing:0.39776516px;word-spacing:0px;text-transform:none;writing-mode:lr-tb;direction:ltr;text-orientation:mixed;dominant-baseline:auto;baseline-shift:baseline;text-anchor:start;white-space:normal;shape-padding:0;opacity:1;vector-effect:none;fill:#000000;fill-opacity:1;stroke:none;stroke-width:0.52916664;stroke-linecap:butt;stroke-linejoin:miter;stroke-miterlimit:4;stroke-dasharray:none;stroke-dashoffset:0;stroke-opacity:1"
       transform="scale(0.99919514,1.0008055)"
       aria-label="Control node">
      <path
         id="path6416"
         style="font-size:5.64444447px;stroke-width:0.52916664"
         d="m -350.87211,263.19533 q -0.21221,0.113 -0.43546,0.16812 -0.22324,0.0579 -0.47404,0.0579 -0.791,0 -1.22921,-0.55949 -0.43546,-0.55948 -0.43546,-1.57372 0,-1.00872 0.43821,-1.57096 0.44098,-0.565 1.22646,-0.565 0.2508,0 0.47404,0.0579 0.22325,0.0551 0.43546,0.16812 v 0.57051 q -0.20395,-0.16812 -0.43821,-0.25632 -0.23427,-0.0882 -0.47129,-0.0882 -0.54295,0 -0.81304,0.41892 -0.2701,0.41893 -0.2701,1.26504 0,0.84336 0.2701,1.26229 0.27009,0.41892 0.81304,0.41892 0.24253,0 0.47404,-0.0882 0.23427,-0.0882 0.43546,-0.25632 z" />
      <path
         id="path6418"
         style="font-size:5.64444447px;stroke-width:0.52916664"
         d="m -348.33838,260.61013 q -0.38585,0 -0.58429,0.30041 -0.19844,0.30041 -0.19844,0.89021 0,0.58705 0.19844,0.89022 0.19844,0.30041 0.58429,0.30041 0.3886,0 0.58704,-0.30041 0.19844,-0.30317 0.19844,-0.89022 0,-0.5898 -0.19844,-0.89021 -0.19844,-0.30041 -0.58704,-0.30041 z m 0,-0.42995 q 0.64216,0 0.98116,0.41617 0.34175,0.41617 0.34175,1.2044 0,0.791 -0.33899,1.20716 -0.339,0.41342 -0.98392,0.41342 -0.64217,0 -0.98117,-0.41342 -0.33899,-0.41616 -0.33899,-1.20716 0,-0.78823 0.33899,-1.2044 0.339,-0.41617 0.98117,-0.41617 z" />
      <path
         id="path6420"
         style="font-size:5.64444447px;stroke-width:0.52916664"
         d="m -343.34624,261.42868 v 1.91272 h -0.50987 v -1.91272 q 0,-0.41616 -0.14607,-0.61185 -0.14608,-0.19568 -0.45751,-0.19568 -0.35554,0 -0.54846,0.25356 -0.19017,0.2508 -0.19017,0.72209 v 1.7446 h -0.50712 v -3.08681 h 0.50712 v 0.46303 q 0.13505,-0.26459 0.36656,-0.39964 0.23151,-0.1378 0.54846,-0.1378 0.47129,0 0.7028,0.31144 0.23426,0.30868 0.23426,0.93706 z" />
      <path
         id="path6422"
         style="font-size:5.64444447px;stroke-width:0.52916664"
         d="m -340.75739,259.37816 v 0.87643 h 1.15204 v 0.39412 h -1.15204 v 1.6757 q 0,0.34175 0.12953,0.4768 0.12954,0.13505 0.452,0.13505 h 0.57051 v 0.40514 h -0.62012 q -0.57051,0 -0.80477,-0.22875 -0.23427,-0.22876 -0.23427,-0.78824 v -1.6757 h -0.82407 v -0.39412 h 0.82407 v -0.87643 z" />
      <path
         id="path6424"
         style="font-size:5.64444447px;stroke-width:0.52916664"
         d="m -335.4731,260.89125 q -0.16261,-0.12678 -0.33073,-0.18466 -0.16812,-0.0579 -0.36932,-0.0579 -0.47404,0 -0.72484,0.29766 -0.25081,0.29766 -0.25081,0.8599 v 1.53513 h -0.50987 v -3.08681 h 0.50987 v 0.60359 q 0.12678,-0.32798 0.38861,-0.50161 0.26458,-0.17639 0.62563,-0.17639 0.18741,0 0.35002,0.0469 0.16261,0.0469 0.31144,0.14608 z" />
      <path
         id="path6426"
         style="font-size:5.64444447px;stroke-width:0.52916664"
         d="m -333.16538,260.61013 q -0.38585,0 -0.58428,0.30041 -0.19844,0.30041 -0.19844,0.89021 0,0.58705 0.19844,0.89022 0.19843,0.30041 0.58428,0.30041 0.38861,0 0.58705,-0.30041 0.19844,-0.30317 0.19844,-0.89022 0,-0.5898 -0.19844,-0.89021 -0.19844,-0.30041 -0.58705,-0.30041 z m 0,-0.42995 q 0.64217,0 0.98117,0.41617 0.34175,0.41617 0.34175,1.2044 0,0.791 -0.339,1.20716 -0.33899,0.41342 -0.98392,0.41342 -0.64216,0 -0.98116,-0.41342 -0.339,-0.41616 -0.339,-1.20716 0,-0.78823 0.339,-1.2044 0.339,-0.41617 0.98116,-0.41617 z" />
      <path
         id="path6428"
         style="font-size:5.64444447px;stroke-width:0.52916664"
         d="m -329.30874,262.22243 q 0,0.34176 0.12403,0.51539 0.12678,0.17363 0.37207,0.17363 h 0.59255 v 0.42995 h -0.64216 q -0.45475,0 -0.70556,-0.29214 -0.24804,-0.29215 -0.24804,-0.82683 v -2.80293 h -0.81305 v -0.39687 h 1.32016 z" />
      <path
         id="path6430"
         style="font-size:5.64444447px;stroke-width:0.52916664"
         d="m -320.58673,261.42868 v 1.91272 h -0.50987 v -1.91272 q 0,-0.41616 -0.14608,-0.61185 -0.14607,-0.19568 -0.4575,-0.19568 -0.35554,0 -0.54846,0.25356 -0.19017,0.2508 -0.19017,0.72209 v 1.7446 h -0.50712 v -3.08681 h 0.50712 v 0.46303 q 0.13504,-0.26459 0.36656,-0.39964 0.23151,-0.1378 0.54845,-0.1378 0.47129,0 0.7028,0.31144 0.23427,0.30868 0.23427,0.93706 z" />
      <path
         id="path6432"
         style="font-size:5.64444447px;stroke-width:0.52916664"
         d="m -317.99237,260.61013 q -0.38585,0 -0.58429,0.30041 -0.19844,0.30041 -0.19844,0.89021 0,0.58705 0.19844,0.89022 0.19844,0.30041 0.58429,0.30041 0.38861,0 0.58704,-0.30041 0.19844,-0.30317 0.19844,-0.89022 0,-0.5898 -0.19844,-0.89021 -0.19843,-0.30041 -0.58704,-0.30041 z m 0,-0.42995 q 0.64217,0 0.98116,0.41617 0.34176,0.41617 0.34176,1.2044 0,0.791 -0.339,1.20716 -0.339,0.41342 -0.98392,0.41342 -0.64217,0 -0.98116,-0.41342 -0.339,-0.41616 -0.339,-1.20716 0,-0.78823 0.339,-1.2044 0.33899,-0.41617 0.98116,-0.41617 z" />
      <path
         id="path6434"
         style="font-size:5.64444447px;stroke-width:0.52916664"
         d="m -313.53215,260.64871 v -1.59576 h 0.50712 v 4.28845 h -0.50712 v -0.38861 q -0.12678,0.22876 -0.339,0.35003 -0.20946,0.11851 -0.48507,0.11851 -0.55948,0 -0.88194,-0.43271 -0.3197,-0.43546 -0.3197,-1.19889 0,-0.75241 0.32246,-1.1796 0.32246,-0.42995 0.87918,-0.42995 0.27837,0 0.49059,0.12127 0.21221,0.11851 0.33348,0.34726 z m -1.49104,1.15204 q 0,0.5898 0.18742,0.89022 0.18741,0.30041 0.55397,0.30041 0.36656,0 0.55673,-0.30317 0.19292,-0.30317 0.19292,-0.88746 0,-0.58704 -0.19292,-0.88745 -0.19017,-0.30317 -0.55673,-0.30317 -0.36656,0 -0.55397,0.30041 -0.18742,0.30041 -0.18742,0.89021 z" />
      <path
         id="path6436"
         style="font-size:5.64444447px;stroke-width:0.52916664"
         d="m -309.03885,261.67122 v 0.24804 h -2.1966 v 0.0165 q 0,0.50436 0.26183,0.77997 0.26458,0.27561 0.74414,0.27561 0.24254,0 0.50712,-0.0772 0.26458,-0.0772 0.56499,-0.23427 v 0.50436 q -0.28938,0.11852 -0.55948,0.17639 -0.26734,0.0606 -0.51814,0.0606 -0.71934,0 -1.12448,-0.42995 -0.40514,-0.43271 -0.40514,-1.19063 0,-0.73863 0.39687,-1.1796 0.39688,-0.44097 1.05833,-0.44097 0.58981,0 0.9288,0.39963 0.34176,0.39963 0.34176,1.09141 z m -0.50712,-0.14883 q -0.011,-0.44648 -0.21222,-0.678 -0.19844,-0.23426 -0.57326,-0.23426 -0.36656,0 -0.60358,0.24253 -0.23703,0.24254 -0.28112,0.67249 z" />
    </g>
    <g
       id="text2418"
       style="font-style:normal;font-variant:normal;font-weight:normal;font-stretch:normal;font-size:5.83388996px;line-height:9.9441309px;font-family:'DejaVu Sans Mono';-inkscape-font-specification:'DejaVu Sans Mono, Normal';font-variant-ligatures:normal;font-variant-position:normal;font-variant-caps:normal;font-variant-numeric:normal;font-variant-alternates:normal;text-indent:0;text-align:start;text-decoration:none;text-decoration-line:none;text-decoration-style:solid;text-decoration-color:#000000;letter-spacing:0.39776516px;word-spacing:0px;text-transform:none;writing-mode:lr-tb;direction:ltr;text-orientation:mixed;dominant-baseline:auto;baseline-shift:baseline;text-anchor:start;white-space:normal;shape-padding:0;opacity:1;vector-effect:none;fill:#000000;fill-opacity:1;stroke:none;stroke-width:0.52916664;stroke-linecap:butt;stroke-linejoin:miter;stroke-miterlimit:4;stroke-dasharray:none;stroke-dashoffset:0;stroke-opacity:1"
       transform="scale(0.99919514,1.0008055)"
       aria-label="$ ansible-playbook ...">
      <path
         id="path6375"
         style="font-size:3.88055563px;stroke-width:0.52916664"
         d="m -351.03569,276.03566 v 0.82234 q 0.20843,-0.006 0.32591,-0.11558 0.11747,-0.1099 0.11747,-0.29938 0,-0.17622 -0.10611,-0.27285 -0.1061,-0.0985 -0.33727,-0.13453 z m -0.18948,-0.36001 v -0.78256 q -0.19706,0.008 -0.30885,0.11369 -0.1099,0.10611 -0.1099,0.28422 0,0.16295 0.10232,0.25769 0.10421,0.0947 0.31643,0.12696 z m 0.18948,2.02933 h -0.18948 l -0.002,-0.57034 q -0.19326,-0.009 -0.38464,-0.053 -0.18948,-0.0436 -0.37517,-0.12127 v -0.34106 q 0.18948,0.11748 0.38085,0.18 0.19327,0.0625 0.38086,0.0663 v -0.86782 q -0.37896,-0.0587 -0.57034,-0.23116 -0.19137,-0.17243 -0.19137,-0.45665 0,-0.29749 0.19895,-0.4737 0.20085,-0.17811 0.56276,-0.20464 v -0.44528 h 0.18948 l 0.002,0.44528 q 0.14969,0.009 0.30317,0.0379 0.15348,0.0284 0.31265,0.0777 v 0.3278 q -0.16106,-0.0815 -0.31454,-0.12505 -0.15159,-0.0455 -0.30317,-0.0531 v 0.81666 q 0.39033,0.0587 0.59497,0.24254 0.20464,0.18379 0.20464,0.47559 0,0.2918 -0.2217,0.48697 -0.21979,0.19516 -0.57602,0.21221 z" />
      <path
         id="path6377"
         style="font-size:3.88055563px;stroke-width:0.52916664"
         d="m -345.55242,276.06787 h -0.11558 q -0.30506,0 -0.46044,0.108 -0.15348,0.10611 -0.15348,0.31833 0,0.19138 0.11559,0.29748 0.11558,0.10611 0.32022,0.10611 0.28801,0 0.45286,-0.19895 0.16484,-0.20085 0.16674,-0.55328 v -0.0777 z m 0.67645,-0.14401 v 1.21078 h -0.35054 v -0.31453 q -0.1118,0.18948 -0.28233,0.28043 -0.16863,0.089 -0.41117,0.089 -0.32401,0 -0.51728,-0.1819 -0.19327,-0.18379 -0.19327,-0.49075 0,-0.35433 0.23685,-0.53813 0.23874,-0.18379 0.69918,-0.18379 h 0.46802 v -0.055 q -0.002,-0.2539 -0.12885,-0.36759 -0.12695,-0.11559 -0.40549,-0.11559 -0.17811,0 -0.36001,0.0512 -0.1819,0.0512 -0.35433,0.14969 v -0.34864 q 0.19327,-0.0739 0.36949,-0.1099 0.17811,-0.0379 0.34485,-0.0379 0.26338,0 0.44907,0.0777 0.18759,0.0777 0.30317,0.23306 0.072,0.0947 0.10232,0.23496 0.0303,0.13832 0.0303,0.41685 z" />
      <path
         id="path6379"
         style="font-size:3.88055563px;stroke-width:0.52916664"
         d="m -342.15897,275.81965 v 1.31499 h -0.35054 v -1.31499 q 0,-0.28611 -0.10042,-0.42065 -0.10043,-0.13453 -0.31454,-0.13453 -0.24443,0 -0.37707,0.17433 -0.13074,0.17242 -0.13074,0.49643 v 1.19941 h -0.34864 v -2.12218 h 0.34864 v 0.31833 q 0.0928,-0.1819 0.25201,-0.27474 0.15916,-0.0947 0.37707,-0.0947 0.32401,0 0.48317,0.21411 0.16106,0.21222 0.16106,0.64423 z" />
      <path
         id="path6381"
         style="font-size:3.88055563px;stroke-width:0.52916664"
         d="m -339.5746,275.08636 v 0.34107 q -0.14969,-0.0872 -0.30128,-0.13074 -0.15158,-0.0436 -0.30885,-0.0436 -0.23685,0 -0.35433,0.0777 -0.11558,0.0758 -0.11558,0.23306 0,0.14211 0.0872,0.21222 0.0872,0.0701 0.43391,0.13643 l 0.14022,0.0265 q 0.25958,0.0493 0.39222,0.19706 0.13453,0.1478 0.13453,0.38465 0,0.31453 -0.22359,0.49265 -0.22358,0.17621 -0.62149,0.17621 -0.15727,0 -0.3297,-0.0341 -0.17242,-0.0322 -0.37327,-0.0985 v -0.36002 q 0.19516,0.10043 0.37327,0.15159 0.17812,0.0493 0.33728,0.0493 0.23116,0 0.35812,-0.0928 0.12695,-0.0947 0.12695,-0.26338 0,-0.24253 -0.46423,-0.33538 l -0.0152,-0.004 -0.13074,-0.0265 q -0.30127,-0.0587 -0.43959,-0.19706 -0.13832,-0.14021 -0.13832,-0.38085 0,-0.30506 0.20653,-0.46991 0.20653,-0.16674 0.58928,-0.16674 0.17054,0 0.3278,0.0322 0.15727,0.0303 0.30886,0.0928 z" />
      <path
         id="path6383"
         style="font-size:3.88055563px;stroke-width:0.52916664"
         d="m -338.20101,275.01246 h 0.89245 v 1.85123 h 0.6916 v 0.27095 h -1.73185 v -0.27095 h 0.6916 v -1.58027 h -0.5438 z m 0.5438,-0.82613 h 0.34865 v 0.44149 h -0.34865 z" />
      <path
         id="path6385"
         style="font-size:3.88055563px;stroke-width:0.52916664"
         d="m -334.21449,276.07545 q 0,-0.40549 -0.12885,-0.61202 -0.12885,-0.20654 -0.38086,-0.20654 -0.2539,0 -0.38464,0.20843 -0.13074,0.20654 -0.13074,0.61013 0,0.4017 0.13074,0.61013 0.13074,0.20842 0.38464,0.20842 0.25201,0 0.38086,-0.20653 0.12885,-0.20653 0.12885,-0.61202 z m -1.02509,-0.79203 q 0.0834,-0.15537 0.22927,-0.23874 0.14779,-0.0834 0.34106,-0.0834 0.38275,0 0.60255,0.29558 0.2198,0.2937 0.2198,0.81098 0,0.52486 -0.22169,0.82424 -0.2198,0.29748 -0.60445,0.29748 -0.18948,0 -0.33538,-0.0815 -0.144,-0.0834 -0.23116,-0.24064 v 0.26716 h -0.34865 v -2.94831 h 0.34865 z" />
      <path
         id="path6387"
         style="font-size:3.88055563px;stroke-width:0.52916664"
         d="m -332.01098,276.36535 q 0,0.23496 0.0853,0.35433 0.0872,0.11937 0.25579,0.11937 h 0.40739 v 0.29559 h -0.44149 q -0.31265,0 -0.48507,-0.20085 -0.17053,-0.20084 -0.17053,-0.56844 v -1.92701 h -0.55897 v -0.27285 h 0.90761 z" />
      <path
         id="path6389"
         style="font-size:3.88055563px;stroke-width:0.52916664"
         d="m -328.38258,275.98639 v 0.17054 h -1.51015 v 0.0114 q 0,0.34675 0.18,0.53623 0.1819,0.18948 0.5116,0.18948 0.16674,0 0.34864,-0.053 0.1819,-0.0531 0.38844,-0.16106 v 0.34675 q -0.19896,0.0815 -0.38465,0.12127 -0.18379,0.0417 -0.35622,0.0417 -0.49454,0 -0.77308,-0.29559 -0.27854,-0.29748 -0.27854,-0.81855 0,-0.50781 0.27285,-0.81098 0.27286,-0.30316 0.72761,-0.30316 0.40549,0 0.63855,0.27474 0.23495,0.27475 0.23495,0.75034 z m -0.34864,-0.10232 q -0.008,-0.30695 -0.1459,-0.46612 -0.13643,-0.16106 -0.39412,-0.16106 -0.25201,0 -0.41496,0.16675 -0.16295,0.16674 -0.19327,0.46233 z" />
      <path
         id="path6391"
         style="font-size:3.88055563px;stroke-width:0.52916664"
         d="m -327.08289,275.91629 h 0.9872 v 0.31074 h -0.9872 z" />
      <path
         id="path6393"
         style="font-size:3.88055563px;stroke-width:0.52916664"
         d="m -324.31472,276.86748 v 1.07435 h -0.35054 v -2.92937 h 0.35054 v 0.27096 q 0.0872,-0.15727 0.23116,-0.23874 0.1459,-0.0834 0.33538,-0.0834 0.38465,0 0.60255,0.29748 0.2198,0.29748 0.2198,0.82424 0,0.51728 -0.2198,0.81287 -0.2198,0.29369 -0.60255,0.29369 -0.19327,0 -0.33917,-0.0815 -0.144,-0.0834 -0.22737,-0.24064 z m 1.02319,-0.79203 q 0,-0.40549 -0.12884,-0.61202 -0.12696,-0.20654 -0.37897,-0.20654 -0.2539,0 -0.38464,0.20843 -0.13074,0.20654 -0.13074,0.61013 0,0.4017 0.13074,0.61013 0.13074,0.20842 0.38464,0.20842 0.25201,0 0.37897,-0.20653 0.12884,-0.20653 0.12884,-0.61202 z" />
      <path
         id="path6395"
         style="font-size:3.88055563px;stroke-width:0.52916664"
         d="m -321.08233,276.36535 q 0,0.23496 0.0853,0.35433 0.0872,0.11937 0.2558,0.11937 h 0.40738 v 0.29559 h -0.44148 q -0.31265,0 -0.48507,-0.20085 -0.17054,-0.20084 -0.17054,-0.56844 v -1.92701 h -0.55896 v -0.27285 h 0.90761 z" />
      <path
         id="path6397"
         style="font-size:3.88055563px;stroke-width:0.52916664"
         d="m -318.2308,276.06787 h -0.11558 q -0.30507,0 -0.46044,0.108 -0.15348,0.10611 -0.15348,0.31833 0,0.19138 0.11558,0.29748 0.11559,0.10611 0.32023,0.10611 0.28801,0 0.45285,-0.19895 0.16485,-0.20085 0.16675,-0.55328 v -0.0777 z m 0.67644,-0.14401 v 1.21078 h -0.35053 v -0.31453 q -0.1118,0.18948 -0.28233,0.28043 -0.16864,0.089 -0.41117,0.089 -0.32401,0 -0.51728,-0.1819 -0.19327,-0.18379 -0.19327,-0.49075 0,-0.35433 0.23685,-0.53813 0.23874,-0.18379 0.69918,-0.18379 h 0.46802 v -0.055 q -0.002,-0.2539 -0.12885,-0.36759 -0.12695,-0.11559 -0.40549,-0.11559 -0.17811,0 -0.36001,0.0512 -0.1819,0.0512 -0.35433,0.14969 v -0.34864 q 0.19327,-0.0739 0.36949,-0.1099 0.17811,-0.0379 0.34485,-0.0379 0.26338,0 0.44907,0.0777 0.18759,0.0777 0.30317,0.23306 0.072,0.0947 0.10232,0.23496 0.0303,0.13832 0.0303,0.41685 z" />
      <path
         id="path6399"
         style="font-size:3.88055563px;stroke-width:0.52916664"
         d="m -315.20305,276.45251 q -0.0872,0.2217 -0.22169,0.5836 -0.18759,0.50023 -0.25201,0.61013 -0.0872,0.14779 -0.2179,0.22169 -0.13074,0.0739 -0.30506,0.0739 h -0.28044 v -0.2918 h 0.20654 q 0.15348,0 0.24064,-0.0891 0.0872,-0.089 0.22169,-0.46043 l -0.82045,-2.08808 h 0.36949 l 0.62907,1.65985 0.6196,-1.65985 h 0.36949 z" />
      <path
         id="path6401"
         style="font-size:3.88055563px;stroke-width:0.52916664"
         d="m -312.3572,276.07545 q 0,-0.40549 -0.12884,-0.61202 -0.12885,-0.20654 -0.38086,-0.20654 -0.2539,0 -0.38464,0.20843 -0.13075,0.20654 -0.13075,0.61013 0,0.4017 0.13075,0.61013 0.13074,0.20842 0.38464,0.20842 0.25201,0 0.38086,-0.20653 0.12884,-0.20653 0.12884,-0.61202 z m -1.02509,-0.79203 q 0.0834,-0.15537 0.22928,-0.23874 0.14779,-0.0834 0.34106,-0.0834 0.38275,0 0.60255,0.29558 0.21979,0.2937 0.21979,0.81098 0,0.52486 -0.22169,0.82424 -0.21979,0.29748 -0.60444,0.29748 -0.18948,0 -0.33538,-0.0815 -0.144,-0.0834 -0.23117,-0.24064 v 0.26716 h -0.34864 v -2.94831 h 0.34864 z" />
      <path
         id="path6403"
         style="font-size:3.88055563px;stroke-width:0.52916664"
         d="m -310.19727,275.25689 q -0.26527,0 -0.40169,0.20654 -0.13643,0.20653 -0.13643,0.61202 0,0.40359 0.13643,0.61202 0.13642,0.20653 0.40169,0.20653 0.26717,0 0.4036,-0.20653 0.13642,-0.20843 0.13642,-0.61202 0,-0.40549 -0.13642,-0.61202 -0.13643,-0.20654 -0.4036,-0.20654 z m 0,-0.29558 q 0.44149,0 0.67455,0.28611 0.23496,0.28612 0.23496,0.82803 0,0.54381 -0.23306,0.82992 -0.23306,0.28422 -0.67645,0.28422 -0.44148,0 -0.67455,-0.28422 -0.23306,-0.28611 -0.23306,-0.82992 0,-0.54191 0.23306,-0.82803 0.23307,-0.28611 0.67455,-0.28611 z" />
      <path
         id="path6405"
         style="font-size:3.88055563px;stroke-width:0.52916664"
         d="m -307.4651,275.25689 q -0.26528,0 -0.4017,0.20654 -0.13643,0.20653 -0.13643,0.61202 0,0.40359 0.13643,0.61202 0.13642,0.20653 0.4017,0.20653 0.26716,0 0.40359,-0.20653 0.13643,-0.20843 0.13643,-0.61202 0,-0.40549 -0.13643,-0.61202 -0.13643,-0.20654 -0.40359,-0.20654 z m 0,-0.29558 q 0.44149,0 0.67455,0.28611 0.23495,0.28612 0.23495,0.82803 0,0.54381 -0.23306,0.82992 -0.23306,0.28422 -0.67644,0.28422 -0.44149,0 -0.67455,-0.28422 -0.23306,-0.28611 -0.23306,-0.82992 0,-0.54191 0.23306,-0.82803 0.23306,-0.28611 0.67455,-0.28611 z" />
      <path
         id="path6407"
         style="font-size:3.88055563px;stroke-width:0.52916664"
         d="m -305.45297,274.18633 h 0.36002 v 1.70722 l 0.91519,-0.88109 h 0.42443 l -0.83561,0.79961 0.96635,1.32257 h -0.42633 l -0.78445,-1.09519 -0.25958,0.24443 v 0.85076 h -0.36002 z" />
      <path
         id="path6409"
         style="font-size:3.88055563px;stroke-width:0.52916664"
         d="m -299.50926,276.55673 h 0.47749 v 0.57791 h -0.47749 z" />
      <path
         id="path6411"
         style="font-size:3.88055563px;stroke-width:0.52916664"
         d="m -296.77709,276.55673 h 0.47749 v 0.57791 h -0.47749 z" />
      <path
         id="path6413"
         style="font-size:3.88055563px;stroke-width:0.52916664"
         d="m -294.04493,276.55673 h 0.47749 v 0.57791 h -0.47749 z" />
    </g>
    <path
       style="color:#000000;clip-rule:nonzero;display:inline;overflow:visible;visibility:visible;opacity:1;isolation:auto;mix-blend-mode:normal;color-interpolation:sRGB;color-interpolation-filters:linearRGB;solid-color:#000000;solid-opacity:1;vector-effect:none;fill:#ffffff;fill-opacity:1;fill-rule:nonzero;stroke:#000000;stroke-width:0.79375005;stroke-linecap:butt;stroke-linejoin:miter;stroke-miterlimit:4;stroke-dasharray:none;stroke-dashoffset:0;stroke-opacity:1;color-rendering:auto;image-rendering:auto;shape-rendering:auto;text-rendering:auto;enable-background:accumulate"
       d="m -180.97283,266.91622 h -70.96724 v 30.80665 h 70.96724 z"
       id="path2420" />
    <path
       style="color:#000000;clip-rule:nonzero;display:inline;overflow:visible;visibility:visible;opacity:1;isolation:auto;mix-blend-mode:normal;color-interpolation:sRGB;color-interpolation-filters:linearRGB;solid-color:#000000;solid-opacity:1;vector-effect:none;fill:#eeeeec;fill-opacity:1;fill-rule:nonzero;stroke:#000000;stroke-width:0.79374999;stroke-linecap:butt;stroke-linejoin:miter;stroke-miterlimit:4;stroke-dasharray:none;stroke-dashoffset:0;stroke-opacity:1;color-rendering:auto;image-rendering:auto;shape-rendering:auto;text-rendering:auto;enable-background:accumulate"
       d="m -251.94007,255.4557 v 11.46052 h 70.96724 V 255.4557 Z"
       id="path2422" />
    <g
       id="text2426"
       style="font-style:normal;font-variant:normal;font-weight:normal;font-stretch:normal;font-size:5.83388996px;line-height:9.94412994px;font-family:'DejaVu Sans Mono';-inkscape-font-specification:'DejaVu Sans Mono, Normal';font-variant-ligatures:normal;font-variant-position:normal;font-variant-caps:normal;font-variant-numeric:normal;font-variant-alternates:normal;text-indent:0;text-align:start;text-decoration:none;text-decoration-line:none;text-decoration-style:solid;text-decoration-color:#000000;letter-spacing:0.39776516px;word-spacing:0px;text-transform:none;writing-mode:lr-tb;direction:ltr;text-orientation:mixed;dominant-baseline:auto;baseline-shift:baseline;text-anchor:start;white-space:normal;shape-padding:0;opacity:1;vector-effect:none;fill:#000000;fill-opacity:1;stroke:none;stroke-width:0.52916664;stroke-linecap:butt;stroke-linejoin:miter;stroke-miterlimit:4;stroke-dasharray:none;stroke-dashoffset:0;stroke-opacity:1"
       transform="scale(0.99919514,1.0008055)"
       aria-label="Managed node">
      <path
         id="path6352"
         style="font-size:5.64444447px;stroke-width:0.52916664"
         d="m -249.56582,259.22658 h 0.74414 l 0.71107,2.09462 0.71658,-2.09462 h 0.7469 v 4.11482 h -0.51539 v -3.63526 l -0.73312,2.16903 h -0.42168 l -0.73587,-2.16903 v 3.63526 h -0.51263 z" />
      <path
         id="path6354"
         style="font-size:5.64444447px;stroke-width:0.52916664"
         d="m -244.07482,261.78973 h -0.16812 q -0.44373,0 -0.66973,0.1571 -0.22324,0.15434 -0.22324,0.46302 0,0.27836 0.16812,0.4327 0.16812,0.15434 0.46577,0.15434 0.41893,0 0.65871,-0.28939 0.23977,-0.29214 0.24253,-0.80477 v -0.113 z m 0.98391,-0.20946 v 1.76113 h -0.50987 v -0.45751 q -0.16261,0.27561 -0.41065,0.4079 -0.2453,0.12954 -0.59807,0.12954 -0.47129,0 -0.75241,-0.26459 -0.28112,-0.26734 -0.28112,-0.71382 0,-0.51539 0.34451,-0.78273 0.34726,-0.26734 1.01699,-0.26734 h 0.68075 v -0.0799 q -0.003,-0.36932 -0.18741,-0.53468 -0.18466,-0.16812 -0.5898,-0.16812 -0.25907,0 -0.52366,0.0744 -0.26458,0.0744 -0.51538,0.21773 v -0.50712 q 0.28112,-0.10748 0.53743,-0.15985 0.25907,-0.0551 0.50161,-0.0551 0.38309,0 0.65319,0.113 0.27285,0.113 0.44097,0.339 0.10473,0.1378 0.14883,0.34175 0.0441,0.20119 0.0441,0.60634 z" />
      <path
         id="path6356"
         style="font-size:5.64444447px;stroke-width:0.52916664"
         d="m -239.3197,261.42868 v 1.91272 h -0.50988 v -1.91272 q 0,-0.41616 -0.14607,-0.61185 -0.14607,-0.19568 -0.45751,-0.19568 -0.35553,0 -0.54846,0.25356 -0.19017,0.2508 -0.19017,0.72209 v 1.7446 h -0.50711 v -3.08681 h 0.50711 v 0.46303 q 0.13505,-0.26459 0.36656,-0.39964 0.23151,-0.1378 0.54846,-0.1378 0.47129,0 0.7028,0.31144 0.23427,0.30868 0.23427,0.93706 z" />
      <path
         id="path6358"
         style="font-size:5.64444447px;stroke-width:0.52916664"
         d="m -236.48832,261.78973 h -0.16812 q -0.44373,0 -0.66973,0.1571 -0.22324,0.15434 -0.22324,0.46302 0,0.27836 0.16812,0.4327 0.16812,0.15434 0.46578,0.15434 0.41892,0 0.6587,-0.28939 0.23978,-0.29214 0.24253,-0.80477 v -0.113 z m 0.98392,-0.20946 v 1.76113 h -0.50988 v -0.45751 q -0.1626,0.27561 -0.41065,0.4079 -0.24529,0.12954 -0.59807,0.12954 -0.47129,0 -0.75241,-0.26459 -0.28112,-0.26734 -0.28112,-0.71382 0,-0.51539 0.34451,-0.78273 0.34727,-0.26734 1.01699,-0.26734 h 0.68075 v -0.0799 q -0.003,-0.36932 -0.18741,-0.53468 -0.18466,-0.16812 -0.5898,-0.16812 -0.25907,0 -0.52365,0.0744 -0.26459,0.0744 -0.51539,0.21773 v -0.50712 q 0.28112,-0.10748 0.53743,-0.15985 0.25908,-0.0551 0.50161,-0.0551 0.38309,0 0.65319,0.113 0.27285,0.113 0.44097,0.339 0.10473,0.1378 0.14883,0.34175 0.0441,0.20119 0.0441,0.60634 z" />
      <path
         id="path6360"
         style="font-size:5.64444447px;stroke-width:0.52916664"
         d="m -232.26512,261.77319 q 0,-0.57051 -0.18742,-0.86541 -0.18465,-0.29765 -0.54019,-0.29765 -0.37207,0 -0.56775,0.29765 -0.19568,0.2949 -0.19568,0.86541 0,0.57051 0.19568,0.87092 0.19844,0.29766 0.57327,0.29766 0.35002,0 0.53467,-0.30041 0.18742,-0.30042 0.18742,-0.86817 z m 0.50712,1.36977 q 0,0.69453 -0.32798,1.05282 -0.32797,0.35829 -0.96462,0.35829 -0.20947,0 -0.43822,-0.0386 -0.22875,-0.0386 -0.45751,-0.113 v -0.50161 q 0.2701,0.12678 0.49058,0.18742 0.22049,0.0606 0.40515,0.0606 0.41065,0 0.59806,-0.22324 0.18742,-0.22324 0.18742,-0.70831 v -0.022 -0.34451 q -0.12127,0.25907 -0.33073,0.38585 -0.20946,0.12678 -0.50988,0.12678 -0.54019,0 -0.86265,-0.43271 -0.32246,-0.4327 -0.32246,-1.15755 0,-0.7276 0.32246,-1.16031 0.32246,-0.4327 0.86265,-0.4327 0.29766,0 0.50437,0.11851 0.2067,0.11851 0.33624,0.36656 v -0.39963 h 0.50712 z" />
      <path
         id="path6362"
         style="font-size:5.64444447px;stroke-width:0.52916664"
         d="m -227.77183,261.67122 v 0.24804 h -2.19659 v 0.0165 q 0,0.50436 0.26183,0.77997 0.26458,0.27561 0.74414,0.27561 0.24253,0 0.50712,-0.0772 0.26458,-0.0772 0.56499,-0.23427 v 0.50436 q -0.28939,0.11852 -0.55948,0.17639 -0.26734,0.0606 -0.51814,0.0606 -0.71934,0 -1.12448,-0.42995 -0.40515,-0.43271 -0.40515,-1.19063 0,-0.73863 0.39688,-1.1796 0.39687,-0.44097 1.05833,-0.44097 0.5898,0 0.9288,0.39963 0.34175,0.39963 0.34175,1.09141 z m -0.50712,-0.14883 q -0.011,-0.44648 -0.21221,-0.678 -0.19844,-0.23426 -0.57327,-0.23426 -0.36656,0 -0.60358,0.24253 -0.23702,0.24254 -0.28112,0.67249 z" />
      <path
         id="path6364"
         style="font-size:5.64444447px;stroke-width:0.52916664"
         d="m -224.67862,260.64871 v -1.59576 h 0.50712 v 4.28845 h -0.50712 v -0.38861 q -0.12678,0.22876 -0.339,0.35003 -0.20946,0.11851 -0.48507,0.11851 -0.55948,0 -0.88194,-0.43271 -0.31971,-0.43546 -0.31971,-1.19889 0,-0.75241 0.32247,-1.1796 0.32246,-0.42995 0.87918,-0.42995 0.27837,0 0.49059,0.12127 0.21221,0.11851 0.33348,0.34726 z m -1.49104,1.15204 q 0,0.5898 0.18742,0.89022 0.18741,0.30041 0.55397,0.30041 0.36656,0 0.55673,-0.30317 0.19292,-0.30317 0.19292,-0.88746 0,-0.58704 -0.19292,-0.88745 -0.19017,-0.30317 -0.55673,-0.30317 -0.36656,0 -0.55397,0.30041 -0.18742,0.30041 -0.18742,0.89021 z" />
      <path
         id="path6366"
         style="font-size:5.64444447px;stroke-width:0.52916664"
         d="m -216.56019,261.42868 v 1.91272 h -0.50988 v -1.91272 q 0,-0.41616 -0.14607,-0.61185 -0.14607,-0.19568 -0.45751,-0.19568 -0.35553,0 -0.54846,0.25356 -0.19017,0.2508 -0.19017,0.72209 v 1.7446 h -0.50712 v -3.08681 h 0.50712 v 0.46303 q 0.13505,-0.26459 0.36656,-0.39964 0.23151,-0.1378 0.54846,-0.1378 0.47129,0 0.7028,0.31144 0.23427,0.30868 0.23427,0.93706 z" />
      <path
         id="path6368"
         style="font-size:5.64444447px;stroke-width:0.52916664"
         d="m -213.96583,260.61013 q -0.38586,0 -0.58429,0.30041 -0.19844,0.30041 -0.19844,0.89021 0,0.58705 0.19844,0.89022 0.19843,0.30041 0.58429,0.30041 0.3886,0 0.58704,-0.30041 0.19844,-0.30317 0.19844,-0.89022 0,-0.5898 -0.19844,-0.89021 -0.19844,-0.30041 -0.58704,-0.30041 z m 0,-0.42995 q 0.64216,0 0.98116,0.41617 0.34175,0.41617 0.34175,1.2044 0,0.791 -0.339,1.20716 -0.33899,0.41342 -0.98391,0.41342 -0.64217,0 -0.98117,-0.41342 -0.339,-0.41616 -0.339,-1.20716 0,-0.78823 0.339,-1.2044 0.339,-0.41617 0.98117,-0.41617 z" />
      <path
         id="path6370"
         style="font-size:5.64444447px;stroke-width:0.52916664"
         d="m -209.50561,260.64871 v -1.59576 h 0.50711 v 4.28845 h -0.50711 v -0.38861 q -0.12678,0.22876 -0.339,0.35003 -0.20946,0.11851 -0.48507,0.11851 -0.55948,0 -0.88194,-0.43271 -0.31971,-0.43546 -0.31971,-1.19889 0,-0.75241 0.32246,-1.1796 0.32246,-0.42995 0.87919,-0.42995 0.27836,0 0.49058,0.12127 0.21222,0.11851 0.33349,0.34726 z m -1.49104,1.15204 q 0,0.5898 0.18741,0.89022 0.18742,0.30041 0.55397,0.30041 0.36656,0 0.55673,-0.30317 0.19293,-0.30317 0.19293,-0.88746 0,-0.58704 -0.19293,-0.88745 -0.19017,-0.30317 -0.55673,-0.30317 -0.36655,0 -0.55397,0.30041 -0.18741,0.30041 -0.18741,0.89021 z" />
      <path
         id="path6372"
         style="font-size:5.64444447px;stroke-width:0.52916664"
         d="m -205.01232,261.67122 v 0.24804 h -2.19659 v 0.0165 q 0,0.50436 0.26183,0.77997 0.26458,0.27561 0.74414,0.27561 0.24253,0 0.50711,-0.0772 0.26459,-0.0772 0.565,-0.23427 v 0.50436 q -0.28939,0.11852 -0.55948,0.17639 -0.26734,0.0606 -0.51815,0.0606 -0.71933,0 -1.12448,-0.42995 -0.40514,-0.43271 -0.40514,-1.19063 0,-0.73863 0.39688,-1.1796 0.39687,-0.44097 1.05833,-0.44097 0.5898,0 0.9288,0.39963 0.34175,0.39963 0.34175,1.09141 z m -0.50712,-0.14883 q -0.011,-0.44648 -0.21221,-0.678 -0.19844,-0.23426 -0.57327,-0.23426 -0.36656,0 -0.60358,0.24253 -0.23702,0.24254 -0.28112,0.67249 z" />
    </g>
    <g
       id="text2430"
       style="font-style:normal;font-variant:normal;font-weight:normal;font-stretch:normal;font-size:5.83388996px;line-height:9.9441309px;font-family:'DejaVu Sans Mono';-inkscape-font-specification:'DejaVu Sans Mono, Normal';font-variant-ligatures:normal;font-variant-position:normal;font-variant-caps:normal;font-variant-numeric:normal;font-variant-alternates:normal;text-indent:0;text-align:start;text-decoration:none;text-decoration-line:none;text-decoration-style:solid;text-decoration-color:#000000;letter-spacing:0.39776516px;word-spacing:0px;text-transform:none;writing-mode:lr-tb;direction:ltr;text-orientation:mixed;dominant-baseline:auto;baseline-shift:baseline;text-anchor:start;white-space:normal;shape-padding:0;opacity:1;vector-effect:none;fill:#000000;fill-opacity:1;stroke:none;stroke-width:0.52916664;stroke-linecap:butt;stroke-linejoin:miter;stroke-miterlimit:4;stroke-dasharray:none;stroke-dashoffset:0;stroke-opacity:1"
       transform="scale(0.99919514,1.0008055)"
       aria-label="$ ./AnsiballZ_asset.py">
      <path
         id="path6309"
         style="font-size:3.88055563px;stroke-width:0.52916664"
         d="m -247.00919,276.03566 v 0.82234 q 0.20843,-0.006 0.32591,-0.11558 0.11748,-0.1099 0.11748,-0.29938 0,-0.17622 -0.10611,-0.27285 -0.10611,-0.0985 -0.33728,-0.13453 z m -0.18948,-0.36001 v -0.78256 q -0.19706,0.008 -0.30885,0.11369 -0.1099,0.10611 -0.1099,0.28422 0,0.16295 0.10232,0.25769 0.10422,0.0947 0.31643,0.12696 z m 0.18948,2.02933 h -0.18948 l -0.002,-0.57034 q -0.19327,-0.009 -0.38465,-0.053 -0.18948,-0.0436 -0.37517,-0.12127 v -0.34106 q 0.18948,0.11748 0.38086,0.18 0.19327,0.0625 0.38085,0.0663 v -0.86782 q -0.37896,-0.0587 -0.57033,-0.23116 -0.19138,-0.17243 -0.19138,-0.45665 0,-0.29749 0.19896,-0.4737 0.20085,-0.17811 0.56275,-0.20464 v -0.44528 h 0.18948 l 0.002,0.44528 q 0.14969,0.009 0.30317,0.0379 0.15348,0.0284 0.31264,0.0777 v 0.3278 q -0.16106,-0.0815 -0.31454,-0.12505 -0.15158,-0.0455 -0.30317,-0.0531 v 0.81666 q 0.39033,0.0587 0.59497,0.24254 0.20464,0.18379 0.20464,0.47559 0,0.2918 -0.22169,0.48697 -0.2198,0.19516 -0.57602,0.21221 z" />
      <path
         id="path6311"
         style="font-size:3.88055563px;stroke-width:0.52916664"
         d="m -241.92951,276.55673 h 0.47749 v 0.57791 h -0.47749 z" />
      <path
         id="path6313"
         style="font-size:3.88055563px;stroke-width:0.52916664"
         d="m -238.43942,274.3057 h 0.36001 l -1.48932,3.18896 h -0.3619 z" />
      <path
         id="path6315"
         style="font-size:3.88055563px;stroke-width:0.52916664"
         d="m -236.22454,274.64298 -0.4036,1.44763 h 0.80719 z m -0.23117,-0.33728 h 0.46423 l 0.86592,2.82894 h -0.39601 l -0.20843,-0.73707 h -0.99098 l -0.20464,0.73707 h -0.39601 z" />
      <path
         id="path6317"
         style="font-size:3.88055563px;stroke-width:0.52916664"
         d="m -232.66814,275.81965 v 1.31499 h -0.35054 v -1.31499 q 0,-0.28611 -0.10042,-0.42065 -0.10043,-0.13453 -0.31454,-0.13453 -0.24443,0 -0.37707,0.17433 -0.13074,0.17242 -0.13074,0.49643 v 1.19941 h -0.34864 v -2.12218 h 0.34864 v 0.31833 q 0.0928,-0.1819 0.25201,-0.27474 0.15916,-0.0947 0.37707,-0.0947 0.32401,0 0.48317,0.21411 0.16106,0.21222 0.16106,0.64423 z" />
      <path
         id="path6319"
         style="font-size:3.88055563px;stroke-width:0.52916664"
         d="m -230.08377,275.08636 v 0.34107 q -0.14969,-0.0872 -0.30128,-0.13074 -0.15158,-0.0436 -0.30885,-0.0436 -0.23685,0 -0.35433,0.0777 -0.11558,0.0758 -0.11558,0.23306 0,0.14211 0.0872,0.21222 0.0872,0.0701 0.43391,0.13643 l 0.14021,0.0265 q 0.25959,0.0493 0.39223,0.19706 0.13453,0.1478 0.13453,0.38465 0,0.31453 -0.22359,0.49265 -0.22358,0.17621 -0.62149,0.17621 -0.15727,0 -0.3297,-0.0341 -0.17243,-0.0322 -0.37327,-0.0985 v -0.36002 q 0.19516,0.10043 0.37327,0.15159 0.17811,0.0493 0.33728,0.0493 0.23116,0 0.35811,-0.0928 0.12696,-0.0947 0.12696,-0.26338 0,-0.24253 -0.46423,-0.33538 l -0.0152,-0.004 -0.13074,-0.0265 q -0.30127,-0.0587 -0.4396,-0.19706 -0.13832,-0.14021 -0.13832,-0.38085 0,-0.30506 0.20654,-0.46991 0.20653,-0.16674 0.58928,-0.16674 0.17053,0 0.3278,0.0322 0.15727,0.0303 0.30886,0.0928 z" />
      <path
         id="path6321"
         style="font-size:3.88055563px;stroke-width:0.52916664"
         d="m -228.71019,275.01246 h 0.89246 v 1.85123 h 0.6916 v 0.27095 h -1.73185 v -0.27095 h 0.6916 v -1.58027 h -0.54381 z m 0.54381,-0.82613 h 0.34865 v 0.44149 h -0.34865 z" />
      <path
         id="path6323"
         style="font-size:3.88055563px;stroke-width:0.52916664"
         d="m -224.72366,276.07545 q 0,-0.40549 -0.12885,-0.61202 -0.12885,-0.20654 -0.38086,-0.20654 -0.2539,0 -0.38464,0.20843 -0.13074,0.20654 -0.13074,0.61013 0,0.4017 0.13074,0.61013 0.13074,0.20842 0.38464,0.20842 0.25201,0 0.38086,-0.20653 0.12885,-0.20653 0.12885,-0.61202 z m -1.02509,-0.79203 q 0.0834,-0.15537 0.22927,-0.23874 0.14779,-0.0834 0.34106,-0.0834 0.38275,0 0.60255,0.29558 0.2198,0.2937 0.2198,0.81098 0,0.52486 -0.22169,0.82424 -0.2198,0.29748 -0.60445,0.29748 -0.18948,0 -0.33538,-0.0815 -0.144,-0.0834 -0.23116,-0.24064 v 0.26716 h -0.34865 v -2.94831 h 0.34865 z" />
      <path
         id="path6325"
         style="font-size:3.88055563px;stroke-width:0.52916664"
         d="m -222.40078,276.06787 h -0.11558 q -0.30507,0 -0.46044,0.108 -0.15348,0.10611 -0.15348,0.31833 0,0.19138 0.11559,0.29748 0.11558,0.10611 0.32022,0.10611 0.28801,0 0.45285,-0.19895 0.16485,-0.20085 0.16675,-0.55328 v -0.0777 z m 0.67645,-0.14401 v 1.21078 h -0.35054 v -0.31453 q -0.1118,0.18948 -0.28233,0.28043 -0.16864,0.089 -0.41117,0.089 -0.32401,0 -0.51728,-0.1819 -0.19327,-0.18379 -0.19327,-0.49075 0,-0.35433 0.23685,-0.53813 0.23874,-0.18379 0.69918,-0.18379 h 0.46802 v -0.055 q -0.002,-0.2539 -0.12885,-0.36759 -0.12695,-0.11559 -0.40549,-0.11559 -0.17811,0 -0.36001,0.0512 -0.1819,0.0512 -0.35433,0.14969 v -0.34864 q 0.19327,-0.0739 0.36949,-0.1099 0.17811,-0.0379 0.34485,-0.0379 0.26338,0 0.44907,0.0777 0.18759,0.0777 0.30317,0.23306 0.072,0.0947 0.10232,0.23496 0.0303,0.13832 0.0303,0.41685 z" />
      <path
         id="path6327"
         style="font-size:3.88055563px;stroke-width:0.52916664"
         d="m -219.78799,276.36535 q 0,0.23496 0.0853,0.35433 0.0872,0.11937 0.2558,0.11937 h 0.40738 v 0.29559 h -0.44149 q -0.31264,0 -0.48507,-0.20085 -0.17053,-0.20084 -0.17053,-0.56844 v -1.92701 h -0.55897 v -0.27285 h 0.90761 z" />
      <path
         id="path6329"
         style="font-size:3.88055563px;stroke-width:0.52916664"
         d="m -217.05583,276.36535 q 0,0.23496 0.0853,0.35433 0.0872,0.11937 0.2558,0.11937 h 0.40738 v 0.29559 h -0.44149 q -0.31264,0 -0.48507,-0.20085 -0.17053,-0.20084 -0.17053,-0.56844 v -1.92701 h -0.55897 v -0.27285 h 0.90761 z" />
      <path
         id="path6331"
         style="font-size:3.88055563px;stroke-width:0.52916664"
         d="m -215.19717,274.3057 h 1.83606 v 0.2918 l -1.47794,2.21503 h 1.51963 v 0.32211 h -1.91944 v -0.2918 l 1.43816,-2.21502 h -1.39647 z" />
      <path
         id="path6333"
         style="font-size:3.88055563px;stroke-width:0.52916664"
         d="m -210.46599,277.89825 v 0.15158 h -2.33629 v -0.15158 z" />
      <path
         id="path6335"
         style="font-size:3.88055563px;stroke-width:0.52916664"
         d="m -208.73997,276.06787 h -0.11558 q -0.30507,0 -0.46044,0.108 -0.15348,0.10611 -0.15348,0.31833 0,0.19138 0.11558,0.29748 0.11559,0.10611 0.32023,0.10611 0.28801,0 0.45285,-0.19895 0.16485,-0.20085 0.16675,-0.55328 v -0.0777 z m 0.67644,-0.14401 v 1.21078 h -0.35053 v -0.31453 q -0.1118,0.18948 -0.28233,0.28043 -0.16864,0.089 -0.41117,0.089 -0.32401,0 -0.51728,-0.1819 -0.19327,-0.18379 -0.19327,-0.49075 0,-0.35433 0.23685,-0.53813 0.23874,-0.18379 0.69918,-0.18379 h 0.46802 v -0.055 q -0.002,-0.2539 -0.12885,-0.36759 -0.12695,-0.11559 -0.40549,-0.11559 -0.17811,0 -0.36001,0.0512 -0.1819,0.0512 -0.35433,0.14969 v -0.34864 q 0.19327,-0.0739 0.36949,-0.1099 0.17811,-0.0379 0.34485,-0.0379 0.26338,0 0.44907,0.0777 0.18759,0.0777 0.30317,0.23306 0.072,0.0947 0.10232,0.23496 0.0303,0.13832 0.0303,0.41685 z" />
      <path
         id="path6337"
         style="font-size:3.88055563px;stroke-width:0.52916664"
         d="m -205.49432,275.08636 v 0.34107 q -0.14969,-0.0872 -0.30127,-0.13074 -0.15158,-0.0436 -0.30885,-0.0436 -0.23685,0 -0.35433,0.0777 -0.11558,0.0758 -0.11558,0.23306 0,0.14211 0.0872,0.21222 0.0872,0.0701 0.43391,0.13643 l 0.14021,0.0265 q 0.25959,0.0493 0.39223,0.19706 0.13453,0.1478 0.13453,0.38465 0,0.31453 -0.22359,0.49265 -0.22359,0.17621 -0.62149,0.17621 -0.15727,0 -0.3297,-0.0341 -0.17243,-0.0322 -0.37328,-0.0985 v -0.36002 q 0.19517,0.10043 0.37328,0.15159 0.17811,0.0493 0.33727,0.0493 0.23117,0 0.35812,-0.0928 0.12695,-0.0947 0.12695,-0.26338 0,-0.24253 -0.46422,-0.33538 l -0.0152,-0.004 -0.13074,-0.0265 q -0.30128,-0.0587 -0.4396,-0.19706 -0.13832,-0.14021 -0.13832,-0.38085 0,-0.30506 0.20654,-0.46991 0.20653,-0.16674 0.58928,-0.16674 0.17053,0 0.3278,0.0322 0.15727,0.0303 0.30885,0.0928 z" />
      <path
         id="path6339"
         style="font-size:3.88055563px;stroke-width:0.52916664"
         d="m -202.76215,275.08636 v 0.34107 q -0.14969,-0.0872 -0.30128,-0.13074 -0.15158,-0.0436 -0.30885,-0.0436 -0.23685,0 -0.35433,0.0777 -0.11558,0.0758 -0.11558,0.23306 0,0.14211 0.0872,0.21222 0.0872,0.0701 0.43391,0.13643 l 0.14021,0.0265 q 0.25959,0.0493 0.39223,0.19706 0.13453,0.1478 0.13453,0.38465 0,0.31453 -0.22359,0.49265 -0.22358,0.17621 -0.62149,0.17621 -0.15727,0 -0.3297,-0.0341 -0.17242,-0.0322 -0.37327,-0.0985 v -0.36002 q 0.19516,0.10043 0.37327,0.15159 0.17811,0.0493 0.33728,0.0493 0.23116,0 0.35811,-0.0928 0.12696,-0.0947 0.12696,-0.26338 0,-0.24253 -0.46423,-0.33538 l -0.0152,-0.004 -0.13074,-0.0265 q -0.30127,-0.0587 -0.43959,-0.19706 -0.13832,-0.14021 -0.13832,-0.38085 0,-0.30506 0.20653,-0.46991 0.20653,-0.16674 0.58928,-0.16674 0.17053,0 0.3278,0.0322 0.15727,0.0303 0.30886,0.0928 z" />
      <path
         id="path6341"
         style="font-size:3.88055563px;stroke-width:0.52916664"
         d="m -199.76661,275.98639 v 0.17054 h -1.51016 v 0.0114 q 0,0.34675 0.18,0.53623 0.18191,0.18948 0.5116,0.18948 0.16674,0 0.34865,-0.053 0.1819,-0.0531 0.38843,-0.16106 v 0.34675 q -0.19895,0.0815 -0.38465,0.12127 -0.18379,0.0417 -0.35622,0.0417 -0.49454,0 -0.77308,-0.29559 -0.27853,-0.29748 -0.27853,-0.81855 0,-0.50781 0.27285,-0.81098 0.27285,-0.30316 0.7276,-0.30316 0.40549,0 0.63855,0.27474 0.23496,0.27475 0.23496,0.75034 z m -0.34865,-0.10232 q -0.008,-0.30695 -0.1459,-0.46612 -0.13642,-0.16106 -0.39412,-0.16106 -0.25201,0 -0.41496,0.16675 -0.16295,0.16674 -0.19327,0.46233 z" />
      <path
         id="path6343"
         style="font-size:3.88055563px;stroke-width:0.52916664"
         d="m -197.97806,274.40992 v 0.60254 h 0.79202 v 0.27096 h -0.79202 v 1.15204 q 0,0.23496 0.089,0.3278 0.0891,0.0928 0.31075,0.0928 h 0.39222 v 0.27853 h -0.42633 q -0.39222,0 -0.55328,-0.15727 -0.16106,-0.15726 -0.16106,-0.54191 v -1.15204 h -0.56654 v -0.27096 h 0.56654 v -0.60254 z" />
      <path
         id="path6345"
         style="font-size:3.88055563px;stroke-width:0.52916664"
         d="m -195.48275,276.55673 h 0.47749 v 0.57791 h -0.47749 z" />
      <path
         id="path6347"
         style="font-size:3.88055563px;stroke-width:0.52916664"
         d="m -192.9666,276.86748 v 1.07435 h -0.35053 v -2.92937 h 0.35053 v 0.27096 q 0.0872,-0.15727 0.23117,-0.23874 0.1459,-0.0834 0.33538,-0.0834 0.38464,0 0.60255,0.29748 0.21979,0.29748 0.21979,0.82424 0,0.51728 -0.21979,0.81287 -0.2198,0.29369 -0.60255,0.29369 -0.19327,0 -0.33917,-0.0815 -0.144,-0.0834 -0.22738,-0.24064 z m 1.0232,-0.79203 q 0,-0.40549 -0.12885,-0.61202 -0.12695,-0.20654 -0.37896,-0.20654 -0.2539,0 -0.38464,0.20843 -0.13075,0.20654 -0.13075,0.61013 0,0.4017 0.13075,0.61013 0.13074,0.20842 0.38464,0.20842 0.25201,0 0.37896,-0.20653 0.12885,-0.20653 0.12885,-0.61202 z" />
      <path
         id="path6349"
         style="font-size:3.88055563px;stroke-width:0.52916664"
         d="m -189.31925,276.45251 q -0.0872,0.2217 -0.22169,0.5836 -0.18759,0.50023 -0.25201,0.61013 -0.0872,0.14779 -0.2179,0.22169 -0.13074,0.0739 -0.30506,0.0739 h -0.28043 v -0.2918 h 0.20653 q 0.15348,0 0.24064,-0.0891 0.0872,-0.089 0.22169,-0.46043 l -0.82045,-2.08808 h 0.36949 l 0.62907,1.65985 0.6196,-1.65985 h 0.36949 z" />
    </g>
    <path
       style="fill:none;fill-rule:evenodd;stroke:#000000;stroke-width:0.5291667;stroke-linecap:butt;stroke-linejoin:miter;stroke-miterlimit:4;stroke-dasharray:none;stroke-opacity:1;marker-end:url(#marker2504)"
       d="m -281.32645,276.18669 h 24.99718"
       id="path2432" />
    <g
       id="text2436"
       style="font-style:normal;font-variant:normal;font-weight:normal;font-stretch:normal;font-size:3.88055563px;line-height:6.61458302px;font-family:'DejaVu Sans Mono';-inkscape-font-specification:'DejaVu Sans Mono, Normal';font-variant-ligatures:normal;font-variant-position:normal;font-variant-caps:normal;font-variant-numeric:normal;font-variant-alternates:normal;text-indent:0;text-align:center;text-decoration:none;text-decoration-line:none;text-decoration-style:solid;text-decoration-color:#000000;letter-spacing:0.26458332px;word-spacing:0px;text-transform:none;writing-mode:lr-tb;direction:ltr;text-orientation:mixed;dominant-baseline:auto;baseline-shift:baseline;text-anchor:middle;white-space:normal;shape-padding:0;opacity:1;vector-effect:none;fill:#000000;fill-opacity:1;stroke:none;stroke-width:0.52916664;stroke-linecap:butt;stroke-linejoin:miter;stroke-miterlimit:4;stroke-dasharray:none;stroke-dashoffset:0;stroke-opacity:1"
       aria-label="copy
and run">
      <path
         id="path6288"
         style="text-align:center;text-anchor:middle;stroke-width:0.52916664"
         d="m -271.43672,273.92441 q -0.14022,0.0815 -0.28991,0.12126 -0.14779,0.0417 -0.30317,0.0417 -0.49264,0 -0.77118,-0.29559 -0.27664,-0.29559 -0.27664,-0.81855 0,-0.52297 0.27664,-0.81856 0.27854,-0.29559 0.77118,-0.29559 0.15348,0 0.29938,0.0398 0.1459,0.0398 0.2937,0.12316 v 0.3657 q -0.13832,-0.12316 -0.27854,-0.17811 -0.13832,-0.055 -0.31454,-0.055 -0.3278,0 -0.50401,0.21222 -0.17622,0.21222 -0.17622,0.60634 0,0.39222 0.17622,0.60633 0.17811,0.21222 0.50401,0.21222 0.18191,0 0.32591,-0.0549 0.14401,-0.0568 0.26717,-0.17432 z" />
      <path
         id="path6290"
         style="text-align:center;text-anchor:middle;stroke-width:0.52916664"
         d="m -269.68093,272.15466 q -0.26527,0 -0.4017,0.20653 -0.13642,0.20654 -0.13642,0.61203 0,0.40359 0.13642,0.61202 0.13643,0.20653 0.4017,0.20653 0.26717,0 0.40359,-0.20653 0.13643,-0.20843 0.13643,-0.61202 0,-0.40549 -0.13643,-0.61203 -0.13642,-0.20653 -0.40359,-0.20653 z m 0,-0.29559 q 0.44149,0 0.67455,0.28612 0.23496,0.28611 0.23496,0.82803 0,0.5438 -0.23306,0.82992 -0.23307,0.28422 -0.67645,0.28422 -0.44149,0 -0.67455,-0.28422 -0.23306,-0.28612 -0.23306,-0.82992 0,-0.54192 0.23306,-0.82803 0.23306,-0.28612 0.67455,-0.28612 z" />
      <path
         id="path6292"
         style="text-align:center;text-anchor:middle;stroke-width:0.52916664"
         d="m -267.5386,273.76524 v 1.07436 h -0.35053 v -2.92937 h 0.35053 v 0.27096 q 0.0872,-0.15727 0.23117,-0.23875 0.1459,-0.0834 0.33538,-0.0834 0.38464,0 0.60255,0.29749 0.21979,0.29748 0.21979,0.82423 0,0.51729 -0.21979,0.81287 -0.2198,0.2937 -0.60255,0.2937 -0.19327,0 -0.33917,-0.0815 -0.14401,-0.0834 -0.22738,-0.24064 z m 1.0232,-0.79202 q 0,-0.40549 -0.12885,-0.61203 -0.12695,-0.20653 -0.37896,-0.20653 -0.2539,0 -0.38464,0.20843 -0.13075,0.20653 -0.13075,0.61013 0,0.40169 0.13075,0.61012 0.13074,0.20843 0.38464,0.20843 0.25201,0 0.37896,-0.20653 0.12885,-0.20654 0.12885,-0.61202 z" />
      <path
         id="path6294"
         style="text-align:center;text-anchor:middle;stroke-width:0.52916664"
         d="m -264.02443,273.35028 q -0.0872,0.22169 -0.22169,0.5836 -0.18758,0.50023 -0.25201,0.61013 -0.0872,0.14779 -0.2179,0.22169 -0.13074,0.0739 -0.30506,0.0739 h -0.28043 v -0.2918 h 0.20653 q 0.15348,0 0.24064,-0.0891 0.0872,-0.0891 0.22169,-0.46044 l -0.82045,-2.08807 h 0.36949 l 0.62907,1.65985 0.6196,-1.65985 h 0.36949 z" />
      <path
         id="path6296"
         style="text-align:center;text-anchor:middle;stroke-width:0.52916664"
         d="m -276.01543,279.58022 h -0.11558 q -0.30506,0 -0.46044,0.108 -0.15348,0.10611 -0.15348,0.31833 0,0.19137 0.11559,0.29748 0.11558,0.10611 0.32022,0.10611 0.28801,0 0.45286,-0.19895 0.16484,-0.20085 0.16674,-0.55328 v -0.0777 z m 0.67645,-0.14401 v 1.21078 h -0.35054 v -0.31453 q -0.11179,0.18948 -0.28233,0.28043 -0.16863,0.089 -0.41117,0.089 -0.32401,0 -0.51728,-0.1819 -0.19327,-0.18379 -0.19327,-0.49075 0,-0.35433 0.23685,-0.53813 0.23875,-0.18379 0.69918,-0.18379 h 0.46802 v -0.055 q -0.002,-0.25391 -0.12885,-0.36759 -0.12695,-0.11559 -0.40548,-0.11559 -0.17812,0 -0.36002,0.0512 -0.1819,0.0512 -0.35433,0.14969 v -0.34864 q 0.19327,-0.0739 0.36949,-0.1099 0.17811,-0.0379 0.34486,-0.0379 0.26337,0 0.44906,0.0777 0.18759,0.0777 0.30317,0.23306 0.072,0.0947 0.10232,0.23496 0.0303,0.13832 0.0303,0.41685 z" />
      <path
         id="path6298"
         style="text-align:center;text-anchor:middle;stroke-width:0.52916664"
         d="m -272.75516,279.332 v 1.31499 h -0.35054 V 279.332 q 0,-0.28612 -0.10042,-0.42065 -0.10043,-0.13453 -0.31454,-0.13453 -0.24443,0 -0.37707,0.17432 -0.13074,0.17243 -0.13074,0.49644 v 1.19941 h -0.34864 v -2.12218 h 0.34864 v 0.31833 q 0.0929,-0.1819 0.25201,-0.27475 0.15916,-0.0947 0.37707,-0.0947 0.32401,0 0.48317,0.21412 0.16106,0.21221 0.16106,0.64423 z" />
      <path
         id="path6300"
         style="text-align:center;text-anchor:middle;stroke-width:0.52916664"
         d="m -270.52188,278.79577 v -1.09709 h 0.34865 v 2.94831 h -0.34865 v -0.26716 q -0.0872,0.15726 -0.23306,0.24064 -0.144,0.0815 -0.33348,0.0815 -0.38465,0 -0.60634,-0.29748 -0.2198,-0.29938 -0.2198,-0.82424 0,-0.51728 0.2217,-0.81098 0.22169,-0.29559 0.60444,-0.29559 0.19137,0 0.33727,0.0834 0.1459,0.0815 0.22927,0.23874 z m -1.02508,0.79203 q 0,0.40549 0.12884,0.61202 0.12885,0.20653 0.38086,0.20653 0.25201,0 0.38275,-0.20843 0.13263,-0.20842 0.13263,-0.61012 0,-0.40359 -0.13263,-0.61013 -0.13074,-0.20843 -0.38275,-0.20843 -0.25201,0 -0.38086,0.20654 -0.12884,0.20653 -0.12884,0.61202 z" />
      <path
         id="path6302"
         style="text-align:center;text-anchor:middle;stroke-width:0.52916664"
         d="m -264.76116,278.96251 q -0.11179,-0.0872 -0.22738,-0.12695 -0.11558,-0.0398 -0.2539,-0.0398 -0.32591,0 -0.49833,0.20464 -0.17243,0.20464 -0.17243,0.59118 v 1.0554 h -0.35054 v -2.12218 h 0.35054 v 0.41497 q 0.0872,-0.22549 0.26717,-0.34486 0.1819,-0.12127 0.43012,-0.12127 0.12884,0 0.24064,0.0322 0.11179,0.0322 0.21411,0.10042 z" />
      <path
         id="path6304"
         style="text-align:center;text-anchor:middle;stroke-width:0.52916664"
         d="m -263.98119,279.8436 v -1.315 h 0.34864 v 1.315 q 0,0.28611 0.10043,0.42064 0.10232,0.13453 0.31453,0.13453 0.24633,0 0.37707,-0.17242 0.13074,-0.17433 0.13074,-0.49834 v -1.19941 h 0.35054 v 2.11839 h -0.35054 v -0.31832 q -0.0928,0.18379 -0.2539,0.27853 -0.15917,0.0947 -0.37328,0.0947 -0.3259,0 -0.48507,-0.21222 -0.15916,-0.21411 -0.15916,-0.64612 z" />
      <path
         id="path6306"
         style="text-align:center;text-anchor:middle;stroke-width:0.52916664"
         d="m -259.76026,279.332 v 1.31499 h -0.35054 V 279.332 q 0,-0.28612 -0.10042,-0.42065 -0.10043,-0.13453 -0.31454,-0.13453 -0.24443,0 -0.37707,0.17432 -0.13074,0.17243 -0.13074,0.49644 v 1.19941 h -0.34864 v -2.12218 h 0.34864 v 0.31833 q 0.0928,-0.1819 0.25201,-0.27475 0.15917,-0.0947 0.37707,-0.0947 0.32401,0 0.48317,0.21412 0.16106,0.21221 0.16106,0.64423 z" />
    </g>
    <g
       id="text2442"
       style="font-style:normal;font-variant:normal;font-weight:normal;font-stretch:normal;font-size:5.83388996px;line-height:9.9441309px;font-family:'DejaVu Sans Mono';-inkscape-font-specification:'DejaVu Sans Mono, Normal';font-variant-ligatures:normal;font-variant-position:normal;font-variant-caps:normal;font-variant-numeric:normal;font-variant-alternates:normal;text-indent:0;text-align:start;text-decoration:none;text-decoration-line:none;text-decoration-style:solid;text-decoration-color:#000000;letter-spacing:0.39776516px;word-spacing:0px;text-transform:none;writing-mode:lr-tb;direction:ltr;text-orientation:mixed;dominant-baseline:auto;baseline-shift:baseline;text-anchor:start;white-space:normal;shape-padding:0;opacity:1;vector-effect:none;fill:#000000;fill-opacity:1;stroke:none;stroke-width:0.52916664;stroke-linecap:butt;stroke-linejoin:miter;stroke-miterlimit:4;stroke-dasharray:none;stroke-dashoffset:0;stroke-opacity:1"
       transform="scale(0.99919514,1.0008055)"
       aria-label="CALL WEB API">
      <path
         id="path6267"
         style="font-weight:bold;font-size:3.88055563px;stroke-width:0.52916664"
         d="m -168.24025,277.05317 q -0.13263,0.0682 -0.27853,0.10232 -0.1459,0.0341 -0.30696,0.0341 -0.57223,0 -0.8735,-0.37706 -0.30128,-0.37707 -0.30128,-1.08951 0,-0.71434 0.30128,-1.09141 0.30127,-0.37707 0.8735,-0.37707 0.16106,0 0.30885,0.0341 0.1478,0.0341 0.27664,0.10232 v 0.62149 q -0.144,-0.13263 -0.28043,-0.19327 -0.13453,-0.0625 -0.27853,-0.0625 -0.30696,0 -0.46423,0.24443 -0.15537,0.24253 -0.15537,0.72192 0,0.47749 0.15537,0.72192 0.15727,0.24253 0.46423,0.24253 0.144,0 0.27853,-0.0606 0.13643,-0.0625 0.28043,-0.19517 z" />
      <path
         id="path6269"
         style="font-weight:bold;font-size:3.88055563px;stroke-width:0.52916664"
         d="m -166.38917,274.8173 -0.26338,1.15772 h 0.52865 z m -0.34106,-0.5116 h 0.68402 l 0.76361,2.82894 h -0.55897 l -0.17432,-0.69918 h -0.74845 l -0.17053,0.69918 h -0.55897 z" />
      <path
         id="path6271"
         style="font-weight:bold;font-size:3.88055563px;stroke-width:0.52916664"
         d="m -164.39787,277.13464 v -2.82894 h 0.55896 v 2.33629 h 1.19562 v 0.49265 z" />
      <path
         id="path6273"
         style="font-weight:bold;font-size:3.88055563px;stroke-width:0.52916664"
         d="m -161.66571,277.13464 v -2.82894 h 0.55896 v 2.33629 h 1.19562 v 0.49265 z" />
      <path
         id="path6275"
         style="font-weight:bold;font-size:3.88055563px;stroke-width:0.52916664"
         d="m -156.62772,274.3057 h 0.48886 l 0.20274,2.07671 0.24443,-1.34342 h 0.46423 l 0.28422,1.34342 0.15916,-2.07671 h 0.49265 l -0.3259,2.82894 h -0.52107 l -0.32212,-1.48552 -0.30127,1.48552 h -0.51728 z" />
      <path
         id="path6277"
         style="font-weight:bold;font-size:3.88055563px;stroke-width:0.52916664"
         d="m -151.81506,277.13464 h -1.76217 v -2.82894 h 1.76217 v 0.49265 h -1.2032 v 0.61013 h 1.08951 v 0.49265 h -1.08951 v 0.74086 h 1.2032 z" />
      <path
         id="path6279"
         style="font-weight:bold;font-size:3.88055563px;stroke-width:0.52916664"
         d="m -150.38653,275.84997 v 0.8375 h 0.37139 q 0.26716,0 0.37327,-0.091 0.10801,-0.091 0.10801,-0.31643 0,-0.22927 -0.1118,-0.3297 -0.11179,-0.10042 -0.36948,-0.10042 z m 0,-1.10278 v 0.6575 h 0.37139 q 0.21221,0 0.30127,-0.0758 0.0909,-0.0758 0.0909,-0.25012 0,-0.17432 -0.0928,-0.25201 -0.091,-0.0796 -0.29937,-0.0796 z m -0.54001,-0.44528 h 0.9114 q 0.4718,0 0.70865,0.18001 0.23875,0.17811 0.23875,0.53433 0,0.27286 -0.14022,0.42633 -0.14021,0.15348 -0.41117,0.17812 0.32401,0.0322 0.48696,0.2179 0.16485,0.18569 0.16485,0.51917 0,0.40928 -0.24632,0.59308 -0.24633,0.18379 -0.8015,0.18379 h -0.9114 z" />
      <path
         id="path6281"
         style="font-weight:bold;font-size:3.88055563px;stroke-width:0.52916664"
         d="m -144.53187,274.8173 -0.26338,1.15772 h 0.52865 z m -0.34107,-0.5116 h 0.68403 l 0.7636,2.82894 h -0.55896 l -0.17433,-0.69918 h -0.74844 l -0.17053,0.69918 h -0.55897 z" />
      <path
         id="path6283"
         style="font-weight:bold;font-size:3.88055563px;stroke-width:0.52916664"
         d="m -142.10098,274.77561 v 0.82993 h 0.22927 q 0.27474,0 0.38464,-0.0928 0.1118,-0.0928 0.1118,-0.32211 0,-0.22927 -0.1118,-0.32212 -0.1099,-0.0929 -0.38464,-0.0929 z m -0.55897,-0.46991 h 0.7674 q 0.58549,0 0.84129,0.20843 0.25769,0.20843 0.25769,0.67645 0,0.46801 -0.25769,0.67644 -0.2558,0.20843 -0.84129,0.20843 h -0.20843 v 1.05919 h -0.55897 z" />
      <path
         id="path6285"
         style="font-weight:bold;font-size:3.88055563px;stroke-width:0.52916664"
         d="m -139.90884,274.79835 v -0.49265 h 1.68448 v 0.49265 h -0.56276 v 1.84364 h 0.56276 v 0.49265 h -1.68448 v -0.49265 h 0.56276 v -1.84364 z" />
    </g>
    <path
       id="path2566"
       d="m -187.83757,276.18746 h 16.05247"
       style="fill:none;fill-rule:evenodd;stroke:#000000;stroke-width:0.52916676;stroke-linecap:butt;stroke-linejoin:miter;stroke-miterlimit:4;stroke-dasharray:none;stroke-opacity:1;marker-end:url(#marker2570)" />
  </g>
</svg>
