<?xml version="1.0" encoding="UTF-8" standalone="no"?>
<svg
   xmlns:dc="http://purl.org/dc/elements/1.1/"
   xmlns:cc="http://creativecommons.org/ns#"
   xmlns:rdf="http://www.w3.org/1999/02/22-rdf-syntax-ns#"
   xmlns:svg="http://www.w3.org/2000/svg"
   xmlns="http://www.w3.org/2000/svg"
   id="svg7374"
   version="1.1"
   viewBox="0 0 139.7364 43.060909"
   height="43.060909mm"
   width="139.7364mm">
  <defs
     id="defs7368">
    <marker
       style="overflow:visible"
       id="marker3336"
       refX="0"
       refY="0"
       orient="auto">
      <path
         transform="scale(-0.6)"
         d="M 8.7185878,4.0337352 -2.2072895,0.01601326 8.7185884,-4.0017078 c -1.7454984,2.3720609 -1.7354408,5.6174519 -6e-7,8.035443 z"
         style="fill:#000000;fill-opacity:1;fill-rule:evenodd;stroke:#000000;stroke-width:0.625;stroke-linejoin:round;stroke-opacity:1"
         id="path3334" />
    </marker>
    <marker
       orient="auto"
       refY="0"
       refX="0"
       id="marker3526"
       style="overflow:visible">
      <path
         id="path3524"
         style="fill:#000000;fill-opacity:1;fill-rule:evenodd;stroke:#000000;stroke-width:0.625;stroke-linejoin:round;stroke-opacity:1"
         d="M 8.7185878,4.0337352 -2.2072895,0.01601326 8.7185884,-4.0017078 c -1.7454984,2.3720609 -1.7354408,5.6174519 -6e-7,8.035443 z"
         transform="scale(-0.6)" />
    </marker>
  </defs>
  <metadata
     id="metadata7371">
    <rdf:RDF>
      <cc:Work
         rdf:about="">
        <dc:format>image/svg+xml</dc:format>
        <dc:type
           rdf:resource="http://purl.org/dc/dcmitype/StillImage" />
        <dc:title></dc:title>
      </cc:Work>
    </rdf:RDF>
  </metadata>
  <g
     transform="translate(193.84439,-541.56479)"
     id="layer1">
    <g
       id="text3262"
       style="font-style:normal;font-variant:normal;font-weight:normal;font-stretch:normal;font-size:3.88055563px;line-height:6.61458302px;font-family:'DejaVu Sans Mono';-inkscape-font-specification:'DejaVu Sans Mono, Normal';font-variant-ligatures:normal;font-variant-position:normal;font-variant-caps:normal;font-variant-numeric:normal;font-variant-alternates:normal;text-indent:0;text-align:center;text-decoration:none;text-decoration-line:none;text-decoration-style:solid;text-decoration-color:#000000;letter-spacing:0.26458332px;word-spacing:0px;text-transform:none;writing-mode:lr-tb;direction:ltr;text-orientation:mixed;dominant-baseline:auto;baseline-shift:baseline;text-anchor:middle;white-space:normal;shape-padding:0;opacity:1;vector-effect:none;fill:#000000;fill-opacity:1;stroke:none;stroke-width:0.52916664;stroke-linecap:butt;stroke-linejoin:miter;stroke-miterlimit:4;stroke-dasharray:none;stroke-dashoffset:0;stroke-opacity:1"
       aria-label="copy
and run">
      <path
         id="path8130"
         style="text-align:center;text-anchor:middle;stroke-width:0.52916664"
         d="m -188.18755,567.23392 q -0.14021,0.0815 -0.2899,0.12126 -0.1478,0.0417 -0.30317,0.0417 -0.49265,0 -0.77118,-0.29559 -0.27665,-0.29559 -0.27665,-0.81856 0,-0.52296 0.27665,-0.81855 0.27853,-0.29559 0.77118,-0.29559 0.15348,0 0.29938,0.0398 0.1459,0.0398 0.29369,0.12316 v 0.3657 q -0.13832,-0.12316 -0.27853,-0.17811 -0.13832,-0.055 -0.31454,-0.055 -0.3278,0 -0.50402,0.21222 -0.17621,0.21222 -0.17621,0.60633 0,0.39223 0.17621,0.60634 0.17811,0.21222 0.50402,0.21222 0.1819,0 0.32591,-0.0549 0.144,-0.0568 0.26716,-0.17432 z" />
      <path
         id="path8132"
         style="text-align:center;text-anchor:middle;stroke-width:0.52916664"
         d="m -186.43175,565.46417 q -0.26528,0 -0.4017,0.20653 -0.13643,0.20654 -0.13643,0.61202 0,0.4036 0.13643,0.61203 0.13642,0.20653 0.4017,0.20653 0.26716,0 0.40359,-0.20653 0.13643,-0.20843 0.13643,-0.61203 0,-0.40548 -0.13643,-0.61202 -0.13643,-0.20653 -0.40359,-0.20653 z m 0,-0.29559 q 0.44149,0 0.67455,0.28612 0.23495,0.28611 0.23495,0.82802 0,0.54381 -0.23306,0.82993 -0.23306,0.28422 -0.67644,0.28422 -0.44149,0 -0.67455,-0.28422 -0.23306,-0.28612 -0.23306,-0.82993 0,-0.54191 0.23306,-0.82802 0.23306,-0.28612 0.67455,-0.28612 z" />
      <path
         id="path8134"
         style="text-align:center;text-anchor:middle;stroke-width:0.52916664"
         d="m -184.28942,567.07475 v 1.07435 h -0.35054 v -2.92936 h 0.35054 v 0.27096 q 0.0872,-0.15727 0.23117,-0.23875 0.1459,-0.0834 0.33538,-0.0834 0.38464,0 0.60254,0.29748 0.2198,0.29749 0.2198,0.82424 0,0.51728 -0.2198,0.81287 -0.21979,0.2937 -0.60254,0.2937 -0.19327,0 -0.33917,-0.0815 -0.14401,-0.0834 -0.22738,-0.24064 z m 1.02319,-0.79203 q 0,-0.40548 -0.12884,-0.61202 -0.12696,-0.20653 -0.37896,-0.20653 -0.25391,0 -0.38465,0.20843 -0.13074,0.20653 -0.13074,0.61012 0,0.4017 0.13074,0.61013 0.13074,0.20843 0.38465,0.20843 0.252,0 0.37896,-0.20653 0.12884,-0.20654 0.12884,-0.61203 z" />
      <path
         id="path8136"
         style="text-align:center;text-anchor:middle;stroke-width:0.52916664"
         d="m -180.77525,566.65979 q -0.0872,0.22169 -0.22169,0.5836 -0.18759,0.50023 -0.25201,0.61013 -0.0872,0.14779 -0.2179,0.22169 -0.13075,0.0739 -0.30507,0.0739 h -0.28043 v -0.29179 h 0.20654 q 0.15347,0 0.24064,-0.0891 0.0872,-0.0891 0.22169,-0.46044 l -0.82045,-2.08807 h 0.36948 l 0.62908,1.65985 0.6196,-1.65985 h 0.36949 z" />
      <path
         id="path8138"
         style="text-align:center;text-anchor:middle;stroke-width:0.52916664"
         d="m -192.76625,572.88973 h -0.11558 q -0.30507,0 -0.46044,0.108 -0.15348,0.10611 -0.15348,0.31833 0,0.19137 0.11558,0.29748 0.11559,0.10611 0.32023,0.10611 0.28801,0 0.45285,-0.19895 0.16485,-0.20085 0.16675,-0.55328 v -0.0777 z m 0.67644,-0.14401 v 1.21078 h -0.35053 v -0.31454 q -0.1118,0.18949 -0.28233,0.28044 -0.16864,0.089 -0.41117,0.089 -0.32401,0 -0.51728,-0.1819 -0.19327,-0.1838 -0.19327,-0.49075 0,-0.35433 0.23685,-0.53813 0.23874,-0.18379 0.69918,-0.18379 h 0.46802 v -0.055 q -0.002,-0.25391 -0.12885,-0.36759 -0.12695,-0.11559 -0.40549,-0.11559 -0.17811,0 -0.36001,0.0512 -0.1819,0.0512 -0.35433,0.14969 v -0.34864 q 0.19327,-0.0739 0.36949,-0.1099 0.17811,-0.0379 0.34485,-0.0379 0.26338,0 0.44907,0.0777 0.18759,0.0777 0.30317,0.23306 0.072,0.0947 0.10232,0.23496 0.0303,0.13832 0.0303,0.41685 z" />
      <path
         id="path8140"
         style="text-align:center;text-anchor:middle;stroke-width:0.52916664"
         d="m -189.50598,572.64151 v 1.31499 h -0.35054 v -1.31499 q 0,-0.28612 -0.10043,-0.42065 -0.10042,-0.13453 -0.31453,-0.13453 -0.24443,0 -0.37707,0.17432 -0.13074,0.17243 -0.13074,0.49644 v 1.19941 h -0.34865 v -2.12218 h 0.34865 v 0.31833 q 0.0928,-0.1819 0.25201,-0.27475 0.15916,-0.0947 0.37706,-0.0947 0.32401,0 0.48318,0.21412 0.16106,0.21221 0.16106,0.64423 z" />
      <path
         id="path8142"
         style="text-align:center;text-anchor:middle;stroke-width:0.52916664"
         d="m -187.2727,572.10528 v -1.09709 h 0.34864 v 2.94831 h -0.34864 v -0.26717 q -0.0872,0.15727 -0.23306,0.24064 -0.14401,0.0815 -0.33349,0.0815 -0.38464,0 -0.60633,-0.29748 -0.2198,-0.29938 -0.2198,-0.82424 0,-0.51728 0.22169,-0.81098 0.22169,-0.29559 0.60444,-0.29559 0.19138,0 0.33728,0.0834 0.1459,0.0815 0.22927,0.23875 z m -1.02509,0.79203 q 0,0.40549 0.12885,0.61202 0.12884,0.20653 0.38085,0.20653 0.25201,0 0.38275,-0.20843 0.13264,-0.20842 0.13264,-0.61012 0,-0.4036 -0.13264,-0.61013 -0.13074,-0.20843 -0.38275,-0.20843 -0.25201,0 -0.38085,0.20654 -0.12885,0.20653 -0.12885,0.61202 z" />
      <path
         id="path8144"
         style="text-align:center;text-anchor:middle;stroke-width:0.52916664"
         d="m -181.51198,572.27202 q -0.1118,-0.0872 -0.22738,-0.12695 -0.11558,-0.0398 -0.2539,-0.0398 -0.32591,0 -0.49834,0.20464 -0.17242,0.20464 -0.17242,0.59118 v 1.0554 h -0.35054 v -2.12218 h 0.35054 v 0.41497 q 0.0872,-0.22549 0.26716,-0.34486 0.1819,-0.12127 0.43012,-0.12127 0.12885,0 0.24064,0.0322 0.1118,0.0322 0.21412,0.10042 z" />
      <path
         id="path8146"
         style="text-align:center;text-anchor:middle;stroke-width:0.52916664"
         d="m -180.73201,573.15311 v -1.315 h 0.34864 v 1.315 q 0,0.28611 0.10042,0.42064 0.10232,0.13453 0.31454,0.13453 0.24633,0 0.37707,-0.17242 0.13074,-0.17433 0.13074,-0.49834 v -1.19941 h 0.35054 v 2.11839 h -0.35054 v -0.31832 q -0.0928,0.18379 -0.25391,0.27853 -0.15916,0.0947 -0.37327,0.0947 -0.32591,0 -0.48507,-0.21222 -0.15916,-0.21411 -0.15916,-0.64612 z" />
      <path
         id="path8148"
         style="text-align:center;text-anchor:middle;stroke-width:0.52916664"
         d="m -176.51108,572.64151 v 1.31499 h -0.35054 v -1.31499 q 0,-0.28612 -0.10043,-0.42065 -0.10042,-0.13453 -0.31453,-0.13453 -0.24443,0 -0.37707,0.17432 -0.13074,0.17243 -0.13074,0.49644 v 1.19941 h -0.34864 v -2.12218 h 0.34864 v 0.31833 q 0.0928,-0.1819 0.25201,-0.27475 0.15916,-0.0947 0.37706,-0.0947 0.32401,0 0.48318,0.21412 0.16106,0.21221 0.16106,0.64423 z" />
    </g>
    <path
       id="path3289"
       d="m -98.101,553.42218 h -70.96723 v 30.80664 H -98.101 Z"
       style="color:#000000;clip-rule:nonzero;display:inline;overflow:visible;visibility:visible;opacity:1;isolation:auto;mix-blend-mode:normal;color-interpolation:sRGB;color-interpolation-filters:linearRGB;solid-color:#000000;solid-opacity:1;vector-effect:none;fill:#ffffff;fill-opacity:1;fill-rule:nonzero;stroke:#000000;stroke-width:0.79375005;stroke-linecap:butt;stroke-linejoin:miter;stroke-miterlimit:4;stroke-dasharray:none;stroke-dashoffset:0;stroke-opacity:1;color-rendering:auto;image-rendering:auto;shape-rendering:auto;text-rendering:auto;enable-background:accumulate" />
    <path
       id="path3291"
       d="m -169.06823,541.96166 v 11.46052 H -98.101 v -11.46052 z"
       style="color:#000000;clip-rule:nonzero;display:inline;overflow:visible;visibility:visible;opacity:1;isolation:auto;mix-blend-mode:normal;color-interpolation:sRGB;color-interpolation-filters:linearRGB;solid-color:#000000;solid-opacity:1;vector-effect:none;fill:#eeeeec;fill-opacity:1;fill-rule:nonzero;stroke:#000000;stroke-width:0.79374999;stroke-linecap:butt;stroke-linejoin:miter;stroke-miterlimit:4;stroke-dasharray:none;stroke-dashoffset:0;stroke-opacity:1;color-rendering:auto;image-rendering:auto;shape-rendering:auto;text-rendering:auto;enable-background:accumulate" />
    <g
       id="text3295"
       style="font-style:normal;font-variant:normal;font-weight:normal;font-stretch:normal;font-size:5.83388996px;line-height:9.94412994px;font-family:'DejaVu Sans Mono';-inkscape-font-specification:'DejaVu Sans Mono, Normal';font-variant-ligatures:normal;font-variant-position:normal;font-variant-caps:normal;font-variant-numeric:normal;font-variant-alternates:normal;text-indent:0;text-align:start;text-decoration:none;text-decoration-line:none;text-decoration-style:solid;text-decoration-color:#000000;letter-spacing:0.39776519px;word-spacing:0px;text-transform:none;writing-mode:lr-tb;direction:ltr;text-orientation:mixed;dominant-baseline:auto;baseline-shift:baseline;text-anchor:start;white-space:normal;shape-padding:0;opacity:1;vector-effect:none;fill:#000000;fill-opacity:1;stroke:none;stroke-width:0.52916664;stroke-linecap:butt;stroke-linejoin:miter;stroke-miterlimit:4;stroke-dasharray:none;stroke-dashoffset:0;stroke-opacity:1"
       transform="scale(0.99919514,1.0008055)"
       aria-label="Control node">
      <path
         id="path8107"
         style="font-size:5.64444447px;stroke-width:0.52916664"
         d="m -163.90697,549.47069 q -0.21222,0.113 -0.43546,0.16812 -0.22324,0.0579 -0.47405,0.0579 -0.79099,0 -1.22921,-0.55949 -0.43546,-0.55948 -0.43546,-1.57372 0,-1.00872 0.43822,-1.57096 0.44097,-0.565 1.22645,-0.565 0.25081,0 0.47405,0.0579 0.22324,0.0551 0.43546,0.16812 v 0.57051 q -0.20395,-0.16812 -0.43822,-0.25631 -0.23427,-0.0882 -0.47129,-0.0882 -0.54294,0 -0.81304,0.41892 -0.2701,0.41893 -0.2701,1.26504 0,0.84336 0.2701,1.26229 0.2701,0.41892 0.81304,0.41892 0.24254,0 0.47405,-0.0882 0.23426,-0.0882 0.43546,-0.25632 z" />
      <path
         id="path8109"
         style="font-size:5.64444447px;stroke-width:0.52916664"
         d="m -161.37325,546.88549 q -0.38585,0 -0.58429,0.30041 -0.19843,0.30041 -0.19843,0.89021 0,0.58705 0.19843,0.89022 0.19844,0.30041 0.58429,0.30041 0.38861,0 0.58705,-0.30041 0.19843,-0.30317 0.19843,-0.89022 0,-0.5898 -0.19843,-0.89021 -0.19844,-0.30041 -0.58705,-0.30041 z m 0,-0.42995 q 0.64217,0 0.98116,0.41617 0.34176,0.41617 0.34176,1.2044 0,0.791 -0.339,1.20717 -0.339,0.41341 -0.98392,0.41341 -0.64216,0 -0.98116,-0.41341 -0.339,-0.41617 -0.339,-1.20717 0,-0.78823 0.339,-1.2044 0.339,-0.41617 0.98116,-0.41617 z" />
      <path
         id="path8111"
         style="font-size:5.64444447px;stroke-width:0.52916664"
         d="m -156.3811,547.70404 v 1.91272 h -0.50988 v -1.91272 q 0,-0.41616 -0.14607,-0.61185 -0.14607,-0.19568 -0.45751,-0.19568 -0.35553,0 -0.54846,0.25356 -0.19017,0.2508 -0.19017,0.72209 v 1.7446 h -0.50712 v -3.08681 h 0.50712 v 0.46303 q 0.13505,-0.26459 0.36656,-0.39964 0.23151,-0.1378 0.54846,-0.1378 0.47129,0 0.7028,0.31144 0.23427,0.30868 0.23427,0.93706 z" />
      <path
         id="path8113"
         style="font-size:5.64444447px;stroke-width:0.52916664"
         d="m -153.79226,545.65352 v 0.87643 h 1.15204 v 0.39412 h -1.15204 v 1.6757 q 0,0.34175 0.12954,0.4768 0.12953,0.13505 0.45199,0.13505 h 0.57051 v 0.40514 h -0.62011 q -0.57051,0 -0.80478,-0.22875 -0.23427,-0.22876 -0.23427,-0.78824 v -1.6757 h -0.82406 v -0.39412 h 0.82406 v -0.87643 z" />
      <path
         id="path8115"
         style="font-size:5.64444447px;stroke-width:0.52916664"
         d="m -148.50797,547.16661 q -0.16261,-0.12678 -0.33073,-0.18466 -0.16812,-0.0579 -0.36931,-0.0579 -0.47405,0 -0.72485,0.29766 -0.2508,0.29766 -0.2508,0.8599 v 1.53513 h -0.50988 v -3.08681 h 0.50988 v 0.60359 q 0.12678,-0.32798 0.3886,-0.50161 0.26459,-0.17639 0.62563,-0.17639 0.18742,0 0.35002,0.0468 0.16261,0.0469 0.31144,0.14608 z" />
      <path
         id="path8117"
         style="font-size:5.64444447px;stroke-width:0.52916664"
         d="m -146.20024,546.88549 q -0.38585,0 -0.58429,0.30041 -0.19844,0.30041 -0.19844,0.89021 0,0.58705 0.19844,0.89022 0.19844,0.30041 0.58429,0.30041 0.3886,0 0.58704,-0.30041 0.19844,-0.30317 0.19844,-0.89022 0,-0.5898 -0.19844,-0.89021 -0.19844,-0.30041 -0.58704,-0.30041 z m 0,-0.42995 q 0.64216,0 0.98116,0.41617 0.34175,0.41617 0.34175,1.2044 0,0.791 -0.33899,1.20717 -0.339,0.41341 -0.98392,0.41341 -0.64217,0 -0.98117,-0.41341 -0.33899,-0.41617 -0.33899,-1.20717 0,-0.78823 0.33899,-1.2044 0.339,-0.41617 0.98117,-0.41617 z" />
      <path
         id="path8119"
         style="font-size:5.64444447px;stroke-width:0.52916664"
         d="m -142.3436,548.49779 q 0,0.34176 0.12402,0.51539 0.12678,0.17363 0.37207,0.17363 h 0.59256 v 0.42995 h -0.64217 q -0.45475,0 -0.70555,-0.29214 -0.24805,-0.29215 -0.24805,-0.82683 v -2.80293 h -0.81304 v -0.39687 h 1.32016 z" />
      <path
         id="path8121"
         style="font-size:5.64444447px;stroke-width:0.52916664"
         d="m -133.6216,547.70404 v 1.91272 h -0.50987 v -1.91272 q 0,-0.41616 -0.14607,-0.61185 -0.14607,-0.19568 -0.45751,-0.19568 -0.35553,0 -0.54846,0.25356 -0.19017,0.2508 -0.19017,0.72209 v 1.7446 h -0.50712 v -3.08681 h 0.50712 v 0.46303 q 0.13505,-0.26459 0.36656,-0.39964 0.23151,-0.1378 0.54846,-0.1378 0.47129,0 0.7028,0.31144 0.23426,0.30868 0.23426,0.93706 z" />
      <path
         id="path8123"
         style="font-size:5.64444447px;stroke-width:0.52916664"
         d="m -131.02724,546.88549 q -0.38585,0 -0.58428,0.30041 -0.19844,0.30041 -0.19844,0.89021 0,0.58705 0.19844,0.89022 0.19843,0.30041 0.58428,0.30041 0.38861,0 0.58705,-0.30041 0.19844,-0.30317 0.19844,-0.89022 0,-0.5898 -0.19844,-0.89021 -0.19844,-0.30041 -0.58705,-0.30041 z m 0,-0.42995 q 0.64217,0 0.98117,0.41617 0.34175,0.41617 0.34175,1.2044 0,0.791 -0.339,1.20717 -0.33899,0.41341 -0.98392,0.41341 -0.64216,0 -0.98116,-0.41341 -0.339,-0.41617 -0.339,-1.20717 0,-0.78823 0.339,-1.2044 0.339,-0.41617 0.98116,-0.41617 z" />
      <path
         id="path8125"
         style="font-size:5.64444447px;stroke-width:0.52916664"
         d="m -126.56701,546.92407 v -1.59576 h 0.50711 v 4.28845 h -0.50711 v -0.38861 q -0.12678,0.22876 -0.339,0.35003 -0.20946,0.11851 -0.48507,0.11851 -0.55949,0 -0.88195,-0.43271 -0.3197,-0.43546 -0.3197,-1.19889 0,-0.75241 0.32246,-1.1796 0.32246,-0.42995 0.87919,-0.42995 0.27836,0 0.49058,0.12127 0.21222,0.11851 0.33349,0.34726 z m -1.49104,1.15204 q 0,0.5898 0.18741,0.89022 0.18741,0.30041 0.55397,0.30041 0.36656,0 0.55673,-0.30317 0.19293,-0.30317 0.19293,-0.88746 0,-0.58704 -0.19293,-0.88745 -0.19017,-0.30317 -0.55673,-0.30317 -0.36656,0 -0.55397,0.30041 -0.18741,0.30041 -0.18741,0.89021 z" />
      <path
         id="path8127"
         style="font-size:5.64444447px;stroke-width:0.52916664"
         d="m -122.07372,547.94658 v 0.24804 h -2.19659 v 0.0165 q 0,0.50436 0.26182,0.77997 0.26459,0.27561 0.74414,0.27561 0.24254,0 0.50712,-0.0772 0.26459,-0.0772 0.565,-0.23427 v 0.50436 q -0.28939,0.11852 -0.55949,0.17639 -0.26733,0.0606 -0.51814,0.0606 -0.71933,0 -1.12448,-0.42995 -0.40514,-0.43271 -0.40514,-1.19063 0,-0.73862 0.39688,-1.1796 0.39687,-0.44097 1.05833,-0.44097 0.5898,0 0.9288,0.39963 0.34175,0.39963 0.34175,1.09141 z m -0.50712,-0.14883 q -0.011,-0.44648 -0.21222,-0.67799 -0.19843,-0.23427 -0.57326,-0.23427 -0.36656,0 -0.60358,0.24253 -0.23702,0.24254 -0.28112,0.67249 z" />
    </g>
    <g
       id="text3299"
       style="font-style:normal;font-variant:normal;font-weight:normal;font-stretch:normal;font-size:5.83388996px;line-height:9.9441309px;font-family:'DejaVu Sans Mono';-inkscape-font-specification:'DejaVu Sans Mono, Normal';font-variant-ligatures:normal;font-variant-position:normal;font-variant-caps:normal;font-variant-numeric:normal;font-variant-alternates:normal;text-indent:0;text-align:start;text-decoration:none;text-decoration-line:none;text-decoration-style:solid;text-decoration-color:#000000;letter-spacing:0.39776519px;word-spacing:0px;text-transform:none;writing-mode:lr-tb;direction:ltr;text-orientation:mixed;dominant-baseline:auto;baseline-shift:baseline;text-anchor:start;white-space:normal;shape-padding:0;opacity:1;vector-effect:none;fill:#000000;fill-opacity:1;stroke:none;stroke-width:0.52916664;stroke-linecap:butt;stroke-linejoin:miter;stroke-miterlimit:4;stroke-dasharray:none;stroke-dashoffset:0;stroke-opacity:1"
       transform="scale(0.99919514,1.0008055)"
       aria-label="$ ansible-playbook ...">
      <path
         id="path8066"
         style="font-size:3.88055563px;stroke-width:0.52916664"
         d="m -164.07059,562.31099 v 0.82234 q 0.20843,-0.006 0.32591,-0.11558 0.11748,-0.1099 0.11748,-0.29938 0,-0.17622 -0.10611,-0.27285 -0.10611,-0.0985 -0.33728,-0.13453 z m -0.18948,-0.36001 v -0.78256 q -0.19706,0.008 -0.30885,0.11369 -0.1099,0.10611 -0.1099,0.28422 0,0.16295 0.10232,0.25769 0.10422,0.0947 0.31643,0.12696 z m 0.18948,2.02933 h -0.18948 l -0.002,-0.57034 q -0.19327,-0.009 -0.38465,-0.0531 -0.18948,-0.0436 -0.37517,-0.12127 v -0.34106 q 0.18948,0.11747 0.38086,0.18 0.19327,0.0625 0.38085,0.0663 v -0.86782 q -0.37896,-0.0587 -0.57033,-0.23116 -0.19138,-0.17243 -0.19138,-0.45665 0,-0.29749 0.19896,-0.4737 0.20085,-0.17811 0.56275,-0.20464 v -0.44528 h 0.18948 l 0.002,0.44528 q 0.14969,0.009 0.30317,0.0379 0.15348,0.0284 0.31264,0.0777 v 0.3278 q -0.16106,-0.0815 -0.31454,-0.12505 -0.15158,-0.0455 -0.30317,-0.0531 v 0.81666 q 0.39033,0.0587 0.59497,0.24254 0.20464,0.18379 0.20464,0.47559 0,0.2918 -0.22169,0.48697 -0.2198,0.19516 -0.57602,0.21221 z" />
      <path
         id="path8068"
         style="font-size:3.88055563px;stroke-width:0.52916664"
         d="m -158.58731,562.3432 h -0.11559 q -0.30506,0 -0.46043,0.108 -0.15348,0.10611 -0.15348,0.31833 0,0.19137 0.11558,0.29748 0.11558,0.10611 0.32022,0.10611 0.28801,0 0.45286,-0.19895 0.16485,-0.20085 0.16674,-0.55328 v -0.0777 z m 0.67644,-0.14401 v 1.21078 h -0.35054 v -0.31453 q -0.11179,0.18948 -0.28232,0.28043 -0.16864,0.0891 -0.41118,0.0891 -0.32401,0 -0.51728,-0.1819 -0.19327,-0.18379 -0.19327,-0.49075 0,-0.35433 0.23685,-0.53813 0.23875,-0.18379 0.69919,-0.18379 h 0.46801 v -0.0549 q -0.002,-0.25391 -0.12885,-0.36759 -0.12695,-0.11559 -0.40548,-0.11559 -0.17811,0 -0.36002,0.0512 -0.1819,0.0512 -0.35432,0.14969 v -0.34864 q 0.19327,-0.0739 0.36948,-0.1099 0.17811,-0.0379 0.34486,-0.0379 0.26337,0 0.44907,0.0777 0.18758,0.0777 0.30316,0.23306 0.072,0.0947 0.10232,0.23496 0.0303,0.13832 0.0303,0.41685 z" />
      <path
         id="path8070"
         style="font-size:3.88055563px;stroke-width:0.52916664"
         d="m -155.19387,562.09498 v 1.31499 h -0.35053 v -1.31499 q 0,-0.28612 -0.10043,-0.42065 -0.10042,-0.13453 -0.31454,-0.13453 -0.24443,0 -0.37706,0.17432 -0.13074,0.17243 -0.13074,0.49644 v 1.19941 h -0.34865 v -2.12218 h 0.34865 v 0.31833 q 0.0928,-0.1819 0.25201,-0.27475 0.15916,-0.0947 0.37706,-0.0947 0.32401,0 0.48318,0.21412 0.16105,0.21222 0.16105,0.64423 z" />
      <path
         id="path8072"
         style="font-size:3.88055563px;stroke-width:0.52916664"
         d="m -152.6095,561.36169 v 0.34107 q -0.14969,-0.0872 -0.30127,-0.13075 -0.15159,-0.0436 -0.30886,-0.0436 -0.23685,0 -0.35432,0.0777 -0.11559,0.0758 -0.11559,0.23306 0,0.14211 0.0872,0.21222 0.0872,0.0701 0.43391,0.13643 l 0.14022,0.0265 q 0.25959,0.0493 0.39222,0.19706 0.13453,0.1478 0.13453,0.38465 0,0.31453 -0.22358,0.49265 -0.22359,0.17621 -0.6215,0.17621 -0.15727,0 -0.32969,-0.0341 -0.17243,-0.0322 -0.37328,-0.0985 v -0.36002 q 0.19517,0.10043 0.37328,0.15159 0.17811,0.0493 0.33727,0.0493 0.23117,0 0.35812,-0.0928 0.12695,-0.0947 0.12695,-0.26338 0,-0.24253 -0.46423,-0.33538 l -0.0152,-0.004 -0.13075,-0.0265 q -0.30127,-0.0587 -0.43959,-0.19706 -0.13832,-0.14021 -0.13832,-0.38085 0,-0.30506 0.20653,-0.46991 0.20654,-0.16675 0.58929,-0.16675 0.17053,0 0.3278,0.0322 0.15727,0.0303 0.30885,0.0928 z" />
      <path
         id="path8074"
         style="font-size:3.88055563px;stroke-width:0.52916664"
         d="m -151.23591,561.28779 h 0.89245 v 1.85123 h 0.6916 v 0.27095 h -1.73184 v -0.27095 h 0.6916 v -1.58027 h -0.54381 z m 0.54381,-0.82613 h 0.34864 v 0.44149 h -0.34864 z" />
      <path
         id="path8076"
         style="font-size:3.88055563px;stroke-width:0.52916664"
         d="m -147.24939,562.35078 q 0,-0.40549 -0.12885,-0.61202 -0.12884,-0.20654 -0.38085,-0.20654 -0.2539,0 -0.38465,0.20843 -0.13074,0.20654 -0.13074,0.61013 0,0.4017 0.13074,0.61012 0.13075,0.20843 0.38465,0.20843 0.25201,0 0.38085,-0.20653 0.12885,-0.20653 0.12885,-0.61202 z m -1.02509,-0.79203 q 0.0834,-0.15537 0.22927,-0.23874 0.1478,-0.0834 0.34107,-0.0834 0.38275,0 0.60255,0.29559 0.21979,0.2937 0.21979,0.81098 0,0.52486 -0.22169,0.82424 -0.2198,0.29748 -0.60444,0.29748 -0.18948,0 -0.33538,-0.0815 -0.14401,-0.0834 -0.23117,-0.24064 v 0.26716 h -0.34864 v -2.94831 h 0.34864 z" />
      <path
         id="path8078"
         style="font-size:3.88055563px;stroke-width:0.52916664"
         d="m -145.04588,562.64068 q 0,0.23496 0.0853,0.35433 0.0872,0.11937 0.2558,0.11937 h 0.40738 v 0.29559 h -0.44149 q -0.31264,0 -0.48507,-0.20085 -0.17053,-0.20084 -0.17053,-0.56844 v -1.92701 h -0.55897 v -0.27285 h 0.90761 z" />
      <path
         id="path8080"
         style="font-size:3.88055563px;stroke-width:0.52916664"
         d="m -141.41747,562.26172 v 0.17054 h -1.51016 v 0.0114 q 0,0.34675 0.18,0.53623 0.18191,0.18948 0.5116,0.18948 0.16674,0 0.34865,-0.053 0.1819,-0.0531 0.38843,-0.16106 v 0.34675 q -0.19895,0.0815 -0.38465,0.12127 -0.18379,0.0417 -0.35622,0.0417 -0.49454,0 -0.77308,-0.29559 -0.27853,-0.29748 -0.27853,-0.81855 0,-0.50781 0.27285,-0.81098 0.27285,-0.30317 0.7276,-0.30317 0.40549,0 0.63855,0.27475 0.23496,0.27475 0.23496,0.75034 z m -0.34865,-0.10232 q -0.008,-0.30695 -0.1459,-0.46612 -0.13642,-0.16106 -0.39412,-0.16106 -0.252,0 -0.41496,0.16675 -0.16295,0.16674 -0.19327,0.46233 z" />
      <path
         id="path8082"
         style="font-size:3.88055563px;stroke-width:0.52916664"
         d="m -140.11778,562.19162 h 0.98719 v 0.31074 h -0.98719 z" />
      <path
         id="path8084"
         style="font-size:3.88055563px;stroke-width:0.52916664"
         d="m -137.34962,563.14281 v 1.07435 h -0.35054 v -2.92937 h 0.35054 v 0.27096 q 0.0872,-0.15727 0.23117,-0.23874 0.1459,-0.0834 0.33538,-0.0834 0.38464,0 0.60254,0.29749 0.2198,0.29748 0.2198,0.82424 0,0.51728 -0.2198,0.81287 -0.21979,0.29369 -0.60254,0.29369 -0.19327,0 -0.33917,-0.0815 -0.14401,-0.0834 -0.22738,-0.24064 z m 1.0232,-0.79203 q 0,-0.40549 -0.12885,-0.61202 -0.12695,-0.20654 -0.37896,-0.20654 -0.25391,0 -0.38465,0.20843 -0.13074,0.20654 -0.13074,0.61013 0,0.4017 0.13074,0.61012 0.13074,0.20843 0.38465,0.20843 0.25201,0 0.37896,-0.20653 0.12885,-0.20653 0.12885,-0.61202 z" />
      <path
         id="path8086"
         style="font-size:3.88055563px;stroke-width:0.52916664"
         d="m -134.11723,562.64068 q 0,0.23496 0.0853,0.35433 0.0872,0.11937 0.25579,0.11937 h 0.40739 v 0.29559 h -0.44149 q -0.31264,0 -0.48507,-0.20085 -0.17053,-0.20084 -0.17053,-0.56844 v -1.92701 h -0.55897 v -0.27285 h 0.90761 z" />
      <path
         id="path8088"
         style="font-size:3.88055563px;stroke-width:0.52916664"
         d="m -131.26569,562.3432 h -0.11559 q -0.30506,0 -0.46043,0.108 -0.15348,0.10611 -0.15348,0.31833 0,0.19137 0.11558,0.29748 0.11558,0.10611 0.32022,0.10611 0.28801,0 0.45286,-0.19895 0.16485,-0.20085 0.16674,-0.55328 v -0.0777 z m 0.67644,-0.14401 v 1.21078 h -0.35054 v -0.31453 q -0.11179,0.18948 -0.28232,0.28043 -0.16864,0.0891 -0.41117,0.0891 -0.32402,0 -0.51729,-0.1819 -0.19327,-0.18379 -0.19327,-0.49075 0,-0.35433 0.23685,-0.53813 0.23875,-0.18379 0.69919,-0.18379 h 0.46801 v -0.0549 q -0.002,-0.25391 -0.12884,-0.36759 -0.12696,-0.11559 -0.40549,-0.11559 -0.17811,0 -0.36001,0.0512 -0.1819,0.0512 -0.35433,0.14969 v -0.34864 q 0.19327,-0.0739 0.36948,-0.1099 0.17812,-0.0379 0.34486,-0.0379 0.26338,0 0.44907,0.0777 0.18758,0.0777 0.30317,0.23306 0.072,0.0947 0.10231,0.23496 0.0303,0.13832 0.0303,0.41685 z" />
      <path
         id="path8090"
         style="font-size:3.88055563px;stroke-width:0.52916664"
         d="m -128.23795,562.72784 q -0.0872,0.2217 -0.22169,0.5836 -0.18758,0.50023 -0.25201,0.61013 -0.0872,0.14779 -0.2179,0.22169 -0.13074,0.0739 -0.30506,0.0739 h -0.28043 v -0.2918 h 0.20653 q 0.15348,0 0.24064,-0.0891 0.0872,-0.0891 0.22169,-0.46043 l -0.82045,-2.08808 h 0.36949 l 0.62907,1.65985 0.61961,-1.65985 h 0.36948 z" />
      <path
         id="path8092"
         style="font-size:3.88055563px;stroke-width:0.52916664"
         d="m -125.39209,562.35078 q 0,-0.40549 -0.12885,-0.61202 -0.12885,-0.20654 -0.38086,-0.20654 -0.2539,0 -0.38464,0.20843 -0.13074,0.20654 -0.13074,0.61013 0,0.4017 0.13074,0.61012 0.13074,0.20843 0.38464,0.20843 0.25201,0 0.38086,-0.20653 0.12885,-0.20653 0.12885,-0.61202 z m -1.02509,-0.79203 q 0.0834,-0.15537 0.22927,-0.23874 0.14779,-0.0834 0.34106,-0.0834 0.38275,0 0.60255,0.29559 0.2198,0.2937 0.2198,0.81098 0,0.52486 -0.22169,0.82424 -0.2198,0.29748 -0.60445,0.29748 -0.18948,0 -0.33538,-0.0815 -0.144,-0.0834 -0.23116,-0.24064 v 0.26716 h -0.34865 v -2.94831 h 0.34865 z" />
      <path
         id="path8094"
         style="font-size:3.88055563px;stroke-width:0.52916664"
         d="m -123.23216,561.53222 q -0.26527,0 -0.4017,0.20654 -0.13643,0.20653 -0.13643,0.61202 0,0.40359 0.13643,0.61202 0.13643,0.20653 0.4017,0.20653 0.26716,0 0.40359,-0.20653 0.13643,-0.20843 0.13643,-0.61202 0,-0.40549 -0.13643,-0.61202 -0.13643,-0.20654 -0.40359,-0.20654 z m 0,-0.29559 q 0.44149,0 0.67455,0.28612 0.23495,0.28611 0.23495,0.82803 0,0.54381 -0.23306,0.82992 -0.23306,0.28422 -0.67644,0.28422 -0.44149,0 -0.67455,-0.28422 -0.23306,-0.28611 -0.23306,-0.82992 0,-0.54192 0.23306,-0.82803 0.23306,-0.28612 0.67455,-0.28612 z" />
      <path
         id="path8096"
         style="font-size:3.88055563px;stroke-width:0.52916664"
         d="m -120.5,561.53222 q -0.26527,0 -0.4017,0.20654 -0.13642,0.20653 -0.13642,0.61202 0,0.40359 0.13642,0.61202 0.13643,0.20653 0.4017,0.20653 0.26717,0 0.40359,-0.20653 0.13643,-0.20843 0.13643,-0.61202 0,-0.40549 -0.13643,-0.61202 -0.13642,-0.20654 -0.40359,-0.20654 z m 0,-0.29559 q 0.44149,0 0.67455,0.28612 0.23496,0.28611 0.23496,0.82803 0,0.54381 -0.23307,0.82992 -0.23306,0.28422 -0.67644,0.28422 -0.44149,0 -0.67455,-0.28422 -0.23306,-0.28611 -0.23306,-0.82992 0,-0.54192 0.23306,-0.82803 0.23306,-0.28612 0.67455,-0.28612 z" />
      <path
         id="path8098"
         style="font-size:3.88055563px;stroke-width:0.52916664"
         d="m -118.48786,560.46166 h 0.36001 v 1.70722 l 0.91519,-0.88109 h 0.42444 l -0.83561,0.79961 0.96635,1.32257 h -0.42633 l -0.78445,-1.09519 -0.25959,0.24443 v 0.85076 h -0.36001 z" />
      <path
         id="path8100"
         style="font-size:3.88055563px;stroke-width:0.52916664"
         d="m -112.54415,562.83206 h 0.47749 v 0.57791 h -0.47749 z" />
      <path
         id="path8102"
         style="font-size:3.88055563px;stroke-width:0.52916664"
         d="m -109.81199,562.83206 h 0.47749 v 0.57791 h -0.47749 z" />
      <path
         id="path8104"
         style="font-size:3.88055563px;stroke-width:0.52916664"
         d="m -107.07983,562.83206 h 0.47749 v 0.57791 h -0.47749 z" />
    </g>
    <g
       id="text2430-2"
       style="font-style:normal;font-variant:normal;font-weight:normal;font-stretch:normal;font-size:5.83388996px;line-height:9.9441309px;font-family:'DejaVu Sans Mono';-inkscape-font-specification:'DejaVu Sans Mono, Normal';font-variant-ligatures:normal;font-variant-position:normal;font-variant-caps:normal;font-variant-numeric:normal;font-variant-alternates:normal;text-indent:0;text-align:start;text-decoration:none;text-decoration-line:none;text-decoration-style:solid;text-decoration-color:#000000;letter-spacing:0.39776516px;word-spacing:0px;text-transform:none;writing-mode:lr-tb;direction:ltr;text-orientation:mixed;dominant-baseline:auto;baseline-shift:baseline;text-anchor:start;white-space:normal;shape-padding:0;opacity:1;vector-effect:none;fill:#000000;fill-opacity:1;stroke:none;stroke-width:0.52916664;stroke-linecap:butt;stroke-linejoin:miter;stroke-miterlimit:4;stroke-dasharray:none;stroke-dashoffset:0;stroke-opacity:1"
       transform="scale(0.99919514,1.0008055)"
       aria-label="$ ./AnsiballZ_asset.py">
      <path
         id="path8023"
         style="font-size:3.88055563px;stroke-width:0.52916664"
         d="m -164.07059,577.03322 v 0.82234 q 0.20843,-0.006 0.32591,-0.11558 0.11748,-0.1099 0.11748,-0.29938 0,-0.17622 -0.10611,-0.27285 -0.10611,-0.0985 -0.33728,-0.13453 z m -0.18948,-0.36002 v -0.78255 q -0.19706,0.008 -0.30885,0.11369 -0.1099,0.10611 -0.1099,0.28422 0,0.16295 0.10232,0.25769 0.10422,0.0947 0.31643,0.12695 z m 0.18948,2.02934 h -0.18948 l -0.002,-0.57034 q -0.19327,-0.009 -0.38465,-0.053 -0.18948,-0.0436 -0.37517,-0.12127 v -0.34106 q 0.18948,0.11747 0.38086,0.18 0.19327,0.0625 0.38085,0.0663 v -0.86782 q -0.37896,-0.0587 -0.57033,-0.23117 -0.19138,-0.17242 -0.19138,-0.45664 0,-0.29749 0.19896,-0.4737 0.20085,-0.17811 0.56275,-0.20464 v -0.44528 h 0.18948 l 0.002,0.44528 q 0.14969,0.009 0.30317,0.0379 0.15348,0.0284 0.31264,0.0777 v 0.3278 q -0.16106,-0.0815 -0.31454,-0.12506 -0.15158,-0.0455 -0.30317,-0.053 v 0.81666 q 0.39033,0.0587 0.59497,0.24253 0.20464,0.1838 0.20464,0.4756 0,0.2918 -0.22169,0.48696 -0.2198,0.19517 -0.57602,0.21222 z" />
      <path
         id="path8025"
         style="font-size:3.88055563px;stroke-width:0.52916664"
         d="m -158.99091,577.55429 h 0.47749 v 0.57791 h -0.47749 z" />
      <path
         id="path8027"
         style="font-size:3.88055563px;stroke-width:0.52916664"
         d="m -155.50083,575.30326 h 0.36002 l -1.48932,3.18895 h -0.3619 z" />
      <path
         id="path8029"
         style="font-size:3.88055563px;stroke-width:0.52916664"
         d="m -153.28594,575.64054 -0.4036,1.44763 h 0.80719 z m -0.23117,-0.33728 h 0.46423 l 0.86592,2.82894 h -0.39601 l -0.20843,-0.73708 h -0.99098 l -0.20464,0.73708 h -0.39601 z" />
      <path
         id="path8031"
         style="font-size:3.88055563px;stroke-width:0.52916664"
         d="m -149.72954,576.81721 v 1.31499 h -0.35054 v -1.31499 q 0,-0.28612 -0.10043,-0.42065 -0.10042,-0.13453 -0.31453,-0.13453 -0.24443,0 -0.37707,0.17432 -0.13074,0.17243 -0.13074,0.49644 v 1.19941 h -0.34864 v -2.12218 h 0.34864 v 0.31833 q 0.0928,-0.1819 0.25201,-0.27475 0.15916,-0.0947 0.37706,-0.0947 0.32402,0 0.48318,0.21412 0.16106,0.21221 0.16106,0.64423 z" />
      <path
         id="path8033"
         style="font-size:3.88055563px;stroke-width:0.52916664"
         d="m -147.14518,576.08392 v 0.34107 q -0.14969,-0.0872 -0.30127,-0.13075 -0.15158,-0.0436 -0.30885,-0.0436 -0.23685,0 -0.35433,0.0777 -0.11558,0.0758 -0.11558,0.23306 0,0.14211 0.0872,0.21222 0.0872,0.0701 0.43391,0.13642 l 0.14021,0.0265 q 0.25959,0.0493 0.39223,0.19706 0.13453,0.1478 0.13453,0.38465 0,0.31453 -0.22359,0.49264 -0.22359,0.17622 -0.62149,0.17622 -0.15727,0 -0.3297,-0.0341 -0.17243,-0.0322 -0.37328,-0.0985 v -0.36002 q 0.19517,0.10043 0.37328,0.15159 0.17811,0.0493 0.33727,0.0493 0.23117,0 0.35812,-0.0928 0.12695,-0.0947 0.12695,-0.26338 0,-0.24254 -0.46422,-0.33538 l -0.0152,-0.004 -0.13074,-0.0265 q -0.30128,-0.0587 -0.4396,-0.19706 -0.13832,-0.14021 -0.13832,-0.38085 0,-0.30507 0.20654,-0.46991 0.20653,-0.16675 0.58928,-0.16675 0.17053,0 0.3278,0.0322 0.15727,0.0303 0.30885,0.0928 z" />
      <path
         id="path8035"
         style="font-size:3.88055563px;stroke-width:0.52916664"
         d="m -145.77159,576.01002 h 0.89245 v 1.85123 h 0.69161 v 0.27095 h -1.73185 v -0.27095 h 0.6916 v -1.58027 h -0.54381 z m 0.54381,-0.82613 h 0.34864 v 0.44149 h -0.34864 z" />
      <path
         id="path8037"
         style="font-size:3.88055563px;stroke-width:0.52916664"
         d="m -141.78507,577.07301 q 0,-0.40549 -0.12884,-0.61202 -0.12885,-0.20654 -0.38086,-0.20654 -0.2539,0 -0.38464,0.20843 -0.13074,0.20653 -0.13074,0.61013 0,0.4017 0.13074,0.61012 0.13074,0.20843 0.38464,0.20843 0.25201,0 0.38086,-0.20653 0.12884,-0.20653 0.12884,-0.61202 z m -1.02508,-0.79203 q 0.0834,-0.15537 0.22927,-0.23875 0.14779,-0.0834 0.34106,-0.0834 0.38275,0 0.60255,0.29559 0.2198,0.2937 0.2198,0.81098 0,0.52486 -0.2217,0.82424 -0.21979,0.29748 -0.60444,0.29748 -0.18948,0 -0.33538,-0.0815 -0.144,-0.0834 -0.23116,-0.24064 v 0.26717 h -0.34865 v -2.94831 h 0.34865 z" />
      <path
         id="path8039"
         style="font-size:3.88055563px;stroke-width:0.52916664"
         d="m -139.46218,577.06543 h -0.11558 q -0.30507,0 -0.46044,0.108 -0.15348,0.10611 -0.15348,0.31833 0,0.19137 0.11558,0.29748 0.11559,0.10611 0.32023,0.10611 0.28801,0 0.45285,-0.19895 0.16485,-0.20085 0.16675,-0.55328 v -0.0777 z m 0.67644,-0.14401 v 1.21078 h -0.35053 v -0.31454 q -0.1118,0.18949 -0.28233,0.28044 -0.16864,0.089 -0.41117,0.089 -0.32401,0 -0.51728,-0.1819 -0.19327,-0.1838 -0.19327,-0.49075 0,-0.35433 0.23685,-0.53813 0.23874,-0.18379 0.69918,-0.18379 h 0.46802 v -0.055 q -0.002,-0.25391 -0.12885,-0.36759 -0.12695,-0.11559 -0.40549,-0.11559 -0.17811,0 -0.36001,0.0512 -0.1819,0.0512 -0.35433,0.14969 v -0.34864 q 0.19327,-0.0739 0.36949,-0.1099 0.17811,-0.0379 0.34485,-0.0379 0.26338,0 0.44907,0.0777 0.18759,0.0777 0.30317,0.23306 0.072,0.0947 0.10232,0.23496 0.0303,0.13832 0.0303,0.41685 z" />
      <path
         id="path8041"
         style="font-size:3.88055563px;stroke-width:0.52916664"
         d="m -136.84939,577.36291 q 0,0.23496 0.0853,0.35433 0.0872,0.11937 0.25579,0.11937 h 0.40739 v 0.29559 h -0.44149 q -0.31264,0 -0.48507,-0.20085 -0.17053,-0.20085 -0.17053,-0.56844 v -1.92701 h -0.55897 v -0.27285 h 0.90761 z" />
      <path
         id="path8043"
         style="font-size:3.88055563px;stroke-width:0.52916664"
         d="m -134.11723,577.36291 q 0,0.23496 0.0853,0.35433 0.0872,0.11937 0.25579,0.11937 h 0.40739 v 0.29559 h -0.44149 q -0.31264,0 -0.48507,-0.20085 -0.17053,-0.20085 -0.17053,-0.56844 v -1.92701 h -0.55897 v -0.27285 h 0.90761 z" />
      <path
         id="path8045"
         style="font-size:3.88055563px;stroke-width:0.52916664"
         d="m -132.25857,575.30326 h 1.83606 v 0.2918 l -1.47795,2.21503 h 1.51964 v 0.32211 h -1.91944 v -0.2918 l 1.43816,-2.21502 h -1.39647 z" />
      <path
         id="path8047"
         style="font-size:3.88055563px;stroke-width:0.52916664"
         d="m -127.52739,578.89581 v 0.15158 h -2.3363 v -0.15158 z" />
      <path
         id="path8049"
         style="font-size:3.88055563px;stroke-width:0.52916664"
         d="m -125.80137,577.06543 h -0.11558 q -0.30507,0 -0.46044,0.108 -0.15348,0.10611 -0.15348,0.31833 0,0.19137 0.11558,0.29748 0.11559,0.10611 0.32022,0.10611 0.28801,0 0.45286,-0.19895 0.16485,-0.20085 0.16674,-0.55328 v -0.0777 z m 0.67644,-0.14401 v 1.21078 h -0.35054 v -0.31454 q -0.11179,0.18949 -0.28232,0.28044 -0.16864,0.089 -0.41117,0.089 -0.32401,0 -0.51728,-0.1819 -0.19327,-0.1838 -0.19327,-0.49075 0,-0.35433 0.23685,-0.53813 0.23874,-0.18379 0.69918,-0.18379 h 0.46801 v -0.055 q -0.002,-0.25391 -0.12884,-0.36759 -0.12695,-0.11559 -0.40549,-0.11559 -0.17811,0 -0.36001,0.0512 -0.1819,0.0512 -0.35433,0.14969 v -0.34864 q 0.19327,-0.0739 0.36949,-0.1099 0.17811,-0.0379 0.34485,-0.0379 0.26338,0 0.44907,0.0777 0.18758,0.0777 0.30317,0.23306 0.072,0.0947 0.10232,0.23496 0.0303,0.13832 0.0303,0.41685 z" />
      <path
         id="path8051"
         style="font-size:3.88055563px;stroke-width:0.52916664"
         d="m -122.55572,576.08392 v 0.34107 q -0.14969,-0.0872 -0.30127,-0.13075 -0.15159,-0.0436 -0.30885,-0.0436 -0.23685,0 -0.35433,0.0777 -0.11559,0.0758 -0.11559,0.23306 0,0.14211 0.0872,0.21222 0.0872,0.0701 0.43391,0.13642 l 0.14021,0.0265 q 0.25959,0.0493 0.39222,0.19706 0.13454,0.1478 0.13454,0.38465 0,0.31453 -0.22359,0.49264 -0.22359,0.17622 -0.6215,0.17622 -0.15726,0 -0.32969,-0.0341 -0.17243,-0.0322 -0.37328,-0.0985 v -0.36002 q 0.19517,0.10043 0.37328,0.15159 0.17811,0.0493 0.33727,0.0493 0.23117,0 0.35812,-0.0928 0.12695,-0.0947 0.12695,-0.26338 0,-0.24254 -0.46422,-0.33538 l -0.0152,-0.004 -0.13074,-0.0265 q -0.30128,-0.0587 -0.4396,-0.19706 -0.13832,-0.14021 -0.13832,-0.38085 0,-0.30507 0.20653,-0.46991 0.20654,-0.16675 0.58929,-0.16675 0.17053,0 0.3278,0.0322 0.15727,0.0303 0.30885,0.0928 z" />
      <path
         id="path8053"
         style="font-size:3.88055563px;stroke-width:0.52916664"
         d="m -119.82356,576.08392 v 0.34107 q -0.14968,-0.0872 -0.30127,-0.13075 -0.15158,-0.0436 -0.30885,-0.0436 -0.23685,0 -0.35433,0.0777 -0.11558,0.0758 -0.11558,0.23306 0,0.14211 0.0872,0.21222 0.0872,0.0701 0.43391,0.13642 l 0.14021,0.0265 q 0.25959,0.0493 0.39223,0.19706 0.13453,0.1478 0.13453,0.38465 0,0.31453 -0.22359,0.49264 -0.22358,0.17622 -0.62149,0.17622 -0.15727,0 -0.3297,-0.0341 -0.17243,-0.0322 -0.37328,-0.0985 v -0.36002 q 0.19517,0.10043 0.37328,0.15159 0.17811,0.0493 0.33728,0.0493 0.23116,0 0.35811,-0.0928 0.12696,-0.0947 0.12696,-0.26338 0,-0.24254 -0.46423,-0.33538 l -0.0152,-0.004 -0.13074,-0.0265 q -0.30127,-0.0587 -0.4396,-0.19706 -0.13832,-0.14021 -0.13832,-0.38085 0,-0.30507 0.20654,-0.46991 0.20653,-0.16675 0.58928,-0.16675 0.17053,0 0.3278,0.0322 0.15727,0.0303 0.30885,0.0928 z" />
      <path
         id="path8055"
         style="font-size:3.88055563px;stroke-width:0.52916664"
         d="m -116.82802,576.98395 v 0.17053 h -1.51015 v 0.0114 q 0,0.34675 0.18,0.53623 0.1819,0.18948 0.5116,0.18948 0.16674,0 0.34864,-0.053 0.1819,-0.0531 0.38844,-0.16106 v 0.34675 q -0.19896,0.0815 -0.38465,0.12127 -0.18379,0.0417 -0.35622,0.0417 -0.49454,0 -0.77308,-0.29559 -0.27853,-0.29748 -0.27853,-0.81855 0,-0.50781 0.27285,-0.81098 0.27285,-0.30317 0.7276,-0.30317 0.40549,0 0.63855,0.27475 0.23495,0.27475 0.23495,0.75034 z m -0.34864,-0.10232 q -0.008,-0.30696 -0.1459,-0.46612 -0.13642,-0.16106 -0.39412,-0.16106 -0.25201,0 -0.41496,0.16675 -0.16295,0.16674 -0.19327,0.46233 z" />
      <path
         id="path8057"
         style="font-size:3.88055563px;stroke-width:0.52916664"
         d="m -115.03946,575.40748 v 0.60254 h 0.79202 v 0.27096 h -0.79202 v 1.15204 q 0,0.23496 0.0891,0.3278 0.0891,0.0928 0.31075,0.0928 h 0.39222 v 0.27853 h -0.42633 q -0.39222,0 -0.55328,-0.15727 -0.16106,-0.15727 -0.16106,-0.54191 v -1.15204 h -0.56654 v -0.27096 h 0.56654 v -0.60254 z" />
      <path
         id="path8059"
         style="font-size:3.88055563px;stroke-width:0.52916664"
         d="m -112.54415,577.55429 h 0.47749 v 0.57791 h -0.47749 z" />
      <path
         id="path8061"
         style="font-size:3.88055563px;stroke-width:0.52916664"
         d="m -110.028,577.86503 v 1.07436 h -0.35054 v -2.92937 h 0.35054 v 0.27096 q 0.0872,-0.15727 0.23117,-0.23875 0.1459,-0.0834 0.33538,-0.0834 0.38464,0 0.60255,0.29749 0.21979,0.29748 0.21979,0.82424 0,0.51728 -0.21979,0.81287 -0.2198,0.29369 -0.60255,0.29369 -0.19327,0 -0.33917,-0.0815 -0.14401,-0.0834 -0.22738,-0.24064 z m 1.0232,-0.79202 q 0,-0.40549 -0.12885,-0.61202 -0.12695,-0.20654 -0.37896,-0.20654 -0.2539,0 -0.38465,0.20843 -0.13074,0.20653 -0.13074,0.61013 0,0.4017 0.13074,0.61012 0.13075,0.20843 0.38465,0.20843 0.25201,0 0.37896,-0.20653 0.12885,-0.20653 0.12885,-0.61202 z" />
      <path
         id="path8063"
         style="font-size:3.88055563px;stroke-width:0.52916664"
         d="m -106.38065,577.45007 q -0.0872,0.2217 -0.22169,0.5836 -0.18759,0.50023 -0.25201,0.61013 -0.0872,0.14779 -0.2179,0.22169 -0.13074,0.0739 -0.30507,0.0739 h -0.28043 v -0.2918 h 0.20654 q 0.15348,0 0.24064,-0.0891 0.0872,-0.0891 0.22169,-0.46043 l -0.82045,-2.08808 h 0.36949 l 0.62907,1.65985 0.6196,-1.65985 h 0.36949 z" />
    </g>
    <path
       id="path3278"
       d="m -167.66023,562.57568 c -4.22719,0 -7.65401,3.26082 -7.65402,7.28326 0,4.02244 3.42682,7.28327 7.65402,7.28327"
       style="color:#000000;clip-rule:nonzero;display:inline;overflow:visible;visibility:visible;opacity:1;isolation:auto;mix-blend-mode:normal;color-interpolation:sRGB;color-interpolation-filters:linearRGB;solid-color:#000000;solid-opacity:1;vector-effect:none;fill:none;fill-opacity:1;fill-rule:nonzero;stroke:#000000;stroke-width:0.5291667;stroke-linecap:butt;stroke-linejoin:miter;stroke-miterlimit:4;stroke-dasharray:none;stroke-dashoffset:0;stroke-opacity:1;marker-end:url(#marker3336);color-rendering:auto;image-rendering:auto;shape-rendering:auto;text-rendering:auto;enable-background:accumulate" />
    <g
       id="text3268"
       style="font-style:normal;font-variant:normal;font-weight:normal;font-stretch:normal;font-size:5.83388996px;line-height:9.9441309px;font-family:'DejaVu Sans Mono';-inkscape-font-specification:'DejaVu Sans Mono, Normal';font-variant-ligatures:normal;font-variant-position:normal;font-variant-caps:normal;font-variant-numeric:normal;font-variant-alternates:normal;text-indent:0;text-align:start;text-decoration:none;text-decoration-line:none;text-decoration-style:solid;text-decoration-color:#000000;letter-spacing:0.39776516px;word-spacing:0px;text-transform:none;writing-mode:lr-tb;direction:ltr;text-orientation:mixed;dominant-baseline:auto;baseline-shift:baseline;text-anchor:start;white-space:normal;shape-padding:0;opacity:1;vector-effect:none;fill:#000000;fill-opacity:1;stroke:none;stroke-width:0.52916664;stroke-linecap:butt;stroke-linejoin:miter;stroke-miterlimit:4;stroke-dasharray:none;stroke-dashoffset:0;stroke-opacity:1"
       transform="scale(0.99919514,1.0008055)"
       aria-label="CALL WEB API">
      <path
         id="path8002"
         style="font-weight:bold;font-size:3.88055563px;stroke-width:0.52916664"
         d="m -84.167462,578.43543 q -0.132637,0.0682 -0.278536,0.10232 -0.1459,0.0341 -0.306958,0.0341 -0.572231,0 -0.873504,-0.37707 -0.301274,-0.37707 -0.301274,-1.08951 0,-0.71434 0.301274,-1.09141 0.301273,-0.37706 0.873504,-0.37706 0.161058,0 0.308852,0.0341 0.147795,0.0341 0.276642,0.10232 v 0.6215 q -0.144005,-0.13264 -0.280431,-0.19327 -0.134531,-0.0625 -0.278536,-0.0625 -0.306958,0 -0.464227,0.24443 -0.155374,0.24253 -0.155374,0.72192 0,0.47749 0.155374,0.72192 0.157269,0.24253 0.464227,0.24253 0.144005,0 0.278536,-0.0606 0.136426,-0.0625 0.280431,-0.19517 z" />
      <path
         id="path8004"
         style="font-weight:bold;font-size:3.88055563px;stroke-width:0.52916664"
         d="m -82.316384,576.19956 -0.263377,1.15773 h 0.52865 z m -0.341064,-0.51159 h 0.684024 l 0.763605,2.82894 h -0.558967 l -0.174322,-0.69919 h -0.748447 l -0.170532,0.69919 h -0.558967 z" />
      <path
         id="path8006"
         style="font-weight:bold;font-size:3.88055563px;stroke-width:0.52916664"
         d="m -80.325089,578.51691 v -2.82894 h 0.558966 v 2.33629 h 1.195621 v 0.49265 z" />
      <path
         id="path8008"
         style="font-weight:bold;font-size:3.88055563px;stroke-width:0.52916664"
         d="m -77.592928,578.51691 v -2.82894 h 0.558967 v 2.33629 h 1.19562 v 0.49265 z" />
      <path
         id="path8010"
         style="font-weight:bold;font-size:3.88055563px;stroke-width:0.52916664"
         d="m -72.554934,575.68797 h 0.48886 l 0.202743,2.0767 0.24443,-1.34341 h 0.464227 l 0.28422,1.34341 0.159163,-2.0767 h 0.492649 l -0.325906,2.82894 h -0.521071 l -0.322116,-1.48553 -0.301274,1.48553 h -0.517281 z" />
      <path
         id="path8012"
         style="font-weight:bold;font-size:3.88055563px;stroke-width:0.52916664"
         d="m -67.74228,578.51691 h -1.762166 v -2.82894 h 1.762166 v 0.49265 h -1.203199 v 0.61012 h 1.089511 v 0.49265 h -1.089511 v 0.74087 h 1.203199 z" />
      <path
         id="path8014"
         style="font-weight:bold;font-size:3.88055563px;stroke-width:0.52916664"
         d="m -66.313741,577.23223 v 0.8375 h 0.371381 q 0.267167,0 0.373276,-0.091 0.108004,-0.091 0.108004,-0.31643 0,-0.22927 -0.111794,-0.32969 -0.111793,-0.10043 -0.369486,-0.10043 z m 0,-1.10277 v 0.65749 h 0.371381 q 0.212218,0 0.301273,-0.0758 0.09095,-0.0758 0.09095,-0.25011 0,-0.17433 -0.09285,-0.25201 -0.09095,-0.0796 -0.299379,-0.0796 z m -0.540019,-0.44528 h 0.9114 q 0.471806,0 0.708656,0.18 0.238745,0.17811 0.238745,0.53434 0,0.27285 -0.140215,0.42633 -0.140216,0.15348 -0.411172,0.17811 0.324011,0.0322 0.486964,0.2179 0.164848,0.18569 0.164848,0.51918 0,0.40928 -0.246325,0.59307 -0.246324,0.1838 -0.801501,0.1838 h -0.9114 z" />
      <path
         id="path8016"
         style="font-weight:bold;font-size:3.88055563px;stroke-width:0.52916664"
         d="m -60.459087,576.19956 -0.263378,1.15773 h 0.52865 z m -0.341065,-0.51159 h 0.684024 l 0.763606,2.82894 h -0.558967 l -0.174322,-0.69919 h -0.748447 l -0.170532,0.69919 h -0.558967 z" />
      <path
         id="path8018"
         style="font-weight:bold;font-size:3.88055563px;stroke-width:0.52916664"
         d="m -58.028198,576.15788 v 0.82992 h 0.229271 q 0.274746,0 0.384645,-0.0928 0.111793,-0.0928 0.111793,-0.32212 0,-0.22927 -0.111793,-0.32212 -0.109899,-0.0928 -0.384645,-0.0928 z m -0.558967,-0.46991 h 0.767395 q 0.585494,0 0.841292,0.20842 0.257693,0.20843 0.257693,0.67645 0,0.46802 -0.257693,0.67644 -0.255798,0.20843 -0.841292,0.20843 h -0.208428 v 1.0592 h -0.558967 z" />
      <path
         id="path8020"
         style="font-weight:bold;font-size:3.88055563px;stroke-width:0.52916664"
         d="m -55.836056,576.18062 v -0.49265 h 1.684479 v 0.49265 h -0.562756 v 1.84364 h 0.562756 v 0.49265 h -1.684479 v -0.49265 h 0.562756 v -1.84364 z" />
    </g>
    <path
       style="fill:none;fill-rule:evenodd;stroke:#000000;stroke-width:0.5291667;stroke-linecap:butt;stroke-linejoin:miter;stroke-miterlimit:4;stroke-dasharray:none;stroke-opacity:1;marker-end:url(#marker3526)"
       d="m -103.83246,577.81247 h 16.05247"
       id="path3270" />
  </g>
</svg>
